<mxfile host="app.diagrams.net" agent="Mozilla/5.0 (Windows NT 10.0; Win64; x64) AppleWebKit/537.36 (KHTML, like Gecko) Chrome/138.0.0.0 Safari/537.36" version="28.0.7">
  <diagram name="Page-1" id="h2dQ8w_l-VB_7eN8RHjo">
    <mxGraphModel dx="1157" dy="900" grid="1" gridSize="10" guides="1" tooltips="1" connect="1" arrows="1" fold="1" page="1" pageScale="1" pageWidth="850" pageHeight="1100" math="1" shadow="0">
      <root>
        <mxCell id="0" />
        <mxCell id="1" parent="0" />
        <mxCell id="E95NTjMqibK0115tFfaJ-4" style="edgeStyle=orthogonalEdgeStyle;rounded=0;orthogonalLoop=1;jettySize=auto;html=1;exitX=1;exitY=0.5;exitDx=0;exitDy=0;entryX=0;entryY=0.5;entryDx=0;entryDy=0;strokeWidth=3;" edge="1" parent="1" source="r_x0hsPcGUMjbXRFd7Jh-1" target="E95NTjMqibK0115tFfaJ-1">
          <mxGeometry relative="1" as="geometry" />
        </mxCell>
        <mxCell id="r_x0hsPcGUMjbXRFd7Jh-1" value="&lt;div&gt;&lt;font style=&quot;font-size: 18px; color: light-dark(rgb(0, 0, 0), rgb(255, 102, 102));&quot;&gt;&lt;b&gt;Metric Input&lt;/b&gt;&lt;/font&gt;&lt;/div&gt;&lt;font style=&quot;font-size: 18px;&quot;&gt;&lt;div&gt;&lt;font style=&quot;font-size: 18px;&quot;&gt;&lt;br&gt;&lt;/font&gt;&lt;/div&gt;Question&lt;/font&gt;&lt;div&gt;&lt;font size=&quot;3&quot;&gt;\(Gold_{real}\)&lt;/font&gt;&lt;/div&gt;&lt;div&gt;&lt;div&gt;&lt;font size=&quot;3&quot;&gt;10 Candidates(\(c_i\))&lt;/font&gt;&lt;/div&gt;&lt;/div&gt;&lt;div&gt;&lt;font size=&quot;3&quot;&gt;LLM Response&lt;/font&gt;&lt;/div&gt;" style="rounded=1;whiteSpace=wrap;html=1;verticalAlign=top;" parent="1" vertex="1">
          <mxGeometry x="10" y="135" width="230" height="160" as="geometry" />
        </mxCell>
        <mxCell id="E95NTjMqibK0115tFfaJ-6" style="edgeStyle=orthogonalEdgeStyle;rounded=0;orthogonalLoop=1;jettySize=auto;html=1;exitX=1;exitY=0.5;exitDx=0;exitDy=0;entryX=0;entryY=0.5;entryDx=0;entryDy=0;strokeWidth=3;" edge="1" parent="1" source="E95NTjMqibK0115tFfaJ-1" target="E95NTjMqibK0115tFfaJ-5">
          <mxGeometry relative="1" as="geometry" />
        </mxCell>
        <mxCell id="E95NTjMqibK0115tFfaJ-1" value="&lt;span style=&quot;font-size: 18px;&quot;&gt;Extract the&amp;nbsp;&lt;/span&gt;&lt;span style=&quot;font-size: medium; background-color: transparent; color: light-dark(rgb(0, 0, 0), rgb(255, 255, 255));&quot;&gt;\(Gold_{LLM}\)&lt;/span&gt;&lt;span style=&quot;font-size: 18px;&quot;&gt;&amp;nbsp;and mentioned candidate answers&lt;/span&gt;" style="rounded=1;whiteSpace=wrap;html=1;" vertex="1" parent="1">
          <mxGeometry x="310" y="135" width="230" height="160" as="geometry" />
        </mxCell>
        <mxCell id="E95NTjMqibK0115tFfaJ-11" value="&lt;font style=&quot;font-size: 18px;&quot;&gt;&lt;b&gt;ACC&lt;/b&gt;&lt;/font&gt;" style="edgeStyle=orthogonalEdgeStyle;rounded=0;orthogonalLoop=1;jettySize=auto;html=1;exitX=0.5;exitY=1;exitDx=0;exitDy=0;entryX=0.5;entryY=0;entryDx=0;entryDy=0;strokeWidth=3;" edge="1" parent="1" source="E95NTjMqibK0115tFfaJ-5" target="E95NTjMqibK0115tFfaJ-10">
          <mxGeometry relative="1" as="geometry" />
        </mxCell>
        <mxCell id="E95NTjMqibK0115tFfaJ-5" value="&lt;div&gt;&lt;span style=&quot;font-size: 18px;&quot;&gt;&lt;b&gt;&lt;font style=&quot;color: light-dark(rgb(0, 0, 0), rgb(255, 102, 102));&quot;&gt;ACC Score&lt;/font&gt;&lt;/b&gt;&lt;/span&gt;&lt;/div&gt;&lt;span style=&quot;font-size: 18px;&quot;&gt;Calculate the embedding cosine similarity between&amp;nbsp;&lt;/span&gt;&lt;span style=&quot;font-size: medium; background-color: transparent; color: light-dark(rgb(0, 0, 0), rgb(255, 255, 255));&quot;&gt;\(Gold_{real}\) and&amp;nbsp;&lt;/span&gt;&lt;span style=&quot;font-size: medium; background-color: transparent; color: light-dark(rgb(0, 0, 0), rgb(255, 255, 255));&quot;&gt;\(Gold_{LLM}\)&lt;/span&gt;&lt;div&gt;&lt;span style=&quot;font-size: medium; background-color: transparent; color: light-dark(rgb(0, 0, 0), rgb(255, 255, 255));&quot;&gt;If it&#39;s higher than 0.85, ACC is 1&lt;/span&gt;&lt;/div&gt;&lt;div&gt;&lt;span style=&quot;font-size: medium; background-color: transparent; color: light-dark(rgb(0, 0, 0), rgb(255, 255, 255));&quot;&gt;Else ACC is 0.&lt;/span&gt;&lt;/div&gt;" style="rounded=1;whiteSpace=wrap;html=1;" vertex="1" parent="1">
          <mxGeometry x="610" y="135" width="230" height="160" as="geometry" />
        </mxCell>
        <mxCell id="E95NTjMqibK0115tFfaJ-14" style="edgeStyle=orthogonalEdgeStyle;rounded=0;orthogonalLoop=1;jettySize=auto;html=1;exitX=0.5;exitY=1;exitDx=0;exitDy=0;strokeWidth=5;" edge="1" parent="1" source="E95NTjMqibK0115tFfaJ-10" target="E95NTjMqibK0115tFfaJ-13">
          <mxGeometry relative="1" as="geometry" />
        </mxCell>
        <mxCell id="E95NTjMqibK0115tFfaJ-10" value="&lt;div&gt;&lt;span style=&quot;font-size: 18px;&quot;&gt;&lt;b&gt;&lt;font style=&quot;color: light-dark(rgb(0, 0, 0), rgb(255, 102, 102));&quot;&gt;Getting the Elbow Point&lt;/font&gt;&lt;/b&gt;&lt;/span&gt;&lt;/div&gt;&lt;span style=&quot;font-size: 18px;&quot;&gt;Normalize plausibility scores and s&lt;/span&gt;&lt;span style=&quot;font-size: 18px; background-color: transparent; color: light-dark(rgb(0, 0, 0), rgb(255, 255, 255));&quot;&gt;ort them&lt;/span&gt;&lt;div&gt;&lt;span style=&quot;font-size: 18px;&quot;&gt;Get the knee point of the output graph&lt;/span&gt;&lt;/div&gt;&lt;div&gt;&lt;span style=&quot;font-size: 18px;&quot;&gt;Label everything on the left of the knee as distractors.&lt;/span&gt;&lt;/div&gt;" style="rounded=1;whiteSpace=wrap;html=1;verticalAlign=top;" vertex="1" parent="1">
          <mxGeometry x="15" y="365" width="820" height="410" as="geometry" />
        </mxCell>
        <mxCell id="E95NTjMqibK0115tFfaJ-12" value="" style="shape=image;verticalLabelPosition=bottom;labelBackgroundColor=default;verticalAlign=top;aspect=fixed;imageAspect=0;image=data:image/png,iVBORw0KGgoAAAANSUhEUgAAB7sAAAScCAYAAAD6Tet0AAAAOXRFWHRTb2Z0d2FyZQBNYXRwbG90bGliIHZlcnNpb24zLjYuMywgaHR0cHM6Ly9tYXRwbG90bGliLm9yZy/P9b71AAAACXBIWXMAAB7CAAAewgFu0HU+AAEAAElEQVR4nOzdd3hT5fvH8U+6aaEto1B22XvIUPYQREBARUC+bgUUEQeK26/i+jpwT3Di/imoLAWVJSAissq0LAGhtFCgpXSP/P4Ijc1qk7ZZ5f26rnPBOTnjTprcOTn3eZ7HYDQajQIAAAAAAAAAAAAAwI8EeDsAAAAAAAAAAAAAAABcRbEbAAAAAAAAAAAAAOB3KHYDAAAAAAAAAAAAAPwOxW4AAAAAAAAAAAAAgN+h2A0AAAAAAAAAAAAA8DsUuwEAAAAAAAAAAAAAfodiNwAAAAAAAAAAAADA71DsBgAAAAAAAAAAAAD4HYrdAAAAAAAAAAAAAAC/Q7EbAAAAAAAAAAAAAOB3KHYDAAAAAAAAAAAAAPwOxW4AAAAAAAAAAAAAgN+h2A0AAAAAAAAAAAAA8DsUuwEAAAAAAAAAAAAAfodiNwAAAAAAAAAAAADA71DsBgAAAAAAAAAAAAD4HYrdAAAAAAAAAAAAAAC/Q7EbAAAAAAAAAAAAAOB3KHYDAAAAAAAAAAAAAPxOkLcDAAAAgMmMGTO0ePFi8/wTTzyhkSNHejEiAL4kMTFRo0aNMs/XrVtXixYt8mJE/mn27Nl6//33zfOTJk3Sbbfd5sWIgMrt1ltv1ebNm83zs2bNUrdu3bwYUeVl/bpu3LixxPVHjhypY8eOmecXLlyoevXquSU2SVq0aJGefPJJ8/yIESM0Y8aMErdx9TlxPu0eZTkH8fT7y5+4+lnYuHGjJk+ebJ7v0qWL3nvvPXeG6LdczRkAgMqBYjcAAFasL5DYYzAYFBISopCQEEVFRalGjRpq0KCBmjRpog4dOqh9+/YKCwvzUMQAAAAAAAAAAJx/KHYDAFAGRqNROTk5ysnJUXp6uo4cOaJt27aZHw8NDVWvXr00atQo9enTRwaDwYvRAgC8bdGiRUpMTDTPjxw5ktZNAAB4WWJiokUL5Xr16tESvBJKSEjQqlWrzPOtWrXSgAEDvBYPbK1atUoJCQnm+QEDBqhVq1ZejAgA4E8odgMA4AY5OTlauXKlVq5cqaZNm2r69Om68MILvR0WAMBLFi1aZNGNb9euXSl2AwDgZYmJiRZDW3Tp0oVidyW0Z88ei7/ziBEjKHb7mFWrVln0sFevXj2K3QAAp1HsBgCgFI0aNdI111xjszwvL09nzpzR2bNnlZSUpB07dujEiRM26x04cEBTpkzR+PHjdc899ygoiK9fAAAAAAAAAADKi6vtAACUolatWhozZoxT6yYlJemHH37Q3LlzlZKSYvHY//3f/yk5OVnPPfccBW/YNWPGDM2YMcPbYQDwUfXq1dPGjRu9HQYAwEf5+nfEyJEj3d5qmvNp31G8e3hY8sRn4Xzl63kQAOAeAd4OAACAyiQ2NlYTJkzQ4sWLNWnSJAUEWH7Vrly5Uq+99pp3ggMAAAAAAAAAoBKh2A0AgBsEBQXptttu06uvvqqQkBCLx/7v//5Pf/zxh5ciAwAAAAAAAACgcqDYDQCAG/Xu3Vv33nuvzfLXXntNRqPRCxEBAAAAAAAAAFA5MGAoAABuNmbMGK1evVrr1q0zL9u7d682bNigiy66yIuROe/MmTPaunWr/vnnH2VnZysyMlK1a9dWly5dVK1atXLv//Tp0zpw4ID++ecfnT17Vjk5OapataoiIyPVvHlzNWvWzKZL+IqSlZWl+Ph4HTp0SGfPnlVYWJgaNWqkCy64QFWrVnUq9vj4eB09elQ5OTmKiopSXFycOnfurMDAQLfE7Izs7Gxt375dx48fV2pqqrKzsxUREaFatWqpWbNmiouLk8Fg8Fp8+fn52rlzp/bv36+0tDSFhoYqJiZGbdq0UYMGDSr0WCkpKdq5c6dOnz6t1NRUhYSEqEaNGmrSpIlatmzpltchKytL27dv1+HDh3XmzBkFBASoZs2aHhmbLz8/X1u3btXRo0d18uRJhYSEKDY2Vh07dlTt2rXdfnxPOXPmjLZt26ZTp07p9OnTCgwMVPXq1dWoUSO1bdu23J+/wsJCHT58WHv37tXJkyeVmZmpgIAAhYWFqUaNGqpXr56aNm2q8PDwCnpGnpWSkqIdO3bo1KlTSktLU5UqVVS9enXFxcW57XMhSQcPHtTOnTt14sQJSVL16tXVpEkTtWvXzqs501s89Xp4Mg/m5uZq+/btSk5O1unTp5WXl6fq1aurTp066ty5s8LCwirsWGWVmZmpbdu26fjx4xb5o27duurQoYOCg4PdctyUlBRt27ZNiYmJys3NVWRkpOrVq6cLLrhAVapUccsxyyI1NVXbtm3TkSNHlJWVpejoaMXGxqpLly5eibOwsFD//POPDh48qOPHjysjI0OSFBkZqRo1aqh9+/aqVauWx+OqCDk5Odq/f78OHDigM2fOKDMzU8HBwQoPD1dMTIzq16+vJk2aKCjIO5fvPHm+Bu84duyYdu7cqePHjysnJ0eRkZFq1qyZ2rdv77X3XZFTp05pz549Onr0qM6ePau8vDyFhYWpatWqqlevnho1aqTY2FivxmitoKBAu3fv1oEDB3Tq1CkVFBQoKipKgwYNUvXq1d16bF/L3f4uLS1N27dvV0pKivncqXr16mrYsKHatGnjtvPWxMRE83lUQUGBoqOj1bBhQ3Xq1Mlt5ycAUBlQ7AYAwAOuu+46i2K3JC1evNim2B0fH68JEyaY58PDw7VkyRJFRES4fMxdu3bphhtuMM+HhoZqyZIlioyMtFhv0aJFevLJJ83zI0aM0IwZMyRJhw4d0rvvvquVK1eqoKDA5hiBgYHq16+f7rjjDsXFxTkdW0FBgTZt2qQVK1bozz//1KFDh0pcv2rVqhoyZIhuuOEGly6sJSYmatSoUeb5unXratGiRZJMF5xnzZqlJUuWKCcnx2bbsLAwXXnllZo8ebLd1z8hIUGzZs3SunXr7L420dHRmjhxosaOHev0D+EZM2Zo8eLF5vknnnjCpeJoYWGhli1bpnnz5mn79u3Ky8tzuG50dLR69uypkSNHqnv37hVe2Bo5cqSOHTtmnl+4cKHq1aun7OxsffLJJ/rmm2+UlpZmd9u2bdtq0qRJ6tu3b5mPn5ubq3nz5mnx4sXas2ePw/Vq1aqlESNG6MYbb3T6xo2NGzdq8uTJ5vkuXbrovffekyQdPnxY7733nlasWKHc3Fybbd1Z7D579qxmz56tH3/80eFr26VLF02ZMkWdO3eW5Pp7ztHf1VmzZ8/W+++/b56fNGmSbrvtNqe3Lygo0I8//qjvvvtOu3btsvvZk6SoqCgNHjxYkyZNcrkAkpqaqk8++URLlixRSkpKiesGBASoWbNm6tOnj0aMGKHGjRtbPH7rrbdq8+bNdrct/h6yx95rU1JOc0ZBQYEWLlyouXPnlvq5uOSSS3TLLbe4dGHW+vnOmjVL3bp1kyT99NNP+vDDD3XgwAG720ZFRemaa67Rtdde6xPFUEe2bdum++67T6dPnzYva9q0qV5//XXVrVvXYl1vvx7uzIP2bN68WZ999pn+/PNPZWdn210nJCREF110kW699Va1adOmzMcqqw0bNmjOnDnasmWLw+/I8PBw9ezZU5MmTVLz5s2d3ndJ+W3nzp2aNWuW1q9fb7dnn+DgYA0dOlS33367229KKuk7bP/+/XrnnXe0du1au/k1LCxMAwcO1NSpU1WnTh23xnnmzBmtWLFCa9as0ebNm5Wenl7i+nFxcRo3bpxGjRrl0mempM+pM0o6jy7Jvn379Mknn2jVqlXKysoqcd3Q0FC1a9dO/fv318iRI23O5Yuzjn3jxo2lxmKPu87Xyvp6ucKZcxvrz0FxmzdvLvU9UPS6Ll26VI899ph5ef369TV//vwynVcvW7ZMDz30kHm+Tp06WrhwodsKauvXr9fs2bO1fft2u49HRUVpzJgxuvnmm8v8PVSW80aj0agffvhB3377rcPYiqtVq5a6du2qIUOGqH///haPWb/filu8eLHF+8Sao3MsR5+xs2fP6uOPP9b8+fPtfmbi4uIstq3Iz4I7cndJ3xXOcubvb/15Le7JJ590+PeTHL9m5c2Dy5Yt05dffqkdO3aosLDQ7jpRUVHq16+fJk2a5NJvoZLy0/r16/Xee+9p27ZtdretUqWKRo8erQkTJpT4PQAA5yu6MQcAwAMuvPBCmyLI77//bnPBs1OnTmrVqpV5PjMzU0uWLCnTMefNm2cxP2TIEJd+FP3www+65pprtGzZMocFpYKCAq1cuVLXXXedfvvtN6f3PWHCBE2ZMkXz5s0rtdAtmS4efPfdd7rqqqv0f//3f04fx5HNmzfr6quv1vz58+0WuiXTRb6vvvpKt9xyi06ePGnx2FdffaUbbrhBa9ascfjapKam6qWXXtIjjzyi/Pz8csdcmt27d2v8+PF65JFHtHnz5hIL3UXxLVmyRFOmTHFYjKtoR44c0bXXXqv333/f4YVTyXSjxrRp0/TYY4+V+jzsWbduna688kq98sorJRZ4JNNND3PmzNEVV1zh0nvYngULFmj8+PFaunSp3UK3O23fvl3jxo3TV199VeJru3nzZk2aNEkffPCBB6OrGLt27dJ//vMfPfnkk9q+fbvDz55kaonx7bff6oorrtDChQudPsbatWs1evRoffbZZ6UWuiXTDSZ79+7Vxx9/bJNzfc3+/ft19dVX69lnn3Xqc/HVV1/piiuu0Pz588t13OzsbD300EN69NFHHRZ2JdPf7N1339Wtt96q1NTUch3TXZYtW6bbb7/dotDdrVs3ffjhhzaFbkc89Xp4Mg+ePn1ad999t2699VatWbPGYaFbMhXg16xZoxtuuEEvvPBCiZ/jinT27FlNmzZNU6ZM0YYNG0r8bsnMzNTy5ct1zTXX6IUXXij3d/icOXN0yy232D3vK5KXl6dFixbpmmuu0a5du8p1vLJauHChrrvuOv36668O/y7Z2dlasmSJxo0bp59++sltsezdu1dDhgzRM888o19//bXUQrdk6iXhxRdf1Pjx47V//363xVYRPvjgA1177bVasmRJqYVuydT6e/PmzXr11Vc9cs7mqfO1ymDQoEGqWbOmef7o0aP6/fffy7Svb7/91mL+iiuucEuhu6CgQM8++6ymTp1aYjE5LS1NH374oa655hodOXKkwuOwJzU1VRMmTNCMGTOcKnRLpu+wn376SU888YSbo3Nsx44dGjt2rD755JMSPzPu4Eu5298lJyfr5ptv1kMPPaRt27Y5LHRLps/HokWLdNVVV5X7d1VBQYFeeuklTZ061WGhWzL1HPbFF1/ohhtu8NhnEgD8CcVuAAA8xPoO49TUVB0+fNhmvbFjx1rMf/fddy4f6+zZs/r5558tlo0ZM8bp7RcvXqwZM2ZYFIIDAgIUGRlptzu77OxsTZ8+3emLi44uWgYEBKhatWqqVq2a3W7Li34IlucH5c6dO3XXXXdZXIgICAhQVFSU3QtK+/fv1/3332/+sfv555/r5ZdftriYEBQUpMjISLutOJYvX6633367zPE646efftLEiRMdFk6CgoIUFRXlsCtCT4wff/r0ad1xxx02NzeEh4crNDTU7jZLly7VAw884NIF1Hnz5mnatGlKTk62eazoPWzveGlpabr33nv1448/On2s4hYvXqynn37apshdrVo1t3cBuWPHDk2dOlXHjx+3ecxgMCgyMtLi82Q0GjVr1ix9/vnnbo2rIq1atUq33nqr3fe4wWBQ1apV7XbPmJ2draeeekpz5swp9RibN2/W9OnTdebMGbvHiIiIUFRUlF92H7h161ZNnDhRBw8etPt4tWrV7Oa/jIwMPfPMM5o9e3aZjltQUKDp06dr2bJlFstDQkIctiDetWuX7r//fo/kJVd89tlnevjhhy2+F4cPH6633nrL6dbQnno9PJkHDx48qJtuuslhkbxKlSp2n5vRaNTcuXM1ffp0t98QlpKSookTJ2rNmjV2H3f0PVRYWKi5c+fqvvvuK7GAX5L3339fb731lsU5Q2BgoMNzjtTUVN155502N9m527Jly/T0009bfN/a+/4okpGRoccff7zMN2SWJjs72+H7Ijg4WFFRUQ5bmh45ckQ333xziTeTeNPHH3+sWbNmOewxKTIyUpGRkV4b1sFT52uVRXBwsK644gqLZWW5+e3QoUMWrU8DAwNt9lsRCgoK9Pjjj+v777+3+3hoaKjN8CyHDx/WHXfc4fYb0XJzczV58mSHxb6wsDBFR0f7XHfc+/bt0x133GEejqRIlSpV3B6rr+Vuf/b333/rlltucXiTRUREhN3fAHl5eZo1a5aeeuqpEovjJXn22WdtbugPDg52eH3hyJEjuuuuu8p8bgIAlRXdmAMA4CEdOnSwuWN/7969Ni2+hw4dqjfeeMNccNmzZ4+2bdumjh07On2sxYsXW/z4ad26tdq1a+fUtvv27dPPP/8so9GosLAwjR07VpdeeqlatmypgIAAGY1G/fXXX/riiy+0dOlS83Z5eXl67rnnXCpEt2nTRn369FHHjh3VvHlz1apVy/yDLj8/X3///bdWr16tuXPnWrSyfO+993TBBReoa9euTh9LMrWMefjhh5WdnW2+iDRy5EjzmFsFBQXavn27Zs2aZXHBadu2bVq4cKEaNGigN998U5JpnMjrr79egwYNUqNGjSSZLs6uXbtWb775po4ePWre/ssvv9SoUaPUpEkTl+J1xoYNG/T444/bXDTt1q2brrjiCnXr1s2iG+eUlBT99ddf+u2337Ry5UqnWq9WhJkzZ5pfkwYNGmjChAnq27evoqOjJUknTpzQ8uXL9dFHH+nUqVPm7dasWaPZs2dr6tSppR5j2bJlev755y2WxcTEaOzYserTp4+aN29uvvBz4sQJrVmzRp988ok5roKCAj3zzDNq3ry5WrZs6fRzS05ONh83ICBAl112mUaOHGke99VoNCopKcktLSnS09M1ffp08/ilRQYPHqyxY8eqU6dOCgoKMo8f+P3332vhwoUyGo166623XOqi11vi4+P14IMPWrzHIyMjNXr0aA0YMECtW7c231CQmpqq9evX69NPP7Vozfr222+rRYsW6t27t91jGI1G/e9//7MorlStWlXjx4/XgAED1LRpU4WEhJgfS09P1/79+7Vt2zatXbtWW7Zssbvfa6+9VkOGDJFkygPFb3C65pprzLnDnrZt25b0sjjtxIkTuu+++2xuMurVq5fGjx+vbt26KSQkRIWFhTp48KB++OEHffnllxYXTt9//301btxYQ4cOdenYs2fPNl+0bty4sW644Qb17t3bnJMyMzO1bt06vfPOOxavzZYtW7RgwQK3XOh3VUFBgWbOnGlTvJg4cWKpXdFb88Tr4ck8mJqaqjvuuMOiqB4YGKghQ4bosssuU4cOHczDgOTk5Gjr1q365ptv9Ouvv5rXX7Nmjd59913deeedpT63sigoKNBDDz2kffv2WSyPi4vTzTffrL59+5p7vTlx4oRWrFihjz76yKLY/Ntvv+nll1/Wo48+6tKx169frx07dkgy5axrr71WF198seLi4mQwGFRQUKBt27bpww8/1Pr1683bpaWl6bXXXtPTTz9d1qftkpMnT+qZZ54x31AxaNAgjR07Vp07dzZ/f/z111/6/vvvtWDBAvN6BQUFeuqpp9SiRQu3fZeEhYXpwgsvVO/evdWqVSs1bdrUohCXnp6unTt3asmSJVq6dKn5eyIzM1MPPfSQPv/8c4vc7W3Hjh2z6Qa4YcOGuvbaa9WjRw/VrVvXosh9/Phx7d+/Xxs3btSaNWs8UsD3xPmaL2jcuLG5y/DDhw/ryy+/ND/WqFEjXXPNNU7va/To0ZozZ475/ffbb78pOTnZpa7+v/32W4ubmvr166eYmBint3fWZ599ZnM+WrNmTd1yyy0aNGiQ+fsoNTVVv/76qz766CMdPXpUR48e1Ysvvljh8RT3xRdf2OTqgQMH6vLLL1eHDh0UFRVlXp6fn69Dhw5pz549WrdundauXWv3prAOHTqY/87bt2/XDz/8YPHYZZdd5jAeZ4cRe+SRR8zn4V26dNF//vMfde/eXVWrVpVkyulr1qxxeVid0vhy7nbFiBEj1L59e0mmnuWKF5uLziUccWUYtZJkZWXpvvvus7lJsH379rr++uvVs2dPhYeHy2g06ujRo/rll180Z84ci99fRdcKbrnlFpeO/f3335vPDWvXrq0bbrhBffv2Vf369SWZbgLZuHGjZs2aZdHzy+HDh/Xxxx/r9ttvL+vTBoBKh2I3AAAeYu/HZPExrIqEhYVp1KhRFq0u582b51Kx27o1uCutuv/66y9Jpotvr7/+uk0xxmAwqE2bNnrmmWfUsGFDi/Ept27dqj179pR6gfyyyy5T//791axZM4frBAUFqUWLFmrRooWuvvpq/fe//zW3yiosLNTs2bNdHjes6KJctWrV9Oqrr5rHLS4SGBiozp0766233tJ9991n0VLt888/V2FhoQoKCtSyZUu98cYbNhctwsLCNHjwYHXu3Fk33nij+QdzQUGBvvvuO913330uxVualJQUPfLIIxZFwLCwMM2YMUODBw+2u02tWrXUp08f9enTR/fdd5+WLl2qGjVqVGhc9hRd8O/bt6+ee+45mxZZMTExGj9+vIYOHao777xTu3fvNj/22WefadCgQSWO73rkyBGbwsCll16qRx55xO7FqpiYGI0ePVrDhw/Xf//7X61cuVKS6YLCf//7X/3f//2f0+MtFl0UjoiI0Msvv2zTi4PBYFDdunV10003ObU/V7z66qsWNywEBAToiSeesLl4FxgYqPbt26t9+/a6+OKLdf/99ys3N9f8efdVaWlpNu/xCy+8UE8//bRFt6FFoqOjNXToUA0ePFgvv/yy5s6dK8lUzH7yySe1cOFCu60Bd+7cadHqOTIyUnPmzHFYjK5WrZo6d+6szp07m7sStJfPi48d+fPPP1sUMPv16+fSuLBl9dRTT9l0qTl9+nSNHz/eYllAQICaNm2qO++8U8OGDdOUKVMsChnPPfecunTp4tJ4wkUX7y6//HI9/PDDNr0chIeHa/Dgwbrooot02223Wdyg8M0333i92J2ZmamHH37Y4rsgKChIjzzyiMXY6c5y9+vh6Tw4Y8YMiwvDdevW1QsvvGD3Ro3Q0FBddNFFuuiii/TDDz/oqaeeMn+uP/30Uw0cONB8sbsiffbZZ9q6davFsqFDh+rxxx+3KYLGxMTo6quv1rBhw3TPPfdYtC78/vvv1bdvX/Xr18/pYxddsG/btq1effVVm5wVGBioCy64QG+++aaeeuopi7Fhly1bpnvvvVfVq1d3+nhlVdSCNyAgQI8//rhGjBhhE2e7du3Url07XXzxxZo+fbq5F5O8vDw9+eST+uSTT+y2IiyratWq6d5779WoUaPMBSNH6/Xo0UM9evTQ2LFjNW3aNPMwAwcOHNBPP/1kM1azN/30008WNxJ16NBB77zzjsPWn7Vr11bt2rXVs2dP3XnnndqyZYu56Owu7j5f8xUxMTHm30cbN260KHbXqlXLpd9OderUUf/+/bVixQpJpvP+77//3ukbonJyciyKsJJrv92cdfjwYYvfbZLUrl07vfHGGxaFZMl0PnX55ZdryJAhevDBB7Vu3Trze8NdrF+De+65R9ddd53ddYOCgtSsWTM1a9ZMw4YNU3Z2tvk7rLi4uDhzQTQ0NNTiGI0bN66Q17noJhRH8UZFRdnk1Yrgi7m7LLp162Y+H96xY4dFsbtbt24eyeGvvvqqTY97119/ve68806L18dgMKhBgwa6+eabzefKxbebPXu2evXqpdatWzt97KJzjd69e+u5556z6VkhJCREvXr1Uvfu3TVt2jSLm+O+//57TZo0ye29iAGAv6AbcwAAPMTeeNmOuqkcM2aMxQ+r5cuXOz3+1+bNmy1aflStWlWXXnqpS7FGRETozTffLLHVoSRNmjRJLVq0sFhm3T2rPbfcckuJhW5rVatW1YsvvmjRCn7z5s1lHpPxmWeesSl0FxcUFKSHHnrI4m9w8OBBHT58WNHR0XYL3cXVqlXL5i7r5cuXlynWksyZM8eiS8HAwEC9/vrrDgvd1oKCgjRixAg1bdq0wmOzp3nz5nr++ecddj0qmS6uvfnmmxYF+IKCAn300Ucl7nv27NkWd9cPHDhQTz/9dKmtMsLCwvTss89aFGf279+vtWvXlvZ0bDzzzDMeKV4WSUpKsrkwOHny5BJbqUimiymPPPKIO0OrMF988YVFMa1jx452i0bWgoKC9MADD1gUpk6dOqUFCxbYXd+66D969OhS819xDRo0UPfu3Z1e31N27NhhM3bohAkTbArd1po3b67XX3/dooVhRkaGvvrqK5dj6Nu3rx577LESL8RVq1ZNjz32mMWyPXv26J9//nH5eBXlxIkTmjRpkkWhOyIiQq+99lqZCt1F3Pl6eDIP/vHHHxaPR0VF6d1333WqR4LLLrvMoiW30WjUp59+Wup2rsrOztZnn31msaxLly6aMWNGia19IyMj9cYbb6hevXoWy8syhEqdOnX05ptvlpizDAaDHnjgAYt18vLyLFrAe8LkyZNLLcj06tXL5vtj9+7dZfrOLElcXJyuueaaEgvd1tq3b2/Tq0HRDU++IiEhwWL+1ltvdamb4wsuuMAtvQRZc+f5WmU1btw4i/kFCxY4PUTDL7/8YvE7r1GjRrrwwgsrND7JdDNC8aE4atasabfQXVyVKlX04osvuv23QnZ2tsVNhzExMS61rg8LC9OwYcPcEJlzrr/+eoeFeXfzpdztj44fP27z+2DYsGG6++67S7wRIDY2Vu+8847FOVZBQYE+/vhjl2No1aqVZs6caVPoLi44ONjmRr1Tp05p06ZNLh8PACorit0AAHiIvTErs7Ky7K7boEED9ezZ0zyfk5Nj0eKnJNZdrV522WUujxd20003qUGDBqWuFxAQoMsvv9ximbtaigYHB+s///mPxbLiXY07q1+/fg67Mi6ubt26dgviEyZMcKobukGDBlmMbXj8+PEKHYMzNTVV8+fPt1h2ww03uNy1uydNnz7d4XiPxUVHR2vKlCkWy1avXm13TGrJ1ENC8THqIyIi9PDDDzvdUiEkJER33XWXxTLr3hFK07dvX/Xt29elbcprwYIFFi2eGzVqpBtuuMGpbUeMGFHiDR++IDMz0yKfBQYG6rHHHnPqPSSZCkjTpk2zKNg6GqPSepxu6yKXv/r6668t5ou6pHVGmzZtbC7ez58/36XxAQMDA/Xggw861UtC27ZtbVrCFG8x6En79u3TTTfdZFGYqlOnjj788EP16NGjzPt15+vh6TxoXZyeMmWKU+cNRcaPH2/uolOSVq1aZW6RW1GWLl1qUUAKDAzUI4884lQLqKpVq+ree++1WLZr1y6HY8k6cuedd5ZYSCpSpUoVm2ECPPn+L+/3R1nGKHaHrl27Wgzb89dff+ns2bNejMiSv3zXuOt8rTLr1q2bRUH4xIkTTt+wYj3M1ejRo53uXchZGRkZNt2XT5061an8FBYWpunTp1doPNash1qpW7eu11scO6t69eq67bbbvHLsypK7venbb7+1+D1VrVo1p3tji42NtenBYdWqVUpKSnIphgcffNCpITdq165tcx3DW+fKAOCL/OPMAQCASsBewbl4V4bWrIsM3333nd2xyIo7ffq0TRduV111lQtRmgrYV155pdPrW/9oLn5XfkWz7uK0LN3pudItrnULtcDAQKe7UqtSpYpN65u///7b6WOX5rfffrMoOoWGhnqtRYEzmjZt6lKr52HDhlm06CooKNC6devsrrt8+XKLixRDhgxxuWv2bt26WbSq27p1qwoLC53e3pXPTEWxvoh6xRVXuNSN3dixYys6pAr1+++/WxQGunfv7nLLooYNG1p0p7p//367vWRY34xUWS4cWX9mRo8e7dL4tePHj7e44J6enu5Ssa9Pnz6KjY11ev1OnTpZzLvz+8SR9evXa8KECRY9CrRs2VJz5swp99iW7nw9PJkHU1NTtWHDBvN81apVXe6iNSgoyKIXksLCQpvuxsureKt8SerRo4dL43v279/fphhpvc+SREVFOd3TiuTd9395vz82bNjg0o0w7lR8fNfCwkLt3LnTi9FY8ofvGneer1V21r/drIvY9uzZs8ei2+bQ0FC3dNv8559/KjMz0zwfGRnpUs9fF154oUUPWxXNuheHv//+2+FN4b5m+PDhJfaC4E6VKXd7i/X3+tChQ10aLuLyyy+3uM5TUFBg0dV4aVq2bOnScHXW5wpF3dkDACh2AwDgMcUvMBQpqejQq1cvi1ZShw8ftri4bM+CBQssCuhdunRxuTjUrFkzl37gFW+ZJdneme+ss2fPKj4+XqtWrdIPP/ygb7/9VvPmzbOYrH+MFi9GOMNgMOiCCy5wen3rokTz5s1d6lLTevuKbF1k3WVZr169nGqd4S3Fxy52RmhoqEXvBpIsLgYWZ/1aONNy355WrVqZ/5+enu50ocFgMKhLly5lOmZZZWdn23Tj7+pr3K9fP59uNbN582aL+V69epVpP8VbxxqNRrvvo+ItASVp4cKFmjt3rks3PPiagwcP2hT2L774Ypf2Ub9+fZvWxa4Uu139XFTU90lZzZ8/X3fffbdFV+C9evXSBx98oJiYmHLv352vhyfz4ObNmy1uvuvatavTPS4UV573ljOs9+fq+99gMNhs40qMnTp1cqkI4c33f3m/P/Lz893Ws09xx44d0/r167Vs2TItWLDA5jxx3rx5OnLkiMU2rp4rupP1d80rr7xSpl6K3Mmd52uV3fDhwy26NP7zzz9txgG2Zt2ydvDgwW45n7e+6aNnz54u3fwmSQMGDKjAiCxVqVLF4jdrenq6Hn74YZ06dcptx6wonhzCyJq/5G5flZWVpb1791osc/VcITw83CYHuvNc2boXHU+fKwOAL3P+lxcAACgXe4XOku4CNxgMGjNmjF577TXzsnnz5umiiy6yu77RaLTpotfVVt2Sqds4V1iPLVW8SFCaQ4cOadGiRVq+fHmZxmZ19cddRESE3e7kHbH++7j62li35nfltSmN9YUJ67u8fU3xAoqzWrdurV9++cU8b30xooh1C/+//vpLKSkpLh+v+PjnkpSSkuLUzSJ169Z16SaIirB//36LVpzh4eEujTEtmd6fjRs3rtAeByqS9cXyf/75p0zdLSYmJlrM23tvtG3bVm3atDG3sisoKNALL7ygzz77TEOGDFGvXr3Uvn17ly8Me9O+ffss5iMjI13qZrpI8ddFcvw5tMfVLnrL831SXm+//bbNOItXXnmlHnzwQZcKliVx5+vhyTxo/dnMysoq02fTupBelngdOX36tM3QIc6MJ26teM8Qknvf/9Zjq3vq/V9R3x979uyp8OExjEaj1qxZoyVLlmjdunVlek18qRAwfPhwzZ4929yS8tSpU5o8ebLatWunwYMHq0ePHmrevHmFd2HtCneer1V24eHhGjFihHkIEaPRqG+//VbTpk2zu35GRoaWLl1qsWzMmDFuiW3Pnj0W89Y3GzmjLNu44qqrrtLMmTPN82vXrtXIkSM1YMAA9evXz6b3EV9R3l5fysqXc7e/OHDggMXvKYPBYPO974y2bdtqxYoV5nnrc/CSePLaCwBUdhS7AQDwEOtx+iSVOvbzqFGjNGvWLPNFsdWrV+vEiRN2W5j9/vvvOnr0qHm+Ro0aLt+ZLNkfW7wkxcfDleRUS8i8vDy9+eab+vrrry1+YLrKXmv5krhakLR+btYXol3dviJbiVoXJMpSxPIkV3/IS7aFAnvdTxcWFtq8Fh988IHLx7LH3mfWnrK0wPn111914sQJp9e3vvhp/VrExsaW6eJ43bp1fbbYbd2aZ+7cuRWyX0d/1yeffFITJ060eDwxMVFz5szRnDlzFBISolatWqlz587q0qWLunXrZnd4Cl9h/R4p69iw1ts5+7mQPPN9UhG+/vpri+dlMBg0ZcoU3XzzzRV6HHe9Hp7Og9afzQ0bNpTa80xZj1VW9r4vyvIZsNfa2mg0OpVvXf17W/e04an3f0V9f9h7zcvj77//1tNPP13uFv+uniu6U82aNfXoo4/qiSeesPj77ty5Uzt37tTrr7+uatWqqV27durcubO6deumDh062OQCd3LX+dr5YuzYsfrmm2/MvV8sXrxYU6ZMsdv7xZIlSyzeny1btrTohr8iWf9NyvJ3Lss2rhgzZozWrVtn0ZNXTk6OfvrpJ/N44w0aNFCHDh3UtWtXde/e3SZHe4O3etby1dztT6zPOyIjI8t0A3N5cmB5zxXKcy0FACobit0AAHiI9R31km0319YiIyM1dOhQzZ8/X5Lpx8z8+fM1adIkm3WtW1WNGjVKwcHBLsfp7tYkeXl5uu+++ypkPD9XLwSX97l5s6WNNesf0Z5uWewqV28UkGyfk71CyJkzZ0ody76snB3DriwFzy+++MKmm+6SWBe7rVuqleX1lXz7fVORha/iHP1dmzZtqk8//VTPPPOM3W5lc3NztX37dm3fvl2fffaZwsLC1L9/f91www1lagnnbu56j1TGi6LW77XY2FhdfvnlXorGdZ7Og57+bJaF9fs/ICDApjWUM6zf/wUFBcrIyPDp3OmqisoNFfm+SEhI0JQpUyok3/jacBTDhg1T9erV9cILL9jt1Sg9PV3r1683j/las2ZNDR8+XNdee22pN8lWBHedr50v4uLi1L17d/MNQGlpafrll180YsQIm3W/++47i/my9MjlrIo4J3B33gsMDNTLL7+s2bNn68svv1ROTo7NOkeOHNGRI0e0ZMkSSaahAcaOHathw4Z59KaQ4sry3VIRfDF3+xvr5+6N19SXri8AgL+j2A0AgIdYdzEqOddV4Lhx48zFbsk0pugtt9xi8YM+OTnZ4i74gIAAjR49unwBu8mcOXNsCt3R0dEaMmSIOnfurEaNGikmJkbh4eEKCQmxeJ6JiYkaNWqUp0OGD8vPz3fbvt1VPIJz8vLy3LLfkv6uDRo00KxZsxQfH68ffvhB69atU1JSkt11s7Oz9dNPP+nnn3/W2LFjNW3atDLdYATvu+CCC7Rz507l5uZKMo0LPGnSJL3zzjuqU6eOl6MrnafzoDc+mzh/5Ofn69FHH7UpdLdt21b9+/dXu3btFBsbq5o1ayokJEQhISEWxYLZs2fr/fff93TYLunRo4fmzp2rX3/9VUuXLtXGjRsddrd+8uRJffbZZ5o7d66mT5+uK664wrPBwmXjxo2z6O3i22+/tSl2b9u2zeJG6IiICA0bNsxjMfqqoKAg3XHHHbr66qu1ePFirVy5Un/99ZfD1qtFvSJ88cUXeu655xQXF+fZgAEAgM+g2A0AgIdYtxSsUaOGU11Pt2zZUp06dVJ8fLwkU2F7zZo1GjBggHmd+fPnW1wE6NmzZ5m7rHWnzMxMzZkzx2LZpZdeqv/+978ljl9efHuYREVF6fjx4+Z5e2PC+5KyjCdm/ZwiIyNt1rG3bO7cuWrSpInLx/Mn1l3elXW8Nk+/b1wpZkVGRlqMufv666+rd+/e7gjLRqdOndSpUydJpptstmzZoq1bt2rr1q023b4bjUZ98803Sk9P19NPP+2R+JzhrveIt7rrdKdu3bpp0qRJuu+++5SVlSVJOnTokLng7evDRHg6D1of74YbbtBdd93llmOVlfX7v7CwUJmZmS632rJ+/wcGBpa55ZevqqjcYO99WBY//PCDxXjuwcHBeuqpp3TJJZc4tX3RZ9hTytpyPCgoSIMGDdKgQYNUWFiovXv3mr9ntmzZYjOGfXZ2tp555hlJcmvB213na+eTvn37qm7dujp27Jgkafv27dqzZ49atmxpXufbb7+12Gb48OFubSFcEecEnjxnrFWrlm666SbddNNNysjI0LZt27R161bFx8dr27Zt5pvTiuzdu1e33XabPv30U7+4Sa0i+FrutsfXetawZv3c/eE1BQA4RrEbAAAPWL9+vQ4fPmyxrHfv3k53WzVu3DhzsVsyXSApKnbn5+dbtPyW3NsNXnmsW7fOoku6Ro0aacaMGU63hrQek/R8Fh0dbVHsttcVpi85duyY2rVr59I2iYmJFvP2imwhISGKiIiwuDjhD90sv/fee+Xa3vq1SE5Odnoc2eKKLsQ6q7xjyjpquWZP9erVLYrd3vq71qtXT/Xq1dNll10myfSaLVmyRF9++aVFTlqyZIlGjBihiy66yCtxWrN+j7j6ty5i/TmsrBfwLrzwQr399tu6++67ze/TxMRETZo0SW+//baaNm3q5Qgd83QerF69usW8L+bc6Ohom2XHjh1T8+bNXdrP0aNHLearVatW6bocrajvj4q6EWblypUW8zfddJPThW7J9XNF666P3fm95khAQIBatWqlVq1a6eqrr5bRaNRff/2lBQsWaP78+Ra9N7z66qsaOHCg2248ctf52vkkMDBQV111ld566y3zsnnz5umRRx6RZMqZy5Yts9jG3b/dKuKcoKznEeUVERGhnj17qmfPnpJMN7T89ttv+vLLL7Vt2zbzeidPntRbb73lUzceupO7c3d5c6Pk+zdjWz/3M2fO6OzZsy532U8OBADfEFD6KgAAoLw+//xzm2VFhRNnDBo0SDVr1jTPr1+/XkeOHJEkrV69WidOnDA/Fhsbqz59+pQjWvfZt2+fxfwll1ziUre/u3btquiQ/FabNm0s5otf7PFFCQkJLm/z119/Wcy3aNHC7nrFW8rY264yatasmcVFqIyMDJsbakqTlZXl8jbWrY5c7W3BlQul1n/XsryH3KFu3bq65ZZb9PXXX6t+/foWjy1dutRLUdmyLuqlpaXZFO6csXv3bot5R5/DyqBjx46aNWuWRTH3xIkTuvXWW30+r3gyD/rqZ7O46Ohom/GNy3IOcT68/yvq+8P6fVFWe/futZh35XxZcv3vXKVKFYt5V7/XHA11UR4Gg0Ft2rTRQw89pNmzZyso6N92KhkZGVqzZk2FH7OIO8/XzidXXHGFQkJCzPNLly4135C0aNEii5t/O3Xq5PKNOK6qiO8IX/kerFKligYPHqyPPvpIY8eOtXhsxYoVdsf6rozcnbvLmxvPnDlT5pbSntKkSROL31NFNxq5yvp7x92fZwCAfRS7AQBws2+++Ubr16+3WNa6dWt169bN6X0EBQVZjMFtNBr13XffSTK1FCjuyiuvtGl96StOnTplMe9qN3PuvLjnb7p27Woxv27dOp9u+f7rr7+6tH5OTo7N56ZDhw5217VuSVt8/PrKKiwsTM2aNbNY5uprvHr1aodjIDpi3Q2mdUuGkhQUFFj0UFEa67/runXrfGpM35o1a+r666+3WGZdpCmueLFCcn/XjnFxcTYtS6xbTJYmMTHR5qJfx44dyx2bL2vVqpXef/991a5d27wsNTVVkydP1tatW70XWCk8mQetj7Vnzx6Lm+58hfV3hqvvf6PRaLNNZX3/l/f7IygoSK1bt66QWE6fPm0x78q54pEjR2yGmihNeb7XJGnz5s0ure+qTp06aeDAgRbLSvquKS93nq/5Knd8P0dHR1v0SJCZmaklS5ZY/IYrMmbMmHIfrzTWrfV///135eXlubSPVatWVWBEFWPq1KkWf7+cnByHvV1Zt1R29RzYF7kzd1vnRldb9pclN3r6b1SlShWbm3NcPVfIysqyyYGV9VwBAHydb14JBwCgkli3bp1ee+01i2UGg0HTpk1zeV+jR4+2+AG4aNEi7d+/X3/++ad5WVBQkC6//PIyx+tu1q24Xen6cceOHdqyZUtFh+S3evfubXHHfU5Ojr744gsvRlSyAwcOaNOmTU6vv2TJEov3R2BgoHr16mV33YEDB1p04ff777/7TOsTd+rXr5/FvHVXp6WxvlHGGY0bN7aYd6V4vXz5cpe6O+7du7fCwsLM83///bfPXWi1btld0lix1q3iPdG1o/UY5999951L75Gvv/7a4gaDyMjI8+ICXlxcnN5//32Lv+/Zs2d155136o8//vBiZI55Mg/GxsZaFE4KCwv1ySefuOVY5WHdy826devMveI4Y82aNTa9IfhqzznlVd7vjwsvvNAiX5dHec4VP/vsM5dvioqLi7OYd+V7bceOHdqzZ49LxysLV75rysud52u+yl3fz+PGjbOY//bbb/Xnn39atKyNjo7WoEGDKuR4JenWrZvF74YzZ87op59+cnr7DRs26NChQ+4IrVwiIiJsbuxz9PnwxnmYu7kzd8fGxlo8lp6erv379zt9LOubOpzhjb+R9ff60qVLdebMGae3X7BggUWr98DAQHOX+wAAz6LYDQCAG+Tn5+u9997TPffco9zcXIvHrrvuOptWuc6IiYmxaNlx+vRpPfjggxYX9QYMGGDTbacvKd5STpLWrl3r1HZZWVmaMWOGGyLyX1FRUbryyistln366adub2FUHjNnzrT5PNiTmpqqd955x2JZv379bN4/RZo1a6aLL77YYtljjz1WrnE0fakFsSNXXHGFRS8Ohw8f1qeffurUtosXLy7TzSPWLYOWLl2q7OzsUrc7c+aM3njjDZeOFR0dbdM95fPPP1+uMSMd/V1duVBYnHULwuLDTVizfszV1odlcfXVV1vMHz58WHPmzHFq27/++kv/93//Z7Hs8ssvr7CClq+rX7++PvjgAzVp0sS8LCsrS9OmTfO5my4kz+fBSZMmWczPnTvX6e90V49VVpdeeqlFEaSgoEDPPfecU602z549q5dfftliWdu2bf2uxaqzyvv9UZHjDVt/1zvbq88ff/xRpuKK9ffa2rVrlZKSUup2eXl5euGFF1w6lie+ayqCu87XfJX163nkyBGXWz3b065dO7Vt29Y8v3fvXr344osW64wcOdKiu3N3qVq1qi699FKLZW+++aZTNyFmZ2frpZdecldoksr+2UhNTbXp2crR58P6N/LBgwfLdExf4s7cHRgYaNPqe/78+U4da/ny5Vq3bp1T6xZn/bfzxN/oqquusugdIC0tzaaxgiPJycmaPXu2xbKBAwe63HsdAKBiUOwGAKACJSUl6eOPP9bIkSP13nvv2VxQveSSSzR16tQy79+6hYD1D0BPdINXHtZF/i1btpR6YTI1NVV33HFHpbggUdFuuOEGi7FlCwoKdNddd2nFihVObZ+fn6/FixfrwIED7grRwr59+/Tggw+WWBxNTU3VnXfeadHlfWBgoG6++eYS9z1lyhSL1gAHDx7UhAkTbMaJL82OHTv02GOP6euvv3ZpO2+IjY21Gct01qxZ+vHHH0vcbt26dfrf//5XpmP279/fotXdiRMn9Oqrr5a4zenTp3X33XeXaVzTG2+8UTExMeb5kydPauLEiS4X6g8cOKDnnntOb775pt3Hn3jiCf3vf/9z6bNw9OhRm9asJQ1P0apVK4v5H374we1jGbZr186mdcns2bP1/fffl7jd/v37dffdd1t0H1m1alX95z//cUucviomJkbvv/++xd8uNzdXDz74oE+Nz17Ek3mwT58+6tGjh3m+oKBADz74oMs9Rpw+fVoffvih7rzzTpe2c0ZYWJjNUAN//PGHnn766RILK+np6brnnntsWnVbF/grm1mzZmnx4sUlrvP777/bfH+0atWqQlu8W58rvvvuu6Xe5PT777/r/vvvL9NNE126dFGNGjXM8zk5OXr22WdLfI9kZWXpgQcesBnTvTTjx4/XBx98YDOsT0nWrFljU/B3ZSiksnDn+ZovqlmzpkUhNDs7WwsXLqyQfZf0281gMFTojSKlue666ywK6ydPntTdd99dYivW7OxsPfDAA27/rbB27VpNnDhRK1eudLrwXVBQoJdeesniXKV+/fqqW7eu3fWbN29u0UvaP//8o99//718gfsAd+Zu614H5s6dW+qN1b/99puefPLJEtdxxLq4vnLlSrcPkxITE6NRo0ZZLFu4cKFmzZpV4nfK8ePHdccdd9j0bHHTTTe5K1QAQCmCSl8FAIDzW0pKit2Lt3l5eUpPT1d6erqSk5O1Y8cOHT9+3OF+rr/+ek2dOtVmLCpXdOnSRc2bN7d74TouLs7tF7/Kq127dmrdurVF16r/+9//tH37do0bN04tW7ZUYGCgjEajDh06pOXLl+uLL74wX4Tp0qWLT7dc9rRatWrp2Wef1Z133mm+0FN0Uap79+66/PLL1b17d4u75E+ePKndu3dr3bp1WrFihVJSUjRr1iw1bdrUrbG2b99eO3bs0Jo1azR+/HhNmDBB/fr1M7e6S0lJ0bJly/TRRx/ZXAS+5pprLFrG2NO4cWM99dRTFhe7Dxw4oGuvvVYXX3yxhgwZoo4dO1q8Fvn5+UpMTNTevXu1detWrV692lzcsC5M+qp77rlH69at08mTJyWZuhN+/PHHtWbNGo0bN04dOnRQUFCQCgoK9Ndff+n777/XggULZDQaFRQUpObNm7vU1XH16tV1ySWXWBTUv/32WyUnJ+vmm29W+/btLT7DK1as0BdffKG0tDQZDAa1b99e27dvd/p40dHRmjlzpm677Tbl5ORIMrWiuPXWW9WzZ08NHz5cnTt3Vp06dcxdOBcWFio5OVl79+7V9u3b9euvv5ov0lq3FC+SnZ2tn376Sd99952aNWumgQMHqn379mrVqpVq1apl3nd+fr7+/vtvrVy5Ul999ZXFBa7w8HCbi2XF9e7dW4GBgebP6uHDhzVmzBj1799fDRo0sGkx3bZt21Lf9854/PHHNX78eHPrLaPRqGeffVarV6/W1Vdfra5duyo4OFhGo1EHDx7Ujz/+qC+++MKmVd9DDz3kd631KkJ0dLRmz56tu+66S9u2bZNkusD++OOPKysry6aHDW/ydB589tlnddNNN5nHR83JydHzzz+vuXPnavTo0eratauaNGlicd5z+vRp7du3T7t379batWsVHx+vgoICt30HXX/99Vq7dq3FeOuLFi3Srl27dNNNN6lPnz7mcUlTUlK0cuVKffjhhzYte6+88kr17dvXLTF6W+PGjXXy5EmdPXtWM2bM0Nq1azVu3Dh17NhRQUFBKiwsNH9/zJ8/3+Lif1BQkJ544olyndtau/LKK/Xtt9+aj5OSkqLrrrtOkyZN0qBBg8w3QOXk5Gjr1q2aP3++fvnlF0mm4mHnzp1duiEqKChIo0eP1gcffGBetmbNGt1666269dZbzTlSMo1Zu3r1an366adKTk6WZBqbtSg3lKbonOv999/XBRdcoL59+6pt27Zq3ry5xfi4WVlZ2r17t3788UctWrTI4ubZVq1aqUuXLk4/P1e5+3zNV/Xr18/iBtznn39eq1atUvv27RUdHW3zHnf2BuMhQ4botddes2l9LEk9evRQgwYNyhW3K+Li4jRx4kSL1vg7duzQ2LFjNWHCBF188cXmon9qaqpWr16tDz/80Pyd0KFDB5fO4Vy1detWbd26VVFRUerXr5+6d++uVq1aqVGjRjY3Wm7cuFFffvmlzQ0nV199tcWQHsWFhYXpwgsvtChwT5s2TX379lXr1q1VrVo1ix6TIiIiNGzYsAp+lhXHE7l7+PDhmj17trk78fz8fN1111266aabNGLECMXGxkoy3QgYHx+v77//Xr/88ouMRqMaNGigzMxMl27u6dy5s6pVq2Y+v05LS9PVV1+tAQMGKC4uzqab84q6/jFt2jRt3LjRYoiBDz74QH/++aeuv/569ejRw3yefvToUf3yyy+aM2eOTTfrkydPdjgGOgDA/Sh2AwBQisOHD+v5558v8/YtW7bU9OnTK+zC1NixY/Xcc8/ZLB89enSF7N+dDAaD7r//fk2ePNmie8BFixZp0aJFCgoKUkREhM6ePWtxl75kuhv//vvvP+9aFpbmwgsv1JNPPqmnnnrKojj1559/msdzDw4OVnh4uDIzMyukW8ayeOCBB/Twww/r6NGjOnLkiPmO/4iICBUUFDhsPdS7d29NmTLFqWMMGDBAM2bM0P/+9z9zYbSgoEC//PKL+UJ40XssNzfXrWNeekpUVJRefPFF3XXXXRathIuec0BAgKpWraqMjAybz9TUqVO1b98+l8f1LSqwF79wu3btWq1du1aBgYGqWrWq3c/wrbfeqsLCQpcvlLZv314vv/yyHnnkEfONL0ajUevWrTN3kVh03Pz8fGVmZparS+T9+/dbjElY9BpKsvs6Fq3z0EMPmS/62VOnTh2NGDFCCxYsMC87ceKEw5awkyZNqpCiQUxMjF566SXde++9FsX5otaCBoNB1apVc/jcimIZOnRouWPxV1WrVtXbb7+t++67Txs2bJBkuqni2WefVWZmpq699lovR/gvT+bBqKgovfnmm5o+fbrFTXj79+/XzJkzJZm+9yMiImQwGJSZmenwPeYugYGBev7553XHHXdYfK7379+v//73v5JM30P5+fnm18tar169dN9993kkXm+oWbOmbr/9dj388MMyGo1atmyZli1bVmpuCAgI0GOPPaaWLVtWaDytWrXSmDFjNHfuXPOytLQ0vfTSS3rppZcUHh6uwMBAu130T5w4UZJc7v3j5ptv1i+//GIxJvG2bds0depUBQQEqFq1anbPoUaNGqULLrjA6WJ3kYKCAm3cuFEbN240LwsKClLVqlWVl5fnsNePyMhIPfXUUw6LeRXBE+drvujaa6/Vjz/+aH5+RqNRv//+u8OWv84Wu0NCQnTFFVfYHULEk626i9x4443au3ev+ftAMt0I++KLL+rFF19UWFiYAgICLMYglkwtpu+//37dcMMNbo8xLS3N/NuwSJUqVRQaGqqsrKwSc/X48eNL3PfNN9+sP/74w3wDSX5+vlauXKmVK1farFu3bl2fLnZ7IndHRUXp3nvv1VNPPWVelp2drVmzZmnWrFkKCwtTcHCwzp49a3HuXa1aNc2cOVP33nuvS88pLCxM1157rWbNmmVedubMGYc9LYwYMaJCit1VqlTRyy+/rKlTp5pvZJKk+Ph4xcfHSzKdC+bm5joc4mHUqFG68cYbyx0LAKDs6MYcAAA3CA0N1aBBg/T666/ryy+/rNAWGMOHDzcXXoofb8SIERV2DHfq1KmTnn76aYWGhto8lp+fr7S0NJsf5h07dtQ777yjiIgIT4XpV4YOHarZs2erUaNGdh/Py8tTWlqaw0J38VYM7hIdHa133nlHjRs3tliekZHh8MLpJZdcopkzZ1q05ijNZZddpg8//FAtWrSw+3jRe6ykAk9ERITq16/v9DG9rVOnTnrjjTdsxiKUTAW5M2fOWHymDAaDJk+erOuuu65Mx6tRo4beeustiy70ixQUFNh8hgMCAjRlypRydQHco0cPffbZZw5zadFxMzIyHBa6Q0NDFRcXZ/exkgoHRa+h9etYJDo6Wi+88IKGDx9e6vO4//77NXDgwFLXq2gXXHCB3n//fbvP32g0OnxuEREReuyxx3Tbbbd5IErfVqVKFb322mvq16+fxfJXX31V77//vpeiss+TebBBgwaaM2eOLr/8crstxIxGo86ePav09HSHhW6DwVDhBdPiatWqpQ8//NBhy+yMjAy7xZOAgACNHTtWr7zySqUfq37w4MF6/PHHLb5vS8oNVapU0ZNPPum2c8/77rvPZnzhIpmZmTaF7oCAAE2ePLnMuSo0NFRvvvmmGjZsaPNYYWGh3XOosWPH6tFHH3XpOCV91+Tn5ys1NdVhobtZs2b68MMP1axZM5eO6SpPna/5msaNG+v55583t2CvSGPGjLHJj3Xq1PFKbxGBgYF6+umnHfZEk52dbVPobty4sd5++21FR0d7IEL7srKylJqaajdXGwwGXXnllXrllVdK/U3TpUsXPfroo5Ump3sid48aNUqTJ0+2+1h2drbS09Mtzr1r166td955x+E5SGluueUWhz0xuVOTJk300UcfqUOHDnYfP3v2rN1Cd3BwsCZPnqzHH3/cI7+pAQCO0bIbAIAyMBgMCg4OVkhIiKKiolSzZk01aNBATZs2Vfv27dWhQwe7xdyKUKVKFV1wwQUW4/cNGTJEkZGRbjmeOwwePFhNmzbVu+++q19//dVmbPMiDRs21DXXXKPRo0crMDBQiYmJHo7Uf3To0EFz587V4sWL9f3332vXrl0OX1fJ1BqgV69euvzyy9W5c2ePxFi/fn198cUXmjNnjubOnWvuVtlamzZtNGHCBA0YMKBMx2ndurW+/PJLrV69WnPnztWWLVsctgIpUrNmTXXv3l19+vTRgAED/O4iWKdOnTRv3jzNnj1bP/zwg8PxF7t06aIpU6aU+29e9BrPnj1bP/74o8NWDt27d9eUKVMcXjhyRf369fXee+9p06ZN+uqrr/Tnn3+WOuZ1ZGSkunbtqt69e2vw4ME2NwoVeeaZZ7R+/Xr99ttv2rx5sw4fPlxq6/BGjRpp6NCh+s9//mPR/WxJwsLCNHPmTG3btk2//PKLdu3apSNHjujs2bOlvkfLq3nz5vr666+1YMECzZs3T3v27HG4bs2aNTVkyBDdfPPNFmPZnu9CQkL04osv6oknntBPP/1kXj579mxlZmbq7rvv9mJ0ljyZB8PCwvTf//5XN998sz777DOtWbOmxGFdJNNr2aFDB/Xs2VNDhgxRvXr1nH5uZVG1alW9+uqr2rBhg+bMmaPNmzc7HBc2PDxcPXv21MSJE8t8sd4fjRw5Um3bttU777yjtWvX2i2UhIaGasCAAbrzzjtL7MmivIKCgvTss8+qV69e+uijjyxaXBcXEBCgnj17atKkSWrfvn25jlmvXj19+umn+uijj/Ttt9/aFPyKtG3bVrfddpt69+7t8jHmzZuntWvX6vfff1d8fHypY9EaDAZ17NhRI0eO1MiRIyu0u/iSeOp8zdf06dNH33//vX7++Wf98ccf2r9/v06fPl3uXiliY2MVFxdn0bvEFVdc4bG/p7WgoCA9/vjjGjJkiGbNmqUdO3bYXS8qKkpjxozRzTffrLCwMLf+DhswYIA+//xzrV69Wn/++ad27dpV6ndWRESE+vXrp//85z8u9YRz+eWXq3fv3lq6dKk2bdqkAwcOKDU1VdnZ2R7vfaQieCJ3T5w4UR06dNDbb7+tXbt22V0nPDxcl19+uW699Vanz4vtCQgI0IMPPqirrrpKS5cu1Y4dO3To0CGdPXtW2dnZ5eq9qTR16tTRxx9/rGXLlunLL7/Ujh07HP6ejoyMVP/+/TVx4kS/ukkaACozg9Gd3xIAAKDCnTlzRsOGDbO4APDJJ5+oXbt2Xoyq7NLS0rRlyxYlJSXp7NmzCg0NVUxMjFq3bu2wFSZKd+bMGW3fvl0pKSlKTU1VYWGhwsPDVadOHTVp0kSNGjVyazeYI0eO1LFjx8zzCxcutChm5Ofna+fOndq3b5/S0tIUEhKimJgYtWvXrsLHL8zLy9POnTuVlJSk1NRUnT17VmFhYYqIiFDdunUVFxfn1ov2npafn68tW7bo6NGjOnXqlEJCQhQbG6uOHTvajLk8Y8YMLV682Dz/xBNPaOTIkS4dLzs7W5s3b1ZiYqLS0tIUHBysunXrqnPnzuaxVd2hoKBACQkJ+ueff5SWlqb09HSFhISY3+dxcXGqV69emVpZnDlzRn///bcSExN1+vRpZWVlKTAwUBEREYqNjVWLFi38/j2TkpKiHTt26OTJk0pLS1N4eLiio6PVpEkTtWzZ0q35AZ7n6Tx4+PBh7d27V2lpaUpLSzN3Z169enXFxcWpUaNGCgkJqbDjuSozM1Px8fE6fvy4Tp8+rcDAQFWvXl1169ZVx44d/bqFamk2btxo0UqvS5cueu+99yzWSU1NVXx8vI4cOaLs7GxFRUUpNjZWXbp0sRkz1RP+/vtv7dy5U6dOnVJeXp4iIiLUsGFDdejQwS03e+bl5Sk+Pl6HDx82v39jY2PVvn37Cj1HSU5O1uHDh3X06FFzISc0NFRVq1ZVw4YN1aJFC7e0NHaFJ8/XKquDBw9adHseGBioxYsXu/UcyRWJiYnasWOHTpw4oZycHEVFRalZs2Zq3769goK800YqPz9fBw8e1JEjR3T8+HHzDQdF5ypNmzZV06ZNK3WuLgtP5O6kpCRt3bpVp06dUmZmpqpVq6amTZuqY8eObrvZ31vS0tK0bds2nTx5UqmpqQoODlb16tXVsGFDtW3b1ms3rAAA7KPYDQCAn/nyyy/1yiuvmOdbt26tzz//3IsRAbZKK3bDN1REsRsA4D+cKXYDqDgvv/yyvvrqK/P8wIEDNXPmTC9GBAAAUPkwmAQAAH6ksLBQ8+bNs1jmjTGtAAAAAACOZWRkaNGiRRbLxo0b56VoAAAAKi+K3QAA+JEff/xRhw8fNs9HR0dr6NChXowIAAAAAGDtyy+/1NmzZ83zzZo1U/fu3b0YEQAAQOVEsRsAAD9x6NAhvfbaaxbL/vOf/1S6sbEAAAAAwJ/Fx8drzpw5Fstuuukmr8QCAABQ2QV5OwAAAGDrxIkT+vXXXyVJmZmZOnDggH7++Wfl5uaa16lZs6auueYab4UIAAAAAOe9gwcPauPGjZKk9PR0JSQkaMWKFSosLDSv07JlS1166aXeChEAAKBSo9gNAIAPOnTokJ5//vkS13n00UdVpUoVD0UEAAAAALC2ffv2En+7BQUF6fHHH1dAAB1sAgAAuANnWQAA+JnAwEDdd9996tevn7dDAQAAAAA4EBoaqmeeeUatW7f2digAAACVFi27AQDwAyEhIapdu7a6du2qcePGqVWrVt4OCQAAAABgJTQ0VPXq1dNFF12k8ePHq0GDBt4OCQAAoFIzGI1Go7eDAAAAAAAAAAAAAADAFXRjDgAAAAAAAAAAAADwOxS7AQAAAAAAAAAAAAB+h2I3AAAAAAAAAAAAAMDvUOwGAAAAAAAAAAAAAPgdit0AAAAAAAAAAAAAAL9DsRsAAAAAAAAAAAAA4HeCvB0AKpdhw4bp+PHjql27tpYsWeLtcAAAAAAAAAAAAABUUhS7UaGOHz+upKQkb4cBwIfFx8dLkjp16uTlSAAADuWckJbUtlw27LgUGuOdeAAATuFcGwD8C3kbAPwLeds30Y05AAAAAAAAAAAAAMDvUOwGAAAAAAAAAAAAAPgdujEHAHhUWFiYt0MAAAAAKiXOtQHAv5C3AcC/kLd9E8VuAIBHtWrVytshAAAAAJUS59oA4F/I2wDgX8jbvoluzAEAAAAAAAAAAAAAfodiNwDAo5KSkpSUlOTtMAAAAIBKh3NtAPAv5G0A8C/kbd9EsRsA4FHJyclKTk72dhgAAABApcO5NgD4F/I2APgX8rZvYsxuAAAAAJaCo6TeK7Vv/z5JUvNmzU3LAAAAAAAAAB9CsRsAAACApYAQKWaAMhKrm+ZjOnk3HgAAAAAAAMAOujEHAAAAAAAAAAAAAPgdit0AAAAAAAAAAAAAAL9DN+YAAI+Kjo72dggAACeRswHAv5C3AcC/kLcBwL+Qt32TwWg0Gr0dBCqPrl27KikpSbGxsdq0aZO3wwEAAAAAAAAAAABQSdGyGwAAAIAlY6GUe9JyWUhNycAoSAAAAAAAAPAdFLsBAB516NAhSVLjxo29HAkAwKHck9KS2pbLhh2XQmO8Ew8AwCmcawOAfyFvA4B/IW/7JppmAAA8KjU1Vampqd4OAwAAAKh0ONcGAP9C3gYA/0Le9k0UuwEAAAAAAAAAAAAAfodiNwAAAAAAAAAAAADA71DsBgAAAAAAAAAAAAD4HYrdAAAAAAAAAAAAAAC/E+TtAAAA55c6dep4OwQAAACgUuJcGwD8C3kbAPwLeds3UewGAHhUbGyst0MAAAAAKiXOtQHAv5C3AcC/kLd9E92YAwAAAAAAAAAAAAD8DsVuAIBHJSQkKCEhwdthAAAAAJUO59oA4F/I2wDgX8jbvoluzAEAHpWdne3tEAAAAIBKiXNtAPAv5G0A8C/kbd9Ey24AAAAAAAAAAAAAgN+h2A0AAAAAAAAAAAAA8DsUuwEAAAAAAAAAAAAAfodiNwAAAAAAAAAAAADA7wR5OwAAwPmlcePG3g4BAFCaoEip+zfKyMiQJEVERJiWAQB8GufaAOBfyNsA4F/I276JYjcAwKOio6O9HQIAoDSBoVL9sYrwdhwAAJdwrg0A/oW8DQD+hbztm+jGHAAAAAAAAAAAAADgdyh2AwA8Kj4+XvHx8d4OAwDgBHI2APgX8jYA+BfyNgD4F/K2b6LYDQAAAAAAAAAAAADwOxS7AQAAAAAAAAAAAAB+h2I3AAAAAAAAAAAAAMDvBHk7AABWzuySDs6SUjdL+elSUDUpuosUN1mKbOvt6AAAwPkg54S0pLY6Fc3/LWnYcSk0xotBAQAAAAAAAJYodgO+4vSf0o77pZO/2j526jfpwJtSzf5S+5lS9e6ejw8AAAAAAAAAAADwIRS7AV+QvETaMEYqyCx5vZO/SmsHSBfOk+oM80hoQEVr1aqVt0MAAAAAKiXOtQHAv5C3AcC/kLd9E2N2A952+k9pw1WlF7qLFGSaCuOn/3RvXICbhIWFKSwszNthAAAAAJUO59oA4F/I2wDgX8jbvoliN+BtO+6XCrJc26YgU9r5gHviAdwsOztb2dnZ3g4DAAAAqHQ41wYA/0LeBgD/Qt72TRS7AW86s8v+GN3OSFklpe+u0HAAT0hISFBCQoK3wwAAAAAqHc61AcC/kLcBwL+Qt30TxW7Amw7OKt/2f79bMXEAAAAAAAAAAAAAfoZiN+BNqZvLt33aloqJAwAAAAAAAAAAAPAzFLsBb8pPL9/2uakVEgYAAAAAAAAAAADgbyh2A94UVK1826fvkH4bIh18X8pJqZiYAAAAAAAAAAAAAD9AsRvwpugu5d/HiV+krbdKS2MpfAMAAAAAAAAAAOC8YTAajUZvB4HKo2vXrkpKSlJsbKw2bdrk7XB835ld0op2Fb9fQ6BUa6BUf6xU90opNKbijwEAACqvnBPSktqWy4Yd55wCAAAAAAAAPoWW3YA3RbaVavYv48YlfHyNBdKJZdLW26SldaXfBkt/z5ZyjpfxWAAAAAAAAAAAAIBvodgNeFv7mVJguGvbBIZLfVZI3b+W6o2RAqs4XtdYIJ1YLsVPlpbUldYOkv6eReEbXpOamqrU1FRvhwEAAABUOpxrA4B/IW8DgH8hb/umIG8HAJz3qneXLpwnbRgjFWSWvn5guGn9WudahNcfJ+VnSMk/SkfnSsk/lLCfQillhWmKv8O0j/pjpbqjpbA6FfaUgJIcOnRIkhQdHe3dQAAAAIBKhnNtAPAv5G0A8C/kbd9EsRvwBXWGSX1WSTsfkFJWOV6v1gCp3YumAnlxQRGmonX9secK30ukxLlS0uJSCt8rTVP8VKlWP6neWKneaCkstmKeFwAA8E9BVaWOb+nI0SOSpAb1G5iWAQAAAAAAAD6EYjfgK6p3l/qslM7skg7OktK2SHnpUnA1KeoCqcntUrU2pe8nKEKqP8Y05WdaFb4zHGxUaCqyp6yStk2VavYzFc7rXUXhGwCA81FgFanpHTqZHi9JatC0k5cDAgAAAAAAAGxR7AZ8TWRbqeMbFbOvoHCp/lWmKT9TOr5UOvpNKYVvo3TyV9O07U6pZt9ihe+6FRMXAAAAAAAAAAAAUE4Uu4HzRVC4qYvyeqOlgixTi++jc6WkRaUUvlebpm13UfgGAAAAAAAAAACAz6DYDZyPAqtYFb6XnuvqfJGUf9bBRtaF7z7nxvi+SqpSz6Phw7+FhYV5OwQAgJPI2QDgX8jbAOBfyNsA4F/I277JYDQajd4OApVH165dlZSUpNjYWG3atMnb4cBVBVlS8k/nCt8LSyh8F2eQavYuVviu7/YwAQAAAAAAAAAAAIrdqFAUuyuRgmzp+E/nujpfKOWnO7ddjd7nujofQ+EbAAAAAAAAAAAAbkOxGxWKYnclVZAtHf+5WOH7jHPb1ehlavFdf4xUpYF7Y4TfSEpKkiTFxsZ6ORIAgEM5KdLyNiosLJQkBQQESIN2S6G1vBwYAKAknGsDgH8hbwOAfyFv+ybG7AZQusAwqe4o01SQYyp8J86Vji0oufB9ap1p2jFNqtHzXFfnY6Twhp6LHT4nOTlZEicEAODbjFJuigKslwEAfBrn2gDgX8jbAOBfyNu+iWJ3CXJzc7Vw4UItWLBACQkJSklJUVRUlBo2bKjhw4dr3LhxqlGjRoUes6CgQAkJCYqPjzdPu3fvVl5eniSpZ8+emjdvXrmOcfToUS1atEjLli3T4cOHlZKSovDwcNWuXVtNmzZVz5491a9fP7Vo0aIinhIqm8BQqe5I01SQI534RTr6jROF799N0457peo9/u3qPLyR52IHAAAAAAAAAABApUGx24F9+/ZpypQp2rlzp8Xy48eP6/jx49q0aZPeffddvfLKKxo0aFCFHHPp0qWaOnWqsrKyKmR/1nJzc/X222/rrbfeUnZ2tsVjOTk5On36tBISErRkyRK1atVKK1ascEscqEQCQ6XYEabJXPguavGd5ni70+tN0477KHwDAAAAAAAAAACgTCh225GYmKirr77a3Pe+wWBQjx491LhxY508eVJr1qxRdna2UlJSNGHCBH3++efq06dPuY+blpbmtkJ3Tk6OJk6caFHAjomJ0QUXXKCYmBjl5eUpKSlJO3fu1MmTJ90SAyo5m8L3snOF7/kuFL4v+neM7/DGHgsdAAAAAAAAAAAA/oditx1Tp041F7obNGigjz76SO3atTM/furUKd1+++1au3at8vLydNttt2ndunWKioqqkOPHxMSoU6dO6ty5szp16qRVq1bpww8/LNc+p06dai50N27cWDNmzNAll1wig8FgsZ7RaNT27dv1xx9/lOt4OM8Fhkqxl5mmwlzp+LJzY3zPl/JSHW93+g/TtHO6VP3Cf8f4jojzUOAAAAAAAAAAAADwFxS7rSxfvtxc6A0JCdGcOXPUpk0bi3Vq1Kihjz/+WIMHD9ahQ4eUmpqqd955Rw8//HC5jj1w4EBt2LBB9evXt1i+ZcuWcu33u+++048//ihJatGihebNm6datWrZXddgMKhjx47q2LFjuY4JmAWESLHDTVPhbOnE8n9bfOeddrzd6Q2maef9UnT3c12dj6XwXQlER0d7OwQAAACgUuJcGwD8C3kbAPwLeds3BXg7AF8zZ84c8//Hjh1rU+guEh4erunTp5vnP//8c+Xn55fr2LVr17YpdJdXbm6unnrqKUlSQECA3njjDYeFbsDtAkKkOsOkLh9Jw5KknkukRrdIwdVL3i71T2nnA9IvTaRV3aW9L0oZf3smZlS4xo0bq3FjuqkHAAAAKhrn2gDgX8jbAOBfyNu+iWJ3MRkZGfrtt9/M8+PGjStx/eHDhysiIkKSlJqaqvXr17s1vrJYsmSJTpw4IUnq378/LbbhOwJCpDpDpS4fSsOSpZ5LpcYTpOAaJW+XulHa+aD0S1NpVTdpzwtSxgHPxAwAAAAAAAAAAACfQbG7mI0bNyonJ0eSqeV2586dS1w/LCxMXbt2Nc8XL5T7im+//db8/+HDh3sxEqAEAcFSnUulCz4wtfju9ZOThe9N0q6HpF+aSSu7SnuelzL2eyZmlNmhQ4d06NAhb4cBAAAAVDqcawOAfyFvA4B/IW/7Jordxezdu9f8/9atWysoqPQhzTt06GD+/759+9wSV3ls2rTJ/P+iVt2rV6/W5MmTdeGFF6pJkybq0KGDRowYoZdfftncChzwmoBgqfYQq8L3RCmkZsnbpW2Wdj0s/dKcwrePS01NVWpqqrfDAAAAACodzrUBwL+QtwHAv5C3fVPp1dzzyP79/xbGGjRo4NQ29erVM//f14rdf//9t8WHLiYmRvfcc4/mzp1rsd6pU6d06tQpbdmyRbNmzdLTTz+t8ePHezhawI6iwnftIVKnd6SUVdLRudKx76Tck463S9v8b/E76gKp/lip3lipanOPhQ4AAAAAAAAAAAD3othdzOnTp83/j4mJcWqb2rVrm//va3dzJCYmWszPmDFDCxculCTVqlVLPXr0UGRkpA4dOqQNGzYoLy9PmZmZuu+++5STk6Mbb7yxzMcuLCy0Ob614jcKAKUKCJZqX2KaigrfiXOlxO+k3BTH26VtMU27HpGiOpuK3vXHSlVbeCpyAAAAAAAAAAAAuAHF7mIyMjLM/w8LC3Nqm+LrFd/eF5w5c8ZivqjQfdddd2natGkKCQkxP3bo0CHdfvvtio+PlyQ9+eST6tWrl1q0KFtB8Pjx4+revXuJ6/z44482yzp16iTJdOOAvXEPwsLC1KpVK0lSUlKSkpOTbdaJjo5W48aNJZmel72bEOrUqaPY2FhJUkJCgrKzs23Wady4saKjoyXJ/LpYa9WqlcLCwpSdna2EhAS76/Cc3PWcYiTDFDXu8ayiC+Klo3OVd/gbBReettmPWdpW07T7UWWFtFRqxCVKjRii3ODGPvKcTCrX38n2OZ08edLuc/Pn51QZ/048J54Tz+n8fk55GYlqb7VOWlqaomrH+O1zqox/J54Tz4nnxHOyfk5FKtNzqox/J54Tz4nnxHMqek7W10gqw3OyxnPiOfGceE6V6Tmlp6erWrVqleo5eevv5Gwd1hmM2V1MTk6O+f/BwcFObVO8YGzvj+tNmZmZNssmTJigBx980CJuyfQm/PLLL81v1pycHL311lseiRMol4AgKWaQ1HmWdjX6Rftj31NKtbHKC6hR4mZVcveo7um31ebI5Wp5dJyU8IyUbv8LAwAAAAAAAAAAAL7HYDQajd4Owldcf/31WrFihSTpjjvu0COPPFLqNitWrND1118vSYqIiNCePXsqPK6XX35Zr7zyiiSpZ8+emjdvnlPbLV68WLfddpt5PiwsTJs3b1ZUVJTDbebMmaNHH31UkhQeHq7du3crKMj5DgC6du2qpKQk1a5dWz/88EOJ69KNOdzKWCClrD7X1fm3Us5x57aL7PBvV+fVWrs3xvNUUlKSJJlvrgEA+KD8DGnvTJ09e1aSVLVqVanF/VJQhJcDAwCUhHNtAPAv5G0A8C/kbd9EN+bFRET8e/HO2Vbaxdcrvr0vsI6nV69eJRa6JWno0KHmYndmZqZ2796tDh06uHzsgIAAitnwLkOgFDPQNHV8U0pZIyV+YxrjO8e2qw6zM9tN01+PS5HtixW+23gu9kqOEwEA8ANBEVKbGarq7TgAAC7hXBsA/At5GwD8C3nbN9GNeTHVq1c3///EiRNObXP8+L+tRYv6ovcVxZ+PJLVs2bLUbWJjY83jDUjSsWPHKjwuwOMMgVLMAKnTO9LQo1LvlVKTKVJonZK3O7ND+usJaXlbaXl76a8npTO7PBIyAAAAAAAAAAAASkaxu5hmzZqZ/3/kyBGntklMTDT/v3nz5hUeU3lYx+Nsy/Pi62VkZFRoTIDXmQvfb5sK331WSU3ukEJLuSMrfaf01wxpRTsK3+WUkJCghATGRwcAf0DOBgD/Qt4GAP9C3gYA/0Le9k10Y15MixYtzP//66+/lJ+fX+p41du3bzf/39eK3VWrVlX9+vV19OhRSc4XrouvV7yVN1DpGAKlWv1NU8fXpZO/SUfnSse+lbJL6NUgfaf017nid7W2/3Z1HtnOY6H7M2eHiQAAeB85GwD8C3kbAPwLeRsA/At52zfRsruYbt26KTQ0VJJpvOr4+PgS18/JydHmzZvN871793ZrfGXRp08f8//37NlT6vpJSUlKT083zzPuNs4bhkCpVj+p05vSpUekPqulpndKYXVL3i59l5TwpLSivam7891PmLo/Nxo9EzcAAAAAAAAAAMB5imJ3MRERERYF62+++abE9ZcsWaKzZ89KMo3X3aNHD7fGVxbDhg0z///333/XmTNnSlx/6dKl5v9HR0erdevWbosN8FmGAKlWX6njG6bCd981UtO7pLBSbv5I3y0lPCWt6HCu8P24lLadwjcAAAAAAAAAAIAbUOy2cuONN5r/P3fuXId972dlZWnmzJnm+euuu67ULs+9YeDAgWratKkkU8yvvPKKw3XPnDmjt956yzw/ZswYBQTwFsF5zhAg1exj6ub80n+kvmulpndLYfVL3u7sX1LC09LKjtLyNtKu/0pp2yh8AwD8Q+4paXk7tToyWq2OjJaWtzMtAwAAAAAAAHwIlUwrgwcP1kUXXSTJ1E35jTfeqF27dlmsc+rUKd1yyy06ePCgJFML6ClTptjd3z///KP69eubp6+//tqt8VsLCgrSo48+ap5///339dJLLykvL88mzmuuuUbHjpnGKY6Ojtbtt9/u0VgBn2cIkGr2ljq+Jl16WOr7m5OF7wRpzzPSyk7S8tbSrscofAMAfJuxQErfpbC8AwrLO2AatsNY4O2oAAAAAAAAAAsGo5Fqi7XExESNGDFCycnJkiSDwaAePXooLi5OJ0+e1Jo1a5SVlSXJVEz+/PPP1bdvX7v7+ueffyy6N3/llVd09dVXOzz29ddfr6SkJItlJ06c0IkTJyRJ4eHhiouLs9nus88+U2xsrMP9PvPMM3r33XfN8zExMerZs6eqVaumw4cP648//lBubq4kKTg4WB999JEuvvhih/tzpGvXrkpKSlJsbKw2bdrk8vaAXzIWSqfWS4lzpcR5UtYR57ar2lKqN1aqP1aK7CgZDO6N00ekpqZKMt1UAwDwUTknpCW1LZcNOy6FxngnHgCAUzjXBgD/Qt4GAP9C3vZNFLsd2Ldvn6ZMmaKdO3c6XKdmzZp65ZVXNHjwYIfruFrsvuiii3TkiJOFsmLWr1+vhg0bOnzcaDTqzTff1KuvvmouatsTGxurN954w2LscldQ7MZ5z1gonf5DOlpU+P7Hue0iWpiK3vXGSlGdzpvCNwDAR1HsBgAAAAAAgB/wvUGmfUTz5s21ePFiLViwQAsWLFBCQoJSUlIUGRmpRo0aafjw4br66qtVo0YNb4fqFIPBoLvuuksjRozQ119/rZUrVyoxMVEZGRmqXr262rRpo0suuURXX321qlSp4u1wAf9lCJBq9DRN7V+STm8oVvg+7Hi7jL3Snv+ZpojmxQrfnSl8AwAAAAAAAAAA2EHLblQoWnYDDhiNpsJ34lxT8bukwndxEc3+7eo86oJKUfiOj4+XJHXq1MnLkQAAHKJlNwD4Jc61AcC/kLcBwL+Qt31TgLcDAIDzgsEg1bjI1Np7yEGp/x9S8+lSlcYlb5exX9r7vLSqq7SshbTzISl1k6l4DgAAAAAAAAAAcB6j2A0AnmYwSNUvlNrPlIb8LfXfIDW/XwqPK3m7jP3S3hekVd2kX5pLOx+UTm+k8A0AAAAAAAAAAM5LFLsBwJsMBql6d6n9i9IlB6T+fzpX+M48IO19Ufq1u/RLM2nHAxS+AQAAAAAAAADAeYViNwD4CoNBqt7NsvDd4gEpvEnJ22X+Le2bea7w3fRc4ftPCt8AAAAAAAAAAKBSo9gNAL6oqPDd7gXpkv3SgI1Siwel8KYlb5d58Fzh+8Jzhe/7pdMbKHwDAAAAAAAAAIBKx2A0UgFBxenatauSkpIUGxurTZs2eTscoPIxGqW0LdLRuVLiXNM43s6o0liqP0aqN9Y0XrjB4N44S5CdnS1JCgsL81oMAIBS5JyQltS2XDbsuBQa4514AABO4VwbAPwLeRsA/At52zdR7EaFotgNeJDRKKVtNRW9j86VMvY5t12VRlK9MVL9sVL1i7xa+AYA+CiK3QAAAAAAAPADQd4OAABQRgaDFH2BaWrzrJQWX6zwvdfxdlmHpf2vmKYqDa0K3+4f3YK73wAAAAD34FwbAPwLeRsA/At52zcxZjcAVAYGgxTdWWr7rDQ4QRq4VWr5qFS1ZcnbZf0j7X9VWt1L+rmxtH2adHKdZCx0W6gJCQlKSEhw2/4BAACA8xXn2gDgX8jbAOBfyNu+iZbdAFDZGAxSVCfT1OZp6cx26eg3plbfZ/c43i7riLT/NdNUpYFU9yqp/jipRg+PtPgGAPiQgDCpyRSlpKRIkmrVqmVaBgAAAAAAAPgQit0AUJkZDFJUR9NkLnzPPVf4LuEOtKwj0oHXTVNY/X+7Oq/Rk8I3AJwPgqtJnd7W0fh4SVKtTp28HBAAAAAAAABgi2I3AJwvLArfT0lndvw7xvfZvxxvl33UqvB91bnCdy/XCt9ndkkHZ6l54hoFGDOltBgpuosUN1mKbFv+5wcAAAAAAAAAAM4rFLsB4HxkMEhRHUxT6yel9J3/tvhO3+14u+yj0oE3TFNYPVPhu95YqWZvx4Xv039KO+6XTv4qSYooWn5qj3TqN+nAm1LN/lL7mVL17hX6NAEAAAAAAAAAQOVFX7QAcL4zGKTI9lKbJ6VBu6SLd0itnpCqldLaOjvRVKhe20/6qYEUf6eUsloyFvy7TvISae0Ac6HboZO/mtZLXlLeZwMAAAAAAAAAAM4TBqPRaPR2EKg8unbtqqSkJMXGxmrTpk3eDgdAeZ3Z9W9X5+k7ndsmNNbU4juyg7RjmlSQ5fzxAsOlPqto4Q0AAAAAAAAAAEpFsRsVimI3UImVpfBdFrUGSH1Wum//AAAAAAAAAACgUmDMbgCAcyLbSpFPSK2fMI3rXTTG95kdFXuclFWm/VdrU7H7BQA4LzdV+uMK5efnS5KCgoKki+ZLIdHejAoAUIrU1FRJUnR0tFfjAAA4h7wNAP6FvO2bKHYDAFxXrY3U+nHTlP5XscL39orZ/9/vSh3fqJh9AQBcZ8yTTv5q+WPBmOetaAAATjp06JAkLr4BgL8gbwOAfyFv+6YAbwcAAPBz1VpLrf8rXbxNGvSX1OZp09jb5ZG2pWJiAwAAAAAAAAAAlRbFbgBAxanWSmr1mBTRvHz7yT4mFeZXTEwAAAAAAAAAAKBSotgNAKh4QdXKt33GfmlpPWnrbdLxZRS+AQAAAAAAAACADYrdAICKF92l/PvIPSEdfE9ad4m0tK605Vbp+C8UvgEAAAAAAAAAgCSK3QAAd4ibXLH7y02RDr0vrRsiLY2VtkySjv8sFeZV7HEAAAAAPxYWFqawsDBvhwEAcBJ5GwD8C3nbNwV5OwAAQCUU2Vaq2V86+avr2wZWlQrOOn4896R06APTFFJTqnuFVH+cVGugFBBc5pABAAAAf9eqVStvhwAAcAF5GwD8C3nbN9GyGwDgHu1nSoHhrm0TGC71WSFdsk9q+7wU3bXk9XNPSoc+lNZdKi2JlbZMlJJ/osU3AAAAAAAAAADnAYrdAAD3qN5dunCe8wXvwHDT+tW7SxHNpJYPSgM2Spfsl9q9IEV3K3n7vFOmwvfvQ02F780TpOSlFL4BAABw3khKSlJSUpK3wwAAOIm8DQD+hbztmyh2AwDcp84wqc8qqdaAkterNcC0Xp1hto9FNJVaPCAN+FO65IDU7kUpunvJ+8s7JR3+SPp9mLSkjrT5Fil5iVSYW7bnAQAAAPiB5ORkJScnezsMAICTyNsA4F/I276JMbsBAO5VvbvUZ6V0Zpd0cJbOHl2rQGOGqlSrLUVdIDW5XarWxrl9RTSRWtxvmjIOSonzpMS50ukNjrfJOy0d/tg0BUebxviuN1aqPVgKCKmAJwgAAAAAAAAAALyBYjcAwDMi20od39B+Y7wkqVOnTuXbX0Sc1GK6aco8JB0tKnz/4XibvFTp8BzTFBwtxV4u1R8r1b6EwjcAAAAAAAAAAH6GbswBAP4vvLHU4j6p/3ppyEGp3UtS9YtK3iYvVfrnE2n9COnH2tKmG6WkxVJBjiciBgAAAAAAAAAA5USxGwBQuVgUvg9J7V+WqvcoeZv8NOmfT6X1I01jfG+6gcI3AAAAAAAAAAA+jm7MAQAeFR0d7bmDhTeSmt9rmjL/+XeM71O/O94mP0365zPTFBQp1b383BjfQ6TAUM/FDgDeFBAi1RujjMxMSVJEeDjDPQCAH/DouTYAoNzI2wDgX8jbvslgNBqN3g4ClUfXrl2VlJSk2NhYbdq0ydvhAIB9mf9Iid+eK3yvc26boEgpdtS5Mb6HSIFh7o0RAAAAAAAAAACUiGI3KhTFbgB+J+uIqfB9dK506jfntgmqVqzwfSmFbwAAAAAAAAAAvIBiNyoUxW4ApTl06JAkqXHjxl6OxI6so/+2+D75myQnviKDqkmxI01dndcZSuEbQKXi0zkbAGCDvA0A/oW8DQD+hbztmwK8HQAA4PySmpqq1NRUb4dhX5X6UrO7pL5rpEuPSB3ekGr2lWRwvE1+unTkS2nDldKSGGnjNVLi91JBlsfCBgB38emcDQCwQd4GAP9C3gYA/0Le9k1B3g4AAACfVKWe1OxO05SVWKzF91o5bPGdf1Y68pVpCqoq1Rlh6uq8zjApsIpHwwcAAAAAAAAAoLKj2A0AQGmKF76zj/07xvfJNSqx8H30/0xTYIQUO0KqP47CNwAAAAAAAAAAFYRiNwAArgirKzWdapqyj0mJ350rfK+Ww8J3QYZ09GvTVFT4rneuxXdQuEfDBwCn5KVJWyaqcVHXXBuipQs+kIKjvBkVAAAAAAAAYIFiNwAAZRVWV2p6h2nKTjIVvhPnSimrJRXa38ai8B1erPA9nMI3AN9RmCslzlN00XympE7veC8eAAAAAAAAwA6K3QAAj6pTp463Q3CPsFip6RTTlJ0sHTvX4jvlVzkufGdKR78xTYHhUp3Lzo3xPVwKivBo+AAAAPB/lfZcGwAqKfI2APgX8rZvMhiNRgd9rgKu69q1q5KSkhQbG6tNmzZ5OxwA8L7sZOnY9+cK36vksPBdXGC4qeBdf6ypAE7hG4Cn5ZyQltS2XDbsuBQa4514AAAAAAAAADto2Q0AgDuF1ZGaTDZNOcf/HeO7pMJ3QaaUOM80BVYxFb7rjZViL5OCqnoyegAAAAAAAAAAfBbFbgCARyUkJEiSWrVq5eVIvCC0tlXh+3vTGN8nVspx4TtLSvzWNAVWkWoPM7X4jh1B4RsAAAAWzutzbQDwQ+RtAPAv5G3fRLEbAOBR2dnZ3g7BN4TWlprcZppyThTr6nylZCywv01Blmks8GPfSQFh/3Z1TuEbAAAA4lwbAPwNeRsA/At52zdR7AYAwNtCY6S4W01TTkqxwvcKx4Xvwmyrwve5Ft91RkjB1TwbPwAAAAAAAAAAXkCxGwAAXxJaS4qbZJpyUqRj8891db68lML396YpINRU+K43VoodSeEbAAAAAAAAAFBpUewGAMBXhdaS4iaaptyTUuL8YoXvfPvbFOaYCuTH5psK37WHnuvqfKQUHOnB4AEAAAAAAAAAcC+K3QAA+IOQmlLcBNOUe1I6tsDU1fmJZSUXvpMWmKaAUKn2pecK36MofAMAAAAAAAAA/B7FbgCARzVu3NjbIfi/kJpS41tMU+4pUytupwrfC01TQIip8F1vrFR3lBQc5dHwAQAA4B6cawOAfyFvA4B/IW/7JordAACPio6O9nYIlUtIDavC9wJTV+fHl0nGPPvbFOZKSYtMU0CIFDPk3xbfIdEeDR8AAAAVh3NtAPAv5G0A8C/kbd9EsRsAgMoipIbU+GbTlHu6WOH7l5IL38mLTZMh2LKrcwrfAAAAAAAAAAAfRrEbAOBR8fHxkqROnTp5OZJKLqS61Pgm05R72tR9+dG50vGfHRe+jXlWhe+iFt+XU/gGAADwA5xrA4B/IW8DgH8hb/smit0AAFR2IdWlRjeaptzUfwvfJ342tey2x5gnJf9gmgzBUu1Lzo3xfblpfwAqN0OwVLO/zmaclSRVjahqWgYAAAAAAAD4EIrdAACcT0KipUY3mKa8NOnYwnNdnf9USuH7R9O0NViqPfhc4fsKCt9AZRUSLfVdpf3csQwAAAAAAAAfFuDtAAAAgJcER0mNrpd6LJSGHZe6fmYaqzsgxPE2xjwpeYm05RZpSW1p3TDp0EdS7inPxQ0AAAAAAAAAgCh2AwAAyVT4bnid1GOBVeE71PE2xnzp+FJpywRpSR1p3VDp4IdS7knPxQ0AAAAAAAAAOG9R7AYAAJZsCt+fS7GXO1H4/knaOlFaEiutu1Q6+AGFbwAAAAAAAACA2xiMRqPR20Gg8ujatauSkpIUGxurTZs2eTscAD4oOztbkhQWFublSOCyvDNS0mLTGN/JS6TCnNK3MQRKMYP+HeM7tJbbwwRQccjZAOBfyNsA4F/I2wDgX8jbvoliNyoUxW4AOE/kpUvJi6WjRYXv7NK3MQRKtS6W6o+V6l5J4RsAAAAAAAAAUC4Uu1GhKHYDKA13v1VCeelS8g/nCt8/ulD4Hlis8B3j/jgBOC8vXdr1kPILCiRJQYGBUtvnpeBqXg4MAFASzrUBwL+QtwHAv5C3fRPFblQoit0AShMfHy9J6tSpk5cjgVvkn5WSfjjX1fmPUkFW6dsYAqVaA0xdndcbTeEb8AU5J6QltS2XDTvO5xMAfBzn2gDgX8jbAOBfyNu+KcjbAQAAgEokqKrU4GrTlH/WVPA+OtfU8ttR4dtYIJ1Ybprip5gK3/WLCt+17W8DAAAAAAAAADjvUewGAADuEVRVqj/ONOVnFOvqvITCtwqllBWmKf4OqVb/c12dj5bC6ng0fAAAAAAAAACAb6PYDQAA3C8owqrwXbzFd6aDjQqllJWmKX6qVKvfv12dh8V6NHwAAAAAAAAAgO+h2A0AADwrKMLUWrv+WCk/01T4TpwrJS0upfC9yjRtm2pq8U3hGwAAAAAAAADOaxS7AQCA9wSFS/XHmKb8TCl5SbHCd4aDjYyWhe+a/c6N8X0VhW8AAAAAAAAAOI8YjEaj0dtBoPLo2rWrkpKSFBsbq02bNnk7HACAv8rPlI4vNXV1nrSohMJ3cQapZt9ihe+6bg8TqLRyTkhLalsuG3ZcCo3xTjwAAAAAAACAHbTsBgAAvico3NRFeb3RUkGWlLz0XIvvRVL+WQcbGaWTq03Ttrukmn3OdXV+lVSlnkfDBwAAAAAAAAC4H8VuAIBHpaamSpKio6O9Ggf8SGAVqd6VpqkgS0r+SUr8xonC9xrTtP1uqWbvYoXv+h4NHwAAwFM41wYA/0LeBgD/Qt72TRS7AQAedejQIUmcEKCMAqtI9a4wTebCd1GL73QHGxmlk2tN0/a7pRq9z3V1PobCNwAAqFQ41wYA/0LeBgD/Qt72TRS7AQCAf7IofGdLx386N8b3whIK35JO/Waatt8j1ehlavFdf4xUpYGHAgcAAAAAAAAAVASK3QAAwP8Fhkl1LzdNBdnS8Z+LFb7PON7u1DrTtGNa2QvfZ3ZJB2dJqZtNRfagalJ0FylushTZtvzPDQAAAAAAAABgF8VuAABQuQSGSXVHmaaCHFPhO3GudGyBC4XvnufG+B4jhTe0v/7pP6Ud90snf7Wzr9+kA29KNftL7WdK1btXzHMDAAAAAAAAAJgFeDsAAAAAtwkMleqOlLp+Kg07LvVYJDW8QQqKKnm7U79LO+6Vfm4k/dpT2veKlHn438eTl0hrB9gvdBd38lfTeslLyvtMAAAAAAAAAABWaNkNAPCosLAwb4eA81VgqBQ7wjQV5Egnlpm6Oj82X8pPc7zd6fWmacd9UvWLTNPB96TCbOeOW5ApbRgj9VlFC2/4D0OgVK2tcnJyJUmhoSGmZQAAn8a5NgD4F/I2APgX8rZvMhiNRqO3g0Dl0bVrVyUlJSk2NlabNm3ydjgAAJSuMFc6vkw6+o2UtEDKS3XPcWoNkPqsdM++AQAAAAAAAOA8RMtuAABwfgsIkWKHm6aiwnfiuRbfFVn4Tlklpe+WqrWpuH0CAAAAAAAAwHmMMbsBAB6VlJSkpKQkb4cB2FdU+O7ysTQsWer5o9ToZim4esXsP+FZqSCrYvYFeAA5GwD8C3kbAPwLeRsA/At52zfRshsA4FHJycmSpNjYWC9HApQiIESqM8w0Fc6STqyQNt8o5Rwv+z6PfGGawupJEU2l8KaW/0Y0lUJjJYOh4p4HUA7kbADwL+RtAPAv5G0A8C/kbd9EsRsAAKA0ASFSnaGmQnR5it1FshNN08m1to8FVpHCm1gWwM1F8SZSUHj5jw8AAAAAAAAAlQDFbgAAAGcFVXP/MQqypPRdpsme0Fjb1uBF/w+rKxkYpQYAAAAAAADA+YFiNwAAgLOiu0infvNuDDlJpunUOtvHAkJNrb8jmtkpiDeRgiI8Hy/8U36GtHem6pw+Nw7V7lipxf28hwAAAAAAAOBTKHYDAAA4K26ydODNsm/f/09TQTrzgJRxbso8IGXslzL/lgpzyxdfYY509i/TZE9oHcdjhYfVo1U4/lWQKSU8KfMIVKmSmt5BsRsAAAAAAAA+hWI3AMCjoqOjvR0CUHaRbaWa/aWTv7q+ba0BUvVupv9HdbB93FhoGsfboghe7N+c5HKFLsm0j5xk6dTvto8FhJxrFW6nGB7eRAr2QBfuAACgXDjXBgD/Qt4GAP9C3vZNFLsBAB7VuHFjb4cAlE/7mdLaAaaWr84KDJfavVjyOoYAqUoD01Srn+3j+Rmm1t92i+F/S4XZLj0NG4W50tkE02RPSIztGOFF/1apLxkCy3d8AABQbpxrA4B/IW8DgH8hb/smit0AAACuqN5dunCetGGMcwXvwHDT+tW7l++4QRFSZHvTZM1YKGUn2eke/dy/2cfKd2xJyj1hmk7/YfuYIVgKj3NcDA+OLP/xAQAAAAAAAMAKxW4AgEcdOnRIEnfBwc/VGSb1WSXtfEBKWeV4vVoDTC26y1voLo0hQKpSzzTV7GP7eH6mlHnQcTG8IKt8xzfmSRl7TZM9ITUtxwcvXgyv0kAK4JQUAICKwLk2APgX8jYA+Bfytm/iyiIAwKNSU1MlcUKASqB6d6nPSunMLungLClti5SXbhrbOuoCqcntUrU23o7SJCjcNN54ZFvbx4xG0zjexQvgxf+ffbT8x889aZpS/7R9zBAkhTd2XAwPiS7/8QEAOE9wrg0A/oW8DQD+hbztmyh2AwAAlEdkW6njG96OouwMBiks1jTV7GX7eEG2qVW4o2J4QUb5jm/MlzL2m6YTdh4Pri5FNLMsgptbhTekVTgAAAAAAABwHuPqIAAAABwLDJOqtTZN1oxG0zje1gXwov9nHZFkLN/x805LqRtNkzVDoFSlsW2LcHOr8OrlOzYAAAAAAAAAn0axGwAAAGVjMEihtU1TjR62jxfkSFmHHBTD90v5Z8t3fGOBaZ+ZBxy0Co+23z16RFOpSiMpILh8xwcAAAAAAADgVRS7AQAA4B6BoVLVlqbJmtEo5aY47h496x+Vv1V4qpS22TTZCJDCGzkuhgfXMBXzAQAAAAAAAPgsit0AAI+qU6eOt0MA4AsMBik0xjTVuMj28cJcKfOQg2L4fik/vZwBFJrGIs88KKWssH04KNJ+1+gRTaXwxlJASDmPDwBAxeNcGwD8C3kbAPwLeds3UewGAHhUbGyst0MA4A8CQqSqLUyTNaNRyjvleKzwzMOSCst3/PwzUtpW02QbnFSlgeNieEgtWoUDALyCc20A8C/kbQDwL+Rt30SxGwAAAP7FYJBCapqm6t1tHy/Mk7IO2y+GZ+yX8tPKGUChaf9ZhyWtsn04qGqxVuDFiuERzaQqjU3duwMAAAAAAAAoN4rdAACPSkhIkCS1atXKy5EAqLQCgk2F5Yhm9h/PPW1/nPCMA1LWIclYUL7j55+VzmwzTTYMplbhjsYKD4nxjVbh6Qm2y3Y9IjWbJkW29Xw8AACncK4NAP6FvA0A/oW87ZsodgMAPCo7O9vbIQA434VUl0K6StFdbR8rzJey/nFcDM87Vc6DG037z/pHOvmr7cOBESWMFR4nBYaV8/ilOP2ntON++7Ed+sA01ewvtZ9pv1U9AMCrONcGAP9C3gYA/0Le9k0UuwEAAIAiAUFSRBPTFDPI9vHcVCnzb8siuPnfg5Ixv3zHL8iQzmw3TfaE1XdcDA+tU75W4clLpA1jpILMktc7+au0doB04TypzrCyHw8AAAAAAAAoJ4rdAAAAgLNCoqWQC6ToC2wfK8yXso7YFsGL/p97svzHzz5qmk6usX0ssIr9scLDm5qK94FVHO/39J/Shqukgizn4ijINBXG+6yihTcAAAAAAAC8hmI3AAAAUBECgqSIONMUc7Ht43lpUsbfDorhByVjXvmOX5Alpe80TfaE1XVcDN9xv/OFbvPxMqWdD0h9VpYvbgAAAAAAAKCMKHbDTQqlnBOubxZU1XGro5wUScayhRMYLgVF2H8s95RkLCjbfgPCpOBqDvabWvaL1gEhUnCU/cfy0qTC3LLt1xBsapFmd7/pUmEZx5swBEohNew/lp9Reneojncshday/1BBlpR/toz7lRQa42C/OVL+mbLvN6SmZAiwXV6Ya/rblVVwdVMRxWa/+VLe6XLsN8r0frNmLCxfC8SgSCkw1O5DgQXnxrslR5AjJHJEEXLEv8qSG8z79YMcUaW+aarZ1zJHGAukrKP/FsHP7DL9m3nINOVVRKvwY6bp1G/l31eRlFVS+m4prAE5QiJHFCFH/IvziHP75TzCtF/354gynWuTI87tlxxh2i854tyOK2WOKBNyxLn9uidHBBRmqTDAwX7JEef2S44w7ZccIem8yxGcR5zjQznCufNtcoRZSTnC3vIyMhiNxjJ+ygBbXbt2VVJSkmKjC7Tp2WTXd9DxLanpHfYf+zFGyk0pW2CtnpDazLD/2PJ2Uvqusu23yRSp09v2H1szwDSmZVnUGyNdONf+YxvGSonzyrbfmv2lvqvsPxZ/h/T3O2Xbb7W20iAHrch2z5ASnizbfkNqScMdfGkceFvaNrVs+5WkKxykvqNzpT/HlX2/w47b/8I5sUr6bWDZ93vxDimyne3yMzulFe3Lvt/eK6WYAbbLc05IS2qXfb/dv5Hqj7X/2PxyjCdLjjAhR5iQI/5FjjAhR3hH0ztNP7DJEeSIIuSIf/lijuA8woQc8S9yhAk5woQcYUKO+Bc5wsRNOSK78YPKbvKQoqOjbR8kR5iQI0zIESbnWY7gPOIccsS/KlOOsLe8jOyU6QEAAAD4raptpAbXSjV6SqF13H+8tC3uPwYAAABQCYWFhdkvdAMAAKfRjTkAAABQmUS2k7p9/u98foaU+bepi/Tdj0tn4iv2eHnpFbs/AAAAAAAAwEm07AYAAAAqs6AIKbK9VHeUVLVFxe/f0ThfAAAAAEqUlJyk+PgKvhkVAIDzDGN2o0KZx+yOra1N6352fQdBVaXAKvYfy0mRVMa3a2C46UKvPbmnTONMlkVAmOMLvLmpkjGvjPsNkYKj7D+WlyYV5pZtv4ZgKSTawX7TpcLsMu43UAqpYf+x/AypILNs+5VBCq1l/6GCLCn/bBn3K/vjT0hSQY6Uf6bs+w2pKRns3EdUmGv625VVcHUpwE5nHIX5Ut7pcuw3yvR+s2YslHJPln2/QZFSYKjdh3ZsXilJat+uDOP2kCPO7ZcccW7H5IgilShHKMfBmEZO7ZccYdqvizli1yPSoQ/KdizJNGZ3m2fJERI5ogg54l+VIUc4i/OIf3kxR+zYuUOSi+fa5Ihz+yVHmPZLjji340qZI8qEHHFuv+7JEdt37VdhQBV16tTJ9kFyxLn9kiNM+yVHSDrvcgTnEef4UI5w7nybHGFWUo6wt7yMKHajQv1b7I7Vpk2bvB0OAB9UdMey3R9yAADPO7NLWtGu7NsP2iVVa1Nx8QAAyoxzbQDwL+RtAPAv5G3fxJjdJcjNzdXChQu1YMECJSQkKCUlRVFRUWrYsKGGDx+ucePGqUYNB3d9lFFBQYESEhIUHx9vnnbv3q28PNOdND179tS8efMq7Hg///yzbr75Zotl69evV8OGDSvsGAAAAPBhkW2lmv2lk7+6vm3NvhS6AQAAAAAA4DUUux3Yt2+fpkyZop07d1osP378uI4fP65Nmzbp3Xff1SuvvKJBgwZVyDGXLl2qqVOnKisrq0L2V5r09HQ9/PDDHjkWAAAAfFj7mdLaAa5342cIMnUjZ6+rKwAAAAAAAMDNuCplR2Jioq6++mpzodtgMKhnz54aP368LrnkEoWFhUmSUlJSNGHCBK1du7ZCjpuWluaxQrckPfPMM0pKSvLY8QAAAOCjqneXLpxnGg/MFSkrpd1PuCcmAAAAAAAAoBS07LZj6tSp5iJwgwYN9NFHH6ldu3/HMTx16pRuv/12rV27Vnl5ebrtttu0bt06RUVFVcjxY2Ji1KlTJ3Xu3FmdOnXSqlWr9OGHH1bIvov88ccf+uKLLyRJV155pb7//vsK3T8AONKqVStvhwAAsKfOMKnPKmnnA1LKKsfrGQIlY8G/83ueMXVl3vAad0cIACgF59oA4F/I2wDgX8jbvomW3VaWL1+uP/74Q5IUEhKiOXPmWBS6JalGjRr6+OOP1bhxY0lSamqq3nnnnXIfe+DAgdqwYYO2bt2qTz75RNOmTdPFF19cYUX0ItnZ2Zo+fbqMRqPi4uJ0zz33VOj+AaAkYWFh5h4yAAA+pnp3qc9Kqc8a28caT5QG7ZJ6LjEVvIvbcot0ar1nYgQAOMS5NgD4F/I2APgX8rZvothtZc6cOeb/jx07Vm3atLG7Xnh4uKZPn26e//zzz5Wfn1+uY9euXVv169cv1z6c8eqrr+rAgQOSpOeee06hoaFuPyYAFMnOzlZ2dra3wwAAlKSanTuV2/7P1IK79iVShzcsHyvMkf64Qso87JHwAAD2ca4NAP6FvA0A/oW87ZsodheTkZGh3377zTw/bty4EtcfPny4IiIiJJlad69f7/utWXbu3KlZs2ZJkkaPHq1+/fp5OSIA55uEhAQlJCR4OwwAQHk0nSI1ucNyWU6ytH6U/p+9O4+Oqr7/P/6ckGUkLAEEIohxwQYFDRqFuOLSTat2E2yr1Fa7iXaxWtv6q61tv9205dtVbdWqrV0E24pasf1W1KICaoCILGFRI4sT1rAmIcv8/hgNGRIgQDJ37uT5OIdz7nw+9868PuJ5n0ve+dyhcVswmSRJ3mtLUshYtyUpXKzb6clmdysvv/wy9fX1QGLn9ujRo/d6fjQapbS0tOV160Z5OmpqauJrX/sajY2NFBQUcOuttwYdSZIkSWF1ws9h4LuTx7ZUwMtXQLw5kEiSJEmSJEnqXmx2t7Js2bKW4xEjRpCdnb3Pa0444YSW4+XLl3dJrs5y9913U1FRAcAtt9zCgAEDAk4kSZKk0MrKhlOnQK/dHnkemwaL/l8wmSRJkiRJktSt2OxuZcWKFS3Hhx9+eIeuGTJkSMtxOje7q6qq+OlPfwpAWVkZl112WcCJJEmSFHq5/aDsMcjplzy+7Mfw5h+CySRJkiRJkqRuY99bl7uRTZs2tRwPHDiwQ9cMGjSo5bimpqazI3Wam266idraWnJzc/nJT35CJBLp0s9rbm5mzZo1ez2n9S8KSJIkKaR6HQtj/gYvvBfijbvG538W8o+BAWcEl02SJEmSJEkZzWZ3K9u3b285jkajHbqm9Xmtr08nf/3rX3nuuecAuPbaaxk+fHiXf+batWs59dRT93rOE0880WaspKQESPziQFVVVZv5aDRKcXHiUZmxWIzq6uo25xQUFFBUVAQkdrS390sIgwcPprCwEIDKykrq6uranFNUVERBQQFAy+Pfd1dcXEw0GqWuro7Kysp2z3FNrsk1Ja9pw4YN7a4tzGvKxL8n1+SaXFP3XlPD9jWM2u2czZs303fQwD2sqT/9+3+TYRu+v2uoeScNz1/MsiEP0pAzNPA1ZeLfk2tyTa7JNe2+pndk0poy8e/JNbkm1+Sa3lnT7j8jyYQ17c41uSbX5JoyaU1bt26ld+/eGbWmoP6eOtqH7Qib3a3U19e3HOfk5HTomtzc3Jbj9v5yg7Zu3Tq+//3EDx2PPvpovvjFLwacSFJ3N2DAgKAjSJL2oalHfyqOmp80VpR76F6v2djnoxzWaxPZVb9uGctp3sRR1V9m+ZAHaM7K74qokqRW3vlh155+GCZJSi/+jESSwmXYsGEtjWGlj0g8Ho8HHSJdTJw4kRkzZgCJHdA333zzPq+ZMWMGEydOBCA/P5+lS5d2eq6f/exnTJ48GYDTTjuNhx9+uMPXfu5zn+Of//wnAFOnTuX0009vc87KlSspKytreT179myGDRt2QFlLS0uJxWIMGjSo5XP3xMeYS5IkZZjmRphzCVRPTx4ffBGUPQKRHoHEkiRJkiRJUmZyZ3cr+fm7dpt0dJd26/NaX58O/vWvf7U0nCdMmNBuo7urZGVl2cyW1K53HoPyziNNJEnpa79rdlY2nPIX+O/psHXRrvHqx2HhN2DU7Z2eUZK0i/fakhQu1m1JChfrdnqy2d1Kv379Wo7XrVvXoWvWrl3bcpxO/3PX1ta27Ezv378/t9xyS8CJJCnhne8OSaeaKUlq3wHV7Jy+UPYYPDsGdm7YNb78p9D7OCi6qnNDSpJaeK8tSeFi3ZakcLFupyeb3a0cc8wxLcerVq3q0DVr1qxpOR4+fHinZzpQ69evJxaLARCJRPjkJz+5x3N37tyZ9Prqq69u+S7y888/n+uvv77rgkqSJCnz5B8NY/4Oz78b4g27xud/AfKPgUPHBZdNkiRJkiRJGcNmdyvHHntsy/GSJUtobGwkO3vv/4kWLFjQcpxOze7WNmzYwIYNG/Z94tsWLlzYcpyua5IkSVKaO/RsGH0XzLt611i8AV78KIybk2h6S5IkSZIkSQchK+gA6eSUU04hLy8PgB07dlBRUbHX8+vr65k7d27L6zPOOKNL80mSJEkp0VQPq6fSd/u/6bv937B6amJsfxVdBcNvTB7buQFmXwwNmzsnqyRJkiRJkrotd3a3kp+fzxlnnMGMGTMAmDJlCqWlpXs8f/r06Wzbtg1IPJ+/rKwsJTk7YtiwYaxevbpD565cuTIp++zZsxk2bFhXRZMkSVK6a9wCL03gyHderwUuWAs9Bu7/e438MWxdAtWP7xrbuhheugzKHocs/0kiSZIkSZKkA+PO7t1ceeWVLcdTp06lsrKy3fNqa2u5/fbbW15fccUV+3zkuSQJotEo0Wg06BiSpFSJ9IBT/gx9RiWPr/0XvHpj+9dIkg6I99qSFC7WbUkKF+t2erLZvZt3v/vdjB07Fkg8pvzKK69k0aJFSeds3LiRq666ijfeeANI7OqeNGlSu++3cuVKhg4d2vLnoYce6tL8kpTuiouLKS4uDjqGJCmVcnrD2Mcgd7ed4a/9Al7/bTCZJCkDea8tSeFi3ZakcLFupye3Irfj17/+NRdddBHV1dWsXLmS9773vZSVlXHkkUeyYcMGZs6cSW1tLQDZ2dncdddd9O3bt1M+e+LEicRisaSxdevWtRxXVFTwnve8p811f/zjHyksLOyUDJIkSVKnyz8Sxv4Dnj8PmnfuGn/lOuh1LAw8L7BokiRJkiRJCieb3e0YMmQIU6ZMYdKkSSxcuJB4PM6sWbOYNWtW0nkDBgxg8uTJnHXWWZ322UuXLmXVqlV7nN+xY0ebneYADQ0NnZZBkrrSO7/Q4y/oSFI3NOAMGH03zN311UHEG+HFS2HcnETTW5J0wLzXlqRwsW5LUrhYt9OTze49GD58OI8//jjTpk1j2rRpVFZWsn79evr06cMRRxzBhRdeyGWXXUb//v2DjipJoVJdXQ14QyBJ3dYRn4Sti2HZj3eNNWyC2RfB2bMht19w2SQp5LzXlqRwsW5LUrhYt9OTze69yM3NZfz48YwfP/6A32PYsGGsXr26w+fPmTPngD/rQO1vRkmSJOmgHP8D2LYE3npk19i2pfDSBDjtCcjKCSyaJEmSJEmSwiMr6ACSJEmSuplIFpT+EfqUJI+v+w8suD6YTJIkSZIkSQodm92SJEmSUi+7F5Q9CnmDk8df/w289ptgMkmSJEmSJClUbHZLkiRJCkbPI2DsI5CVlzy+4Muw9v8CiSRJkiRJkqTwsNktSUqpgoICCgoKgo4hSUoX/cvgpN8nj8Wb4MXxsHVJMJkkKaS815akcLFuS1K4WLfTU3bQASRJ3UtRUVHQESRJ6WbYJ2DrYlj6P7vGGjfD7Ith3BzI7R9cNkkKEe+1JSlcrNuSFC7W7fTkzm5JkiRJwTvuuzDko8lj25fDi5dCc0MwmSRJkiRJkpTWbHZLklKqqqqKqqqqoGNIktJNJAtOfgD6npw8vv5peOU6iMeDySVJIeK9tiSFi3VbksLFup2ebHZLklKqpqaGmpqaoGNIktJRdj6UPQrRw5LH3/gdvParYDJJUoh4ry1J4WLdlqRwsW6nJ5vdkiRJkpLlDoAL1vLqETN49YgZcMHaxFgqHDIUxj4KWdHk8QXXQ/WTqckgSZIkSZKkULDZLUmSJClZJAvyBtLUoz9NPfpD3sDEWKr0OwVKH9htsBleugy2LEpdDkmSJEmSJKU1m92SJEmS0s/QCTDiu8ljjVtg9sVQvz6YTJIkSZIkSUorNrslSZIkpafiW2Dox5LHdrwGL34UmncGk0mSJEmSJElpIzvoAJKk7mXw4MFBR5AkdVDgNTsSgZN/D9tXQM1Lu8Y3/BfmXwMn3ZM4R5IEpEHdliTtF+u2JIWLdTs9ReLxeDzoEMocpaWlxGIxCgsLKS8vDzqOJEmSMkHdW/DMqVC3Onl85E/h2BuCySRJkiRJkqTAubNbkiRJUrLmnbDhheSxAadDVm4weaKHQdljMPNMaNqxa3zh16B3MRReFEwuSZIkSZIkBcpmtyQppSorKwEoLi4OOIkkaY8aNsPz5yaPXbAW8gYGkweg4CQo/WPi+7pbxOHlj8NZL0DfEwKLJknpwnttSQoX67YkhYt1Oz1lBR1AktS91NXVUVdXF3QMSVIYDfkIHPeD5LHGbTD7YqhfG0wmSUoj3mtLUrhYtyUpXKzb6clmtyRJkqTweNc34fDLk8dqq2DOh6GpPphMkiRJkiRJCoTNbkmSJEnhEYnASfdAv7Lk8Y0vwPzPQTweTC5JkiRJkiSlnM1uSZIkSeHSIwpjH4FDhiWPr/wDLLstkEiSJEmSJElKPZvdkiRJksInOhjKHoMe+cnji74Jax4JJJIkSZIkSZJSKzvoAJKk7qWoqCjoCJKkTNG3BE75M8z5EPDO48vjUH4F9HwOCkYHl02SAuC9tiSFi3VbksLFup2e3NktSUqpgoICCgoKgo4hScoUh10CI3+cPNa0HeZcAnWxYDJJUkC815akcLFuS1K4WLfTk81uSZIkSeE2/Gsw7MrksdqViR3fTXWBRJIkSZIkSVLXs9ktSUqpiooKKioqgo4hScokkQiM/i30PyN5fNMcmHc1xOPtXydJGcZ7bUkKF+u2JIWLdTs92eyWJEmSFH498mDsP6Dnkcnjq/4MS38YSCRJkiRJkiR1LZvdkiRJkjJD3kAoewyyeyWPL/4WrP5bMJkkSZIkSZLUZWx2S5IkScocfUbBKX8FIsnjcydCzdxAIkmSJEmSJKlr2OyWJEmSlFkKPwCjfpo81lQLsy+B2jXBZJIkSZIkSVKns9ktSZIkKfMccz0UXZ08Vrca5nwQGncEk0mSJEmSJEmdKhKPx+NBh1DmKC0tJRaLUVhYSHl5edBxJKWhuro6AKLRaMBJJEl71NwI2yqpr68HIC8vD3oVQ1Z2wMH2U/NOeP69sOHZ5PGhExKPOo9E2r9OkkLKe21JChfrtiSFi3U7PYXsp1WSpLDzRkCSQiArG/qMJC/oHAcrKxfG/g2eHQvbV+waXz0Feh8PI74TXDZJ6gLea0tSuFi3JSlcrNvpyceYS5JSqq6uruU34CRJ6S0janbuACh7DLL7JI8vuRVWPRRIJEnqKhlRtyWpG7FuS1K4WLfTk81uSVJKVVZWUllZGXQMSVIHZEzN7n0cnDqFNv/8mfsp2PRSEIkkqUtkTN2WpG7Cui1J4WLdTk82uyVJkiRlvsHvgxN+njzWXAdzPgi1qwKJJEmSJEmSpINjs1uSJElS93D0dXDkF5LH6t6C2ZdA4/ZgMkmSJEmSJOmA2eyWJEmSlKy5EbYsJG/ncvJ2LoctCxNjYReJwIm/hEPPSx7fPA/KPwnx5mBySZIkSZIk6YDY7JYkSZKUrGETzBjFiNWXMmL1pTBjVGIsE2TlwJipkH9s8vhbf4fF3w4mkyRJkiRJkg6IzW5JkiRJ3Utufyh7DHIKkseX/gBW/imQSJIkSZIkSdp/kXg8Hg86hDJHaWkpsViMwsJCysvLg44jSZKkA1G/DqYPSh67YC3kDQwmT1dZ+x+Y9X6IN+0ay8qDM5+G/qcFl0uSJEmSJEkd4s5uSZIkSd3ToHfDib9KHmuuhzkfgh1VgUSSJEmSJElSx9nsliSlVE1NDTU1NUHHkCQp4ahr4Kjrksfq18LsS6BxWzCZJOkAea8tSeFi3ZakcLFupyeb3ZKklKqqqqKqyt1ykqQ0csL/wqD3Jo9teQVevhzizcFkkqQD4L22JIWLdVuSwsW6nZ5sdkuSJEnq3rKy4ZSHoFdx8njsUVh0czCZJEmSJEmStE82uyVJkiQptwDKHoecfsnjy34Cbz4QSCRJkiRJkiTtnc1uSZIkSQLoNRzG/A0i2cnj8z4LG54LJpMkSZIkSZL2yGa3JEmSJL1j4LlQckfyWLwB5nwYtr8RSCRJkiRJkiS1z2a3JCmlotEo0Wg06BiSJO3ZkZ+FY76SPLZzPcy5GBq2BBJJkjrCe21JChfrtiSFi3U7PWXv+xRJkjpPcXFx0BEkSdq3kbfDtkqonr5rbMur8PInoGwaRHoEl02S9sB7bUkKF+u2JIWLdTs9ubNbkiRJknaXlQ2n/AV6H588Xv1PWPj1YDJJkiRJkiQpic1uSVJKxWIxYrFY0DEkSdq3nL5Q9hjkDkgeX/4zeOPeYDJJ0l54ry1J4WLdlqRwsW6nJ5vdkqSUqq6uprq6OugYkiR1TP7RMObvEMlJHq+4BtY/G0wmSdoD77UlKVys25IULtbt9GSzW5IkSVKynL5wxtMsL7yb5YV3wxlPJ8a6q0PPhtF3JY/FG+DFj8L2FcFkkiRJkiRJks1uSZIkSbvJyoWB57D9kFPZfsipMPCcxFh3VnQVDL8xeWznBph9MTRsDiaTJEmSJElSN2ezW5IkSZI6YuSPofDi5LGti+Gly6C5MZhMkiRJkiRJ3ZjNbkmSJEnqiEgPKP0T9DkheXztv+DVG9u/RpIkSZIkSV0mO+gAkqTupaCgIOgIkqQOsma3I6c3lD0Gz46B+rW7xl/7BfQ+Do76fHDZJHV71m1JChfrtiSFi3U7PUXi8Xg86BDKHKWlpcRiMQoLCykvLw86jiRJktQ1NrwAz58LzTt3jUWy4fR/wcDzgsslSZIkSZLUjfgYc0mSJEnJ4s1Qvy75T7w56FTpZcDpMPqe5LF4I7x4KWxbGkwmSZIkSZKkbsbHmEuSUqqqqgqAoqKigJNIkvZo5waYPih57IK1kDcwmDzp6oiJsG0xLP3RrrGGTTD7Yjh7NuT2Cy6bpG7Je21JChfrtiSFi3U7PbmzW5KUUjU1NdTU1AQdQ5KkznHc/8BhH0oe27YUXhoPzQ2BRJLUfXmvLUnhYt2WpHCxbqcnm92SJEmSdKAiWVD6R+g7Onl83VOw4CtBJJIkSZIkSeo2bHZLkiRJ0sHI7gVjH4W8wcnjr98Br/0mmEySJEmSJEndgM1uSZIkSTpYPYfB2GmQlZc8vuDLsPbfwWSSJEmSJEnKcDa7JUmSJKkz9B8LJ9+XPBZvghcnwNYlwWSSJEmSJEnKYNlBB5AkdS+DBw/e90mSJIXV4R+HrYuh8vu7xho3w+yLYNwcyB0QXDZJGc97bUkKF+u2JIWLdTs92eyWJKVUYWFh0BEkSepaI25NNLzXPLxrbPsKePFSOP1fkJUbWDRJmc17bUkKF+u2JIWLdTs9+RhzSZIkSepMkSw4+QEoKE0eX/8MVFwH8XggsSRJkiRJkjKNzW5JUkpVVlZSWVkZdAxJkrpWdk8YOw2ihyWPV90Nr/0ymEySMp732pIULtZtSQoX63Z6stktSUqpuro66urqgo4hSVLXO2QojH0UsqLJ4wu+CtXTg8kkKaN5ry1J4WLdlqRwsW6nJ5vdkiRJktRV+p0CpQ/sNtgML10GWxYGEkmSJEmSJClT2OyWJEmSpK40dAKM+G7yWONWmH0x1K8PJpMkSZIkSVIGsNktSZIkSV2t+BYY+rHksR2vw4sfgeadwWSSJEmSJEkKOZvdkiRJktTVIhE4+fdQcGry+IaZMP8LEI8Hk0uSJEmSJCnEsoMOIEnqXoqKioKOIEnal+w+cOoUtm/fDkB+fn5iTAenxyFQNg2eORXqVu8af/M+6D0Sjr0huGySMoL32pIULtZtSQoX63Z6isTjbiFQ5yktLSUWi1FYWEh5eXnQcSRJkqT0UzMPZp4JTTtaDUag7FEovCiwWJIkSZIkSWHjY8wlSZIkKZUKToLSP+42GIeXPw6bFwQSSZIkSZIkKYxsdkuSUqqiooKKioqgY0iSOsCa3YWGfASO/2HyWOM2mH0x1K8NJpOk0LNuS1K4WLclKVys2+nJZrckSZIkBeHYb8DhVySP1VbBnA9DU30wmSRJkiRJkkLEZrckSZIkBSESgZPuhv6nJY9vfAHmfxbi8WBySZIkSZIkhYTNbkmSJEkKSo8ojPkHHHJE8vjKP8KynwSTSZIkSZIkKSRsdkuSJElKVr8OHolQ8vpoSl4fDY9EEmPqGtHBUPYY9MhPHl/0TVjzj2AySZIkSZIkhYDNbkmSJEkKWt8T4ZQ/A5Hk8fIroGZeIJEkSZIkSZLSXXbQASRJ3UtxcXHQESRJSk+HXQIjfwILb9o11rQD5lwC416CaGFw2SSFgvfakhQu1m1JChfrdnpyZ7ckKaWi0SjRaDToGJIkpafhN8IRn0oeq10Fcz4ETbVBJJIUIt5rS1K4WLclKVys2+nJZrckKaXq6uqoq6sLOoYkSekpEoGSu2DAmcnjm+bAvKshHg8ml6RQ8F5bksLFui1J4WLdTk82uyVJKVVZWUllZWXQMSRJSl898mDM36Hnkcnjq/4CS38QSCRJ4eC9tiSFi3VbksLFup2ebHZLkiRJUrrJGwhlj0F27+TxxbfA6oeDySRJkiRJkpRmbHZLkiRJUjrqMwpO+Stt/tk295NQUx5IJEmSJEmSpHRis1uSJEmS0lXhhTDqp8ljTbUw+xKoXRNMJkmSJEmSpDRhs1uSJEmS0tkxX4GizySP1a2BOR+Exh2BRJIkSZIkSUoHNrslSZIkKZ1FIlDyGxgwLnm85mWY+ymINwcSS5IkSZIkKWiReDweDzqEMkdpaSmxWIzCwkLKy/0eQUmSpFCqXwfTByWPXbAW8gYGk0cJOzfAs2Nh+4rk8eLvwHG3BhJJkiRJkiQpSO7sliRJkqQwyB0AZY9Bdp/k8crvwqq/BpNJkiRJkiQpQDa7JUkpVVNTQ01NTdAxJEkKp97HwalTaPNPubmfhk0vBhJJUvrwXluSwsW6LUnhYt1OTza7JUkpVVVVRVVVVdAxJEkKr8HvgxN+njzWXAezPwi1qwKJJCk9eK8tSeFi3ZakcLFup6fsoANIkiRJSjPZveDEX7NqdaJxevjQwxNjSh9HXwdbF8Ebd+0aq4/B7EvgrJmQnR9cNkmSJEmSpBSx2S1JkiQpWY9D4Ohr2bC1AoDDjy4JOJDaiETgxF/CtqWwfsau8c3zoPyTMGYqRHyQlyRJkiRJymz+9EOSJEmSwigrJ9HUzj82efytv8PibweTSZIkSZIkKYVsdkuSJElSWOX2h9Meh5yC5PGlP4CVfwokkiRJkiRJUqrY7JYkpVQ0GiUajQYdQ5LUAdbskOj1LhjzMER6JI/Puxo2zgomk6RAWLclKVys25IULtbt9BSJx+PxoEMoc5SWlhKLxSgsLKS8vDzoOJIkSVL38fpdUHFN8ljeIBj3IvQsCiaTJEmSJElSF3JntyRJkiRlgqO+AEd/MXmsfi3MvhgatgaTSZIkSZIkqQvZ7JYkpVQsFiMWiwUdQ5K0N/Xr4YmBND8+gObHB8ATAxNjSn+jJsOg9yaPbVkA5VdAvCmYTJJSxnttSQoX67YkhYt1Oz3Z7JYkpVR1dTXV1dVBx5Ak7VUcdq4nq3EjWY0bYef6xJjSX1Y2nPIQ9BqRPB57FBbdHEwmSSnjvbYkhYt1W5LCxbqdnmx2S5IkSVImyS2Asscgp3/y+LLboOr+IBJJkiRJkiR1CZvdkiRJkpRpeg2HMX+DSHby+PzPwYbngskkSZIkSZLUybL3fUr3tXPnTh599FGmTZtGZWUl69evp2/fvgwbNowLL7yQCRMm0L9//32/0X5oamqisrKSioqKlj+LFy+moaEBgNNOO42HH354v96zpqaGmTNn8sILL7Bw4ULeeOMNtmzZQl5eHgMGDKCkpIT3vOc9XHzxxeTk5HTqeiRJkiQFZOA5UHInzP/srrF4A8z5MIx7EfKPCiyaJEmSJElSZ7DZvQfLly9n0qRJLFy4MGl87dq1rF27lvLycu68804mT57M+eef3ymf+eSTT3LddddRW1vbKe+3fft2Jk2axH//+1927tzZZr6hoYFt27ZRVVXFo48+ym233cbPf/5zysrKOuXzJUmSJAXsyM/A1kWw4n93je1cD7MvhrNfgJw+wWWTJEmSJEk6SDa727FmzRouu+wyYrEYAJFIhLKyMoqKitiwYQMzZ86krq6O9evXc/XVV/Pggw9y5plnHvTnbt68udMa3ZBodv/nP/9JGhs4cCAnnngigwYNoqGhgYULF7J48WIAVq5cyWWXXcY999zDe97znk7LIUmtFRQUBB1BkqTuZdTtsK0Sqp/YNbZ1Ibz8cSh7FCI9gssmqVN5ry1J4WLdlqRwsW6nJ5vd7bjuuutaGt2HH344v//97xk5cmTL/MaNG7nmmmt47rnnaGho4POf/zwvvPACffv27ZTPHzhwICUlJYwePZqSkhKeeeYZ7r333gN+v4KCAj760Y9y2WWXJa3jHS+++CJf/vKXefPNN2lsbOSLX/wiM2fOZODAgQezDElqV1FRUdARJEnqXiI94JS/wH9PS+zyfkf1E/DqTXDCz4LLJqlTea8tSeFi3ZakcLFup6esoAOkm6eeeoo5c+YAkJuby/3339+mQdy/f3/uu+++lv+pa2pquOOOOw76s88991xefPFF5s+fzwMPPMD111/Peeedd8BN9JycHK6//npmz57N9773vXYb3QBjxoxhypQp9O7dG4CtW7dyzz33HPA6JEmSJKWZnD5Q9hjkHpo8vmIyvOG9vyRJkiRJCieb3bu5//77W47Hjx/Pcccd1+55PXv25MYbb2x5/eCDD9LY2HhQnz1o0CCGDh16UO/RWr9+/bjxxhtbmth7M2zYMCZOnNjy+qmnnuq0HJLUWlVVFVVVVUHHkCSp+8k/Gsb8HSI5yeMV18C6ZwKJJKlzea8tSeFi3ZakcLFupyeb3a1s376d559/vuX1hAkT9nr+hRdeSH5+PpDY3T179uwuzdfVTj311JbjlStXBphEUiarqamhpqYm6BiSJHVPh54Fo3+XPBZvhBc/CttXBJNJUqfxXluSwsW6LUnhYt1OTza7W3n55Zepr68HEju3R48evdfzo9EopaWlLa9bN8rDrqmpKegIkiRJkrpC0adg+NeSxxo2wqyLoGFzIJEkSZIkSZIOhM3uVpYtW9ZyPGLECLKzs/d5zQknnNByvHz58i7JlSpLlixpOR4yZEiASSRJkiR1qZE/gsKLk8e2LYGXLoPmg/t6JkmSJEmSpFSx2d3KihW7Htt3+OGHd+ia1k3hMDe7m5ub+dvf/tby+qyzzgowjSRJkqQuFekBpX+CPickj6/9F7x6QzCZJEmSJEmS9tO+ty53I5s2bWo5HjhwYIeuGTRoUMtxmJ/T/8ADD7Q067OysvjkJz95UO/X3NzMmjVr9nqOu8clSZKkAOX0hrLH4NkxUL921/hrv4Tex8FRXwgumyRJkiRJUgfY7G5l+/btLcfRaLRD17Q+r/X1YVJZWcmPfvSjltcf//jHKS4uPqj3XLt2Laeeeupez3niiSfajJWUlACJXxyoqqpqMx+NRluyxWIxqqur25xTUFBAUVERAFVVVe3+EsLgwYMpLCwEEuuvq6trc05RUREFBQUAVFRUtLuG4uJiotEodXV1VFZWtnuOa3JNril5TTt27Gh3bWFeUyb+Pbkm1+Sauveadu7YxMCCz9PQ0ABATk4O0W07KcgjtGvKxL+nTlnTshp69r+NY976LFk07Drpleug17uoyTk5fGvKxL8n1+SaOrimwYMHZ9yaMvHvyTW5Jtfkmt5Z0+4/I8mENe3ONbkm1+SaMmlNkUikZRNspqwpqL+njvZhO8Jmdyv19fUtxzk5OR26Jjc3t+W4vb/cdLd582auuuqqlkb9UUcdxXe+852AU0nKZD179gw6giRpH5qzDqG63zVJY0U98gNKo662IzqaVYd+hyPWf2vXYLwJXryUrJP+DXTs30aSgvfOD6A2b94ccBJJUkf4MxJJCpe+ffu23HMrfUTi8Xg86BDpYuLEicyYMQOAa6+9lptvvnmf18yYMYOJEycCkJ+fz9KlSzs9189+9jMmT54MwGmnncbDDz/cKe9bV1fH5ZdfzuzZswHo3bs3f//73zn++OMP+D1LS0uJxWIMGjSIf/7zn3s918eYS5IkSWlk0c2w9EfJY73eBWfPhtx+wWSSJEmSJEnaC3d2t5Kfv2u3Skd3abc+r/X16a6xsZFrrrmmpdEdjUa57777DqrR3VpWVpbNbEnteueRKwf7dQmSpK5nze5mjvsf2LoY3npk19i2pfDSeDhtOmS5w1tKd9ZtSQoX67YkhYt1Oz1lBR0gnfTrt2u3wrp16zp0zdq1a1uO33kWfbprbm7m+uuv59///jcA2dnZ3HXXXZx22mkBJ5PUHdTV1YXyax8kqTuyZnczkSwo/SP0HZ08vu4pWPCVIBJJ2k/WbUkKF+u2JIWLdTs92exu5Zhjjmk5XrVqVYeuWbNmTcvx8OHDOz1TV/jGN77B3//+dyCxA/sXv/gF73nPewJOJUmSJClw2b1g7KOQt9t3kL1+B7z262AySZIkSZIk7YHN7laOPfbYluMlS5bQ2Ni4z2sWLFjQchyGZvd3vvMd/vSnP7W8/slPfsKHPvSh4AJJkiRJSi89h0HZNMiKJo+/8mVY++9gMkmSJEmSJLXDZncrp5xyCnl5eQDs2LGDioqKvZ5fX1/P3LlzW16fccYZXZrvYP34xz/mnnvuaXl966238olPfCLARJIkSUpLOzfCUyMpXvURild9BJ4amRhT99FvDJx8326DzfDihMT3ekuSJEmSJKUBm92t5OfnJzWsp0yZstfzp0+fzrZt24DE93WXlZV1ab6D8Ytf/IJf/epXLa9vvPFGPvvZzwaYSJIkSWkr3gRbFxFteI1ow2uwdVFiTN3L4R+D4m8njzVuhtkXw84NwWSSJEmSJElqxWb3bq688sqW46lTp1JZWdnuebW1tdx+++0tr6+44gqys7O7PN+BuOeee7jttttaXk+aNInrr78+wESSurOioiKKioqCjiFJkjpixHdgyPjkse0rYM5HoXlnMJkk7ZH32pIULtZtSQoX63Z6stm9m3e/+92MHTsWSDym/Morr2TRokVJ52zcuJGrrrqKN954A0js6p40aVK777dy5UqGDh3a8uehhx7q0vy7++tf/8qtt97a8vpTn/oU/+///b+UZpCk1goKCigoKAg6hiRJ6ohIFpx8PxSUJo9veBYqroN4PJBYktrnvbYkhYt1W5LCxbqdntJzK3LAfv3rX3PRRRdRXV3NypUree9730tZWRlHHnkkGzZsYObMmdTW1gKQnZ3NXXfdRd++fTvlsydOnEgsFksaW7duXctxRUUF73nPe9pc98c//pHCwsKkscWLF/O1r32N+Ns/gOrZsyfxeLzDze6rr76ao48+en+XIEmSJCmTZPeEsdPg2TFQt2bXeNXd0Pt4GP6VwKJJkiRJkqTuzWZ3O4YMGcKUKVOYNGkSCxcuJB6PM2vWLGbNmpV03oABA5g8eTJnnXVWp3320qVLWbVq1R7nd+zY0WanOUBDQ0ObsU2bNtHc3Jx07QMPPNDhLB/4wAdsdkvqdBUVFQCUlJQEnESSJHXYIUMTDe/nzoam2l3jr94Avd4FhRcGl01SC++1JSlcrNuSFC7W7fRks3sPhg8fzuOPP860adOYNm0alZWVrF+/nj59+nDEEUdw4YUXctlll9G/f/+go0qSJElS1+t3Cpz8ALw0odVgM7z8MTh7FvQZGVg0SZIkSZLUPdns3ovc3FzGjx/P+PHjD/g9hg0bxurVqzt8/pw5cw74s3Z3+umn79dnS5IkSdJeDR0PW78HS769a6xxK8y+GMbNgbyBwWWTJEmSJEndTlbQASRJkiRJIVL8LRj6seSxHa/Dix+BpvpgMkmSJEmSpG7JZrckSZIkqeMiETj599BvTPL4hueg4hqIx4PJJUmSJEmSuh2b3ZIkSZKk/dPjEBj7CBxyePL4m/fB8p8FEkmSJEmSJHU/fme3JCmliouLg44gSZI6Q/QwGPsozDwTmnbsGl94E/QqhsMuDi6b1E15ry1J4WLdlqRwsW6nJ3d2S5JSKhqNEo1Gg44hSZI6Q8FJUPrgboNxKP8EbH4lkEhSd+a9tiSFi3VbksLFup2ebHZLklKqrq6Ourq6oGNIkqTOMuTDcPwPk8cat8Hsi6GuOphMUjflvbYkhYt1W5LCxbqdnmx2S5JSqrKyksrKyqBjSJKkznTsN+DwK5LHat+EFz8CTf4gQEoV77UlKVys25IULtbt9OR3dkuSJElKlhWFoyaxfv16AA499NDEmLQnkQicdDfsWAEbZ+0a3/gCzP8cnPxA4hxJkiRJkqROZLNbkiRJUrKc3lDyG1ZXVABwaElJwIEUCj2iMOYf8OyYxK7ud6z8I/Q+Ht71jeCySZIkSZKkjORjzCVJkiRJnSM6GMoegx75yeOLvglr/hFMJkmSJEmSlLFsdkuSJEmSOk/fE+GUPwO7Pba8/AqomRdIJEmSJEmSlJlsdkuSJEmSOtdhl8DInySPNe2AOZdAXSyYTJIkSZIkKeNE4vF4POgQyhylpaXEYjEKCwspLy8POo4kSZKkoMTjMO9qePO+5PF+Y+DMZ6DHIYHEkiRJkiRJmcOd3ZIkSZKkzheJQMmdMOCs5PFNL8LcqxLNcEmSJEmSpIOQHXQASVL3UlNTA0BBQUGgOSRJe7GzBuZ8iMbGRgCys7Nh7COQWxBkKoVRjzwY8zd4dizseH3X+Oq/Qu/jYcQtwWWTMpD32pIULtZtSQoX63Z6stktSUqpqqoqwBsCSUpr8QbY8GzyPxbiDUGlUdjlDYSyx+C/p0Hj1l3jS74NvUfA0PHBZZMyjPfakhQu1m1JChfrdnryMeaSJEmSpK7VZySc+hBt/gk690rY9HIgkSRJkiRJUvjZ7JYkSZIkdb3BF8ConyWPNdXCnA9C7epgMkmSJEmSpFCz2S1JkiRJSo1jvgxFn00eq1uTaHg37ggmkyRJkiRJCi2b3ZIkSZKk1IhEoOTXcOg5yeM15YlHmsebA4klSZIkSZLCyWa3JCmlotEo0Wg06BiSJCkoWbkw5mHIPyZ5fM3DsOS7wWSSMoT32pIULtZtSQoX63Z6yg46gCSpeykuLg46giRJClruACh7HJ4tg8bNu8Yrvwe9R8DhHw8umxRi3mtLUrhYtyUpXKzb6cmd3ZIkSZKk1Os9AsZMgUiP5PG5n4aNc4LJJEmSJEmSQsVmtyQppWKxGLFYLOgYkiQpHQx6L5zw8+Sx5nqY8yHYsTKIRFKoea8tSeFi3ZakcLFupyeb3ZKklKqurqa6ujroGJIkKV0cdS0cdU3yWH0M5lwCjduDySSFlPfakhQu1m1JChfrdnqy2S1JkiRJCk4kAif8Agaenzy+eT6UT4R4cyCxJEmSJElS+rPZLUmSJEkKVlYOnDoVer0refytf8DiW4LJJEmSJEmS0p7NbkmSJElS8HL7QdljkFOQPL70h7DywUAiSZIkSZKk9GazW5IkSZKUHnq9C8Y8DJEeyePzroaNs4LJJEmSJEmS0lZ20AEkSd1LQUFB0BEkSfuSlQtDLmX7jh0A5PfsmRiTUmHg+XDir6Himl1jzTthzodg3IvQsyiwaFK6815bksLFui1J4WLdTk+ReDweDzqEMkdpaSmxWIzCwkLKy8uDjiNJkiQprF75Erz2q+SxPifAWc9DTu9gMkmSJEmSpLTiY8wlSZIkSeln1GQY9N7ksS0LoPwKiDcFk0mSJEmSJKUVm92SpJSqqqqiqqoq6BiSpA6wZitQWdlwykPQa0TyeOxRWHRzMJmkNGfdlqRwsW5LUrhYt9OTzW5JUkrV1NRQU1MTdAxJUgdYsxW43AIoewxy+iePL7sNqu4PIpGU1qzbkhQu1m1JChfrdnqy2S1JkiRJSl+9hsOYv0EkO3l8/udgw3PBZJIkSZIkSWnBZrckSZIkKb0NPAdK7kweizfAnA/D9tcCiSRJkiRJkoKXve9TJEmSJHUrDZth3mcoeufRXC8WwEn3QE7fIFOpuzvyM7B1MayYvGts53qYfTGcPQty+gSXTZIkSZIkBcKd3ZIkSZKSNe+ENQ9TsOM/FOz4D6x5ODEmBW3UbTD4wuSxrYvg5Y9BvCmYTJIkSZIkKTA2uyVJKTV48GAGDx4cdAxJkhRGkR5wyl+g98jk8erp8OrXgskkpRHvtSUpXKzbkhQu1u305GPMJUkpVVhYGHQESZIUZjl9oOwxeHZM4jHm71jxv9D7ODjys8FlkwLmvbYkhYt1W5LCxbqdntzZLUmSJEkKl/yjYOw/IJKTPF4xCdY9E0gkSZIkSZKUeja7JUkpVVlZSWVlZdAxJElS2A04E0b/Lnks3ggvfhS2LQ8mkxQw77UlKVys25IULtbt9GSzW5KUUnV1ddTV1QUdQ5IkZYKiT8GxNyWPNWyE2RfDzpogEkmB8l5bksLFui1J4WLdTk82uyVJkiRJ4XX8D6HwkuSxbUvg5cuguTGYTJIkSZIkKSVsdkuSJEmSwivSA0ofhD4nJo+v/Te8+tVgMkmSJEmSpJSw2S1JkiRJCrec3lD2KOQNSh5/7Vfw+p3BZJIkSZIkSV3OZrckSZIkKfx6FsHYRyArN3n8lS/C2v8EEkmSJEmSJHWt7KADSJK6l6KioqAjSJKkTNX/NDjpXiifuGss3gQvjYdxc6DXu4LLJqWA99qSFC7WbUkKF+t2erLZLUlKqYKCgqAjSJKkTDbsCti6GJb+cNdYQw3MughOfgBW/wVq5kLjVsjuDQUnw5FfgD7HBxZZ6izea0tSuFi3JSlcrNvpyWa3JEmSJCmzHPf9RMP7rX/sGtu+DGae3vbcjc8nvtt7wDgYdTv0OzV1OSVJkiRJ0kHxO7slSSlVUVFBRUVF0DEkSVImi2RB6R+h7+iOX7PhWXjuHKie3lWppC7nvbYkhYt1W5LCxbqdnmx2S5IkSUoWyYEB49gWLWVbtDSx4zWSE3Qqaf9k58OI7+/fNU074MVLYdNLXZNJkiRJkiR1Kh9jLkmSJClZbgGc9Qwr3v5t5ZKSkmDzSAdq+U/3/5qmHbDwJjjz6c7PI0mSJEmSOpU7uyVJkiRJmWfLosSjyQ/E+mcS3/ktSZIkSZLSms1uSZIkSVLmeeOug7v+9Ts7J4ckSZIkSeoyNrslSZIkSZmnZu7BXb95XufkkCRJkiRJXcbv7JYkpVRxcXHQESRJHWTNVqg1bj246xsO8nopANZtSQoX67YkhYt1Oz3Z7JYkpVQ0Gg06giSpg6zZCrXs3gd3fc5BXi8FwLotSeFi3ZakcLFupyeb3ZKklKqrqwO8MZCktNawFRZ9g8amJgCye/SA439s80/hUnAybHz+wK/PGdB5WaQU8V5bksLFui1J4WLdTk9+Z7ckKaUqKyuprKwMOoYkaW+a6+D1O8h+87dkv/lbeP2OxJgUJkd+4eCuj02DeZ+Dhi2dk0dKAe+1JSlcrNuSFC7W7fRks1uSJEmSlHn6HA8Dxh3ce1TdDTNGQfW/OieTJEmSJEnqVDa7JUmSJEmZadTt0KPnwb1H7UqY9X6Y9xlo2Nw5uSRJkiRJUqew2S1JkiRJykz9ToUxD3e84d2jJxx1LfTIbztXde/bu7ynd25GSZIkSZJ0wGx2S5IkSZIy1+AL4Mxn4NBz9n7eoeckziv5NZz3Khx6XttzalfBrAth7lWws6bTo0qSJEmSpP2THXQASZIkSZK6VL9T4cynYcsieOMu2DwPGrZCTm/oexIcdQ30Pm7X+flHwhn/gTd+BwtvhMZtye/35n2w9t8w+ndQeGFKlyJJkiRJknaJxOPxeNAhlDlKS0uJxWIUFhZSXl4edBxJkiQdiPp1MH1Q8tgFayFvYDB5pCBtfwPmfwbWPdX+/BGfglGTIbdfKlNJkiRJkiR8jLkkSZIkSXuWfySc/n8w+reQ3bvt/Jv3J77LO/bPVCeTJEmSJKnbs9ktSUqpmpoaampqgo4hSZLUcZEIHPm5xHd5D3xP2/m6NTD7Iii/EnZuSn0+6W3ea0tSuFi3JSlcrNvpyWa3JCmlqqqqqKqqCjqGJEnS/ut5BJz+Lxh9d/u7vFf+AWaMhLceS302Ce+1JSlsrNuSFC7W7fRks1uSJEmSpI6KRODIzyR2eQ96X9v5urdgziXw8kTYuTH1+SRJkiRJ6kZsdkuSJEmStL96HgGnTYeT7oXsPm3nVz0IT42Etx5NfTZJkiRJkroJm92SJEmSJB2ISASKroLzF8Kg97edr4/BnA/Cy1fAzg2pzydJkiRJUoaz2S1JkiRJ0sE45HA47Qk46T7I7tt2ftWfEru81zyS8miSJEmSJGUym92SpJSKRqNEo9GgY0iS9ibSA3ofT33ucOpzh0Pv4xNjkvYsEoGiTyV2eQ++sO18fTW8+GF4+RNQvz7l8dQ9eK8tSeFi3ZakcLFup6dIPB6PBx1CmaO0tJRYLEZhYSHl5eVBx5EkSZKk1IvHYeUf4JUvQ+PmtvN5g6DkThjykdRnkyRJkiQpg7izW5IkSZKkzhSJwBFXvr3L+wNt5+vXwosfhZc+BvXrUp9PkiRJkqQMYbNbkpRSsViMWCwWdAxJUgdYs6WDdMhQKHsMTv4D5BS0nV/9UOK7vFc/nPJoykzWbUkKF+u2JIWLdTs92eyWJKVUdXU11dXVQceQJHWANVvqBJEIHDERzl8EhRe3nd+5Dl4aDy9OcJe3Dpp1W5LCxbotSeFi3U5PNrslSZIkSepq0cNg7DQofRBy+rWdXzMVnjoeVk9NfTZJkiRJkkLKZrckSZIkSakQicCwyxPf5V34wbbzO9fDSxPgxfGJ7/WWJEmSJEl7ZbNbkiRJUrLG7bD4VgZvupPBm+6ExbcmxiR1juhhMPYfcMqfIad/2/k1Dyd2ea96COLx1OeTJEmSJCkksoMOIEmSJCnNNO2Ayu9S+M7rGuDoayE7P7hMUqaJRODwj8Oh50LFNfDWI8nzOzfAyx+D1VOg5A6IDg4kpiRJkiRJ6cyd3ZKklCooKKCgoCDoGJIkSekhWghj/g6n/AVyB7Sdf+vvMGMkrPqLu7y1T95rS1K4WLclKVys2+kpEo/7r2V1ntLSUmKxGIWFhZSXlwcdR5IkSQeifh1MH5Q8dsFayBsYTB6pu6irhopJiQZ3ew77EJTcmWiQS5IkSZIkd3ZLkiRJkpQWooNhzMNw6kOQe2jb+bcegadGwso/u8tbkiRJkiRsdkuSUqyqqoqqqqqgY0iSJKWnSASGToDzF8KQS9vON2yE8sthzoeh7q3U51Na815bksLFui1J4WLdTk82uyVJKVVTU0NNTU3QMSRJktJb3iAYMxVOnQK57XyFQGza27u8H3SXt1p4ry1J4WLdlqRwsW6nJ5vdkiRJkiSlq6HjE7u8h05oO9ewCconwpwPQu2a1GeTJEmSJClgNrslSZIkSUpneQMT3+N96tQ97PJ+DGaMhDf/4C5vSZIkSVK3YrNbkiRJkqQwGHopnL8Ihn6s7VxDDcy9EmZfDLWrUx5NkiRJkqQg2OyWJEmSJCks8g6FU/8CY/6W+F7v3VX/M/Fd3lX3u8tbkiRJkpTxsoMOIEnqXgYPHhx0BEmSpPAb8hE4dBy88iVY9efkucbNMO/TsGYqjP4dHDI0mIxKOe+1JSlcrNuSFC7W7fRks1uSlFKFhYVBR5AkScoMuQPglD/BkPFQ8QWor06er34iscv7hP+FIz4FkUggMZU63mtLUrhYtyUpXKzb6cnHmEuSJEmSFGZDPgTnL4TDr2g717gZ5l0Fsy6EHStTHk2SJEmSpK5ks1uSlFKVlZVUVlYGHUOSJCmz5A6AU/4IY6dBXju7DdY+CTNGwRv3+l3eGcx7bUkKF+u2JIWLdTs92eyWJKVUXV0ddXV1QceQJO1VBHIPpTGrH41Z/SD30MSYpPR32CWJXd7DJrada9wC8z8Ds94PO95MfTZ1Oe+1JSlcrNuSFC7W7fRks1uSJElSsrxD4cJ1LCx6moVFT8OF6xJjksIhtz+U/gHGPgrRw9rOr/3327u873aXtyRJkiQp1Gx2S5IkSZKUiQ67GM5bCMOubDvXuBXmfw5eeB/sqEp9NkmSJEmSOoHNbkmSJEmSMlVuPyi9H8oeh+iQtvPr/g9mnABv/M5d3pIkSZKk0LHZLUmSJElSpiv8QGKX9xGfajvXuBXmfx5eeC9sfyPVySRJkiRJOmDZQQeQJHUvRUVFQUeQJHWQNVvKMLkFcPJ9MHQCzPss1K1Onl/3H3j6BBh5Oxz5OYj4+/FhY92WpHCxbktSuFi301MkHvc5Zeo8paWlxGIxCgsLKS8vDzqOJEmSJKk9DZthwVfhzd+3P3/oeXDSPZB/VGpzSZIkSZK0H9zZLUmSJClZUy1U7dYAK7oKehwSTB5JnS+nL5x8LwwdD/M/C7WrkufXz0h8l/fI2+CoL7jLW5IkSZKUlmx2S5JSqqKiAoCSkpKAk0iS9qhxG7xyXfLY0Ak2u6VMNPj9cN6r8OqNUHVP8lzTdnjlWlgzFU66F/KPDiajOsx7bUkKF+u2JIWLdTs9+avZkiRJkiR1Zzl94aS74fR/wSHD2s6vfyaxy/u1X0O8OeXxJEmSJEnaE5vdkiRJkiQJBr03scv7yM+1nWvaAa98EZ47D7avSH02SZIkSZLaYbNbkiRJkiQl5PSB0b+F0/8NhxzRdn7DszDjRFjxK3d5S5IkSZIC53d278XOnTt59NFHmTZtGpWVlaxfv56+ffsybNgwLrzwQiZMmED//v079TObmpqorKykoqKi5c/ixYtpaGgA4LTTTuPhhx8+4PefOXMmU6dOZe7cucRiMfLy8jjssMMYN24cH//4xxk+fHhnLUWSJEmSFFaD3gPnLYCFX4c37kqea9oBC7709nd5/x56+e9ISZIkSVIwbHbvwfLly5k0aRILFy5MGl+7di1r166lvLycO++8k8mTJ3P++ed3ymc++eSTXHfdddTW1nbK+7W2detWbrrpJh599NGk8draWmpqali8eDH33nsvN9xwA1/84hc7/fMlSZIkSSGT0wdG3wlDL4W5V0NtVfL8hpnw9Ilw/I/g6C9CxIfHSZIkSZJSy2Z3O9asWcNll11GLBYDIBKJUFZWRlFRERs2bGDmzJnU1dWxfv16rr76ah588EHOPPPMg/7czZs3d0mju6Ghgauvvprnn3++ZWzEiBGMGjWK+vp6XnzxRaqrq2loaODHP/4xjY2NXH/99Z2eQ5IAiouLg44gSZKk/THw/MQu70Vfh9fvTJ5rqoUFX4E1D7+9y/vYQCIqwXttSQoX67YkhYt1Oz3Z7G7Hdddd19LoPvzww/n973/PyJEjW+Y3btzINddcw3PPPUdDQwOf//zneeGFF+jbt2+nfP7AgQMpKSlh9OjRlJSU8Mwzz3Dvvfce8Pv9/Oc/b2l0R6NRJk+ezAc/+MGW+Z07d3Lbbbdx552JH1r87Gc/o6ysjNNOO+3gFiJJ7YhGo0FHkCRJ0v7K6Q0ld8CQS2He1bDjjeT5Dc/B0yVw3A/gmC9BpEcgMbs777UlKVys25IULtbt9OQzxnbz1FNPMWfOHAByc3O5//77kxrdAP379+e+++6jqKgIgJqaGu64446D/uxzzz2XF198kfnz5/PAAw9w/fXXc9555x1UE339+vX87ne/a3l96623JjW6IbHOb33rW1xyySUAxONxfvSjHx3wZ0rS3tTV1VFXVxd0DEmSJB2IgecldnkfdW3buaZaePWrMPNs2LY09dnkvbYkhYx1W5LCxbqdnmx27+b+++9vOR4/fjzHHXdcu+f17NmTG2+8seX1gw8+SGNj40F99qBBgxg6dOhBvcfupk6dyo4dOwA4+uijueKKK/Z47re+9S2yshL/S5SXl/Pqq692ahZJAqisrKSysjLoGJIkSTpQ2b2g5NdwxtPQ86i28xtfgBklsHwyxJtSn68b815bksLFui1J4WLdTk82u1vZvn170vdaT5gwYa/nX3jhheTn5wOJ3d2zZ8/u0nwH4sknn2w5njBhApFIZI/nDh06lDPOOKPl9fTp07s0myRJkiQpxAaeA+e9Akdd13auuQ5evQFmngVb/WGQJEmSJKlr2Oxu5eWXX6a+vh5I7NwePXr0Xs+PRqOUlpa2vG7dKE8HdXV1zJ07t+V1R76D+/TTT285Trf1SJIkSZLSTHYvKPkVnPkM9Dy67fzGWYnv8l72U3d5S5IkSZI6nc3uVpYtW9ZyPGLECLKzs/d5zQknnNByvHz58i7JdaBWrFhBc3MzAJFIhFGjRu3zmtbraf3fQ5IkSZKkPTp0XGKX99FfajvXXA8Lvwb/PRO2Lkl9NkmSJElSxrLZ3cqKFStajg8//PAOXTNkyJCW43Rsdr/j0EMPJRqN7vOa1t8ZXlNTw4YNG7okmyRJkiQpw2Tnw4m/gDOfhfxj2s5vmg1Pj4Zlt7nLW5IkSZLUKfa9dbkb2bRpU8vxwIEDO3TNoEGDWo5ramo6O9JBab2eQw89tEPX7L7uTZs2MWDAgP3+7ObmZtasWbPXc1r/ooAkSZIkKUMcejac+wos/n+w4hdAfNdccz0s/Dqs+RucdB/0OT6wmJIkSZKk8LPZ3cr27dtbjjuyC3r381pfnw527NjRcnwg69n9PfbH2rVrOfXUU/d6zhNPPNFmrKSkBEj84kBVVVW7+YqLiwGIxWJUV1e3OaegoICioiIAqqqq2v0lhMGDB1NYWAhAZWUldXV1bc4pKiqioKAAgIqKinbXUFxcTDQapa6ujsrKynbPcU2uyTUlr+kdu68tzGvKxL8n1+SaXJNr4qj5yWuqzaEgj3CvaTcZ8ffkmlxTWq/pU+QfVsKwdd8hr/HN5As2vUjzjNFU97uGtX0/CZHskKwpWbr9Pb3zWZm0pkz8e3JNrsk1uabd1/ROtkxa0ztck2tyTa7JNbmm9tbU0b5lR/gY81bq6+tbjnNycjp0TW5ubstxe3+5QWqdp3XOvcnLy9vje0iSJEmStD+2R0+icuhDrO0zkTiRpLksGjhs0y85ds2V5O1Mr68FkyRJkiSFQyQej8f3fVr3MHHiRGbMmAHAtddey80337zPa2bMmMHEiRMByM/PZ+nSpZ2e62c/+xmTJ08G4LTTTuPhhx/u0HV33nkn//M//wPASSedxOOPP77Pa2praxk+fHjL6+nTp3PiiSd2OGtpaSmxWIxBgwbxz3/+c6/n+hhzqXt65zfDdt/pLUlKP9ZsSZ1qwwsw79OwrZ1/N2flwohbYfjXIMuH0B0o67YkhYt1W5LCxbqdnvwXZCv5+fktxx3d0dz6vNbXp4OePXu2HB/IenZ/j/2RlZVlM1tSu955nIo3BJKU/qzZkjrVgNPh3Pmw+Nuw/Gckf5f3Tlh0c+K7vE++H/qMCihkuFm3JSlcrNuSFC7W7fTkY8xb6devX8vxunXrOnTN2rVrW47T7X/u1utZv359h67Zfd2t30OSJEmSpIPS4xAYdTuc/Tz0Km47X1MOT58MlT+A5obU55MkSZIkhYrN7laOOeaYluNVq1Z16Jo1a9a0HLd+/Hc6aL2e9evXd2h39+rVq1uOCwoKGDBgQJdkkyRJkiR1Y/1Pg3PnJR5bvvuPJuINsPhb8GwZbH4lkHiSJEmSpHCw2d3Kscce23K8ZMkSGhsb93nNggULWo7TsdmdlZX4K47H4yxcuHCf17ReT+v/HpIkSepGmuph9VT6bv83fbf/G1ZPTYxJUmfqcQiMuu3tXd4j2s5vngvPnAJLvu8ub0mSJElSu2x2t3LKKaeQl5cHwI4dO6ioqNjr+fX19cydO7fl9RlnnNGl+fZXNBrl5JNPbnk9a9asfV4ze/bsluN0W48kSZJSpHELvDSBI9fexJFrb4KXJiTGJKkr9C9L7PI+9uu0u8t7ybfh2bGwee//RpckSZIkdT82u1vJz89PavBOmTJlr+dPnz6dbdu2AYlHfpeVlXVpvgPx/ve/v+V4X+tZvXo1zz33XLvXSlJniUajRKPRoGNIkiQpnfSIwsgfw7hZ0Pu4tvOb5729y/t77vLeC++1JSlcrNuSFC7W7fRks3s3V155Zcvx1KlTqaysbPe82tpabr/99pbXV1xxBdnZ2V2eb3+NHz+enj17ArBixQr+/Oc/7/HcH/7whzQ1NQFQWlrKCSeckJKMkrqX4uJiiouLg44hSZKkdNRvDJwzF971Tdru8m6EJd+BZ8dAzfwg0qU977UlKVys25IULtbt9GSzezfvfve7GTt2LJB4TPmVV17JokWLks7ZuHEjV111FW+88QaQ2NU9adKkdt9v5cqVDB06tOXPQw891KX5d3fooYfyuc99ruX1LbfcwqOPPpp0TkNDAz/84Q955JFHWsa++c1vpiqiJEmSJEm79IjC8T+EcbOh98i285vnw7OnwuJboXlnqtNJkiRJktJIJB6Px4MOkW7WrFnDRRddRHV1NQCRSISysjKOPPJINmzYwMyZM6mtrQUgOzubBx98kLPOOqvd91q5cmXS480nT57MZZddtsfPnjhxIrFYLGls3bp1rFu3DoCePXty5JFHtrnuj3/8I4WFhe2+Z0NDA5dffjnPP/98y9hxxx3HqFGjqK+vZ86cOS1rBbjxxhu5/vrr95hxb0pLS4nFYhQWFlJeXn5A7yEps71T4/ZUsyRJaaB+HUwflDx2wVrIGxhMHkndV1M9VH4Plv0E4k1t5/ucCCffDwUnpTxaOvJeW5LCxbotSeFi3U5PXfbc7dmzZye9bt3w3X3uYHTF92QPGTKEKVOmMGnSJBYuXEg8HmfWrFnMmjUr6bwBAwYwefLkPTa6D8TSpUtZtWrVHud37NjRZqc5JBrae5KTk8M999zDTTfdxGOPPQbA4sWLWbx4cZvzvvrVr/KlL33pANNL0r6988s13hBIkiRpn3rkwfE/gMM+DPM+DVteTZ7f8krisebv+iYUfwuycoPJmSa815akcLFuS1K4WLfTU5c1uy+99FIikQiQ2Bn95ptvtjt3MHZ/3840fPhwHn/8caZNm8a0adOorKxk/fr19OnThyOOOIILL7yQyy67jP79+3fJ53e2Pn36cNddd/GJT3yCqVOnMnfuXKqrq8nJyWHIkCGMGzeOj3/84xx77LFBR5UkSZIkKVm/U2Dcy1D5P7DsR8m7vOONUPl9eOsROPk+KCgNLKYkSZIkKbW6rNkNsLcnpIfh6em5ubmMHz+e8ePHH/B7DBs2jNWrV3f4/Dlz5hzwZ3XE2Wefzdlnn92lnyFJkiRJUqfrkQfHfx+GfBjmfgq2LEie37IAnh0Lx34Dim9JnC9JkiRJymhd1uze2+PFu+LR45IkSZIkqRsoOBnOeRkqfwBLf5jY2f2OeBMs/QHEpsFJ9yV2hEuSJEmSMlaXNbsffvjhA5qTJEmSJEnaq6xcOO67cNiHYO6nYUtF8vyWV+G/ZXDs16H42+7yliRJkqQMlRV0AElS91JQUEBBQUHQMSRJkpQJCk6Cc16EEbdCZLff5483JXZ+P3MybHopkHip5r22JIWLdVuSwsW6nZ4i8TB8efZ+mj9/PsuWLQM4qO/b1v4rLS0lFotRWFhIeXl50HEkSZJ0IOrXwfRByWMXrIW8gcHkkaSOqJn/9nd5V7QzmQXH3gQjvgM9oikOJkmSJEnqKhm5s/vhhx/m+uuv54Ybbgg6iiRJkiRJSoWC0XDOSzDiu213edMMy36c2OW9cU4Q6SRJkiRJXSAjm93vyMBN65IUelVVVVRVVQUdQ5IkSZkoKwdGfBvOeRn6ntR2futi+O/psPDr0FSX+nxdzHttSQoX67YkhYt1Oz1ldLNbkpR+ampqqKmpCTqGJEmSMlnfEhg3B477PkRydptshmW3wdMnwcbZgcTrKt5rS1K4WLclKVys2+nJZrckSZKkZLkD4IK1vHrEDF49Ykbi+7pzBwSdSpL2T1YOFH8LzimHvie3nd+2BP57Brx6EzTVpj6fJEmSJOmg2eyWJEmSlCySBXkDaerRn6Ye/SFvYGJMksKo7wkwbjYc94P2d3kvv/3tXd6zAoknSZIkSTpw/sRKkiRJkiRltqwcKL4Zzp0LBae0nd9W+fYu7xvd5S1JkiRJIWKzW5IkSZIkdQ99RsHZs+D4H0JW7m6TcVj+M3h6NGx4Poh0kiRJkqT9lB10AElS9zJ48OCgI0iSOsiaLSkjZWXDu74JhZfA3E9DzUvJ89uWwsyz4JivwHH/A9k9A4l5IKzbkhQu1m1JChfrdnqy2S1JSqnCwsKgI0iSOsiaLSmj9RkJZ7+Q2M295NvQvLPVZBxW/C/EHoOT74MBZwYWc39YtyUpXKzbkhQu1u305GPMJUmSJCVr3gnrnkn+k9QEkqQMkZUN7/o6nDMP+o1pO799Ocw8G175CjTuSHk8SZIkSdLe2eyWJKVUZWUllZWVQceQJO1Nw2Z4/tzkPw2bg04lSV2nz/Fw1vMw8jbIytttMg6v/QKePhHWzwwkXkd5ry1J4WLdlqRwsW6nJ5vdkqSUqquro66uLugYkiRJUrKsbDj2a3DufOhX1nZ++wp4bhy88mVo3J7yeB3hvbYkhYt1W5LCxbqdnmx2S5IkSZIkvaP3CDj7ORj5U8iK7jYZh9d+CTNOhPXPBhJPkiRJkrSLzW5JkiRJkqTWIj3g2BsSu7z7n9Z2fsdr8Nw5UPFFaNyW6nSSJEmSpLfZ7JYkSZIkSWpP72I4ayaM+lk7u7yB13+d2OW97unUZ5MkSZIk2eyWJEmSJEnao0gPGP5VOK8C+p/Rdn7H6/D8eVBxrbu8JUmSJCnFsoMOIEnqXoqKioKOIEmSJO2/Xu+Cs56FFb+CxTdDU23y/Ot3QPUTcNK9MPC8QCJ6ry1J4WLdlqRwsW6np0g8Ho8HHUKZo7S0lFgsRmFhIeXl5UHHkSRJ0oGoXwfTByWPXbAW8gYGk0eS0s22ZTDvKtjwXPvzR10Dx/8EcnqnNpckSZIkdTNptbO7traWxYsXs2HDBrZv305+fj79+/fn+OOP55BDDgk6niRJkiRJEvQ6Fs58Fl77NSz6Rju7vO+E2BNw8r0w8PxgMkqSJElSNxB4s7upqYmHH36YP//5z1RUVNDU1NTmnB49elBSUsInPvEJPvrRj5KdHXhsSdIBqqioAKCkpCTgJJIkSdJBiGTBMV+CwRfCvKthw3+T52ur4Pl3w5Gfh5G3QU6fLo/kvbYkhYt1W5LCxbqdnrKC/PBFixbx/ve/nxtvvJG5c+fS2NhIPB5v86exsZG5c+dy44038v73v59XX301yNiSJEmSJEkJvYbDmU/DCb+EHj3bzr/xW5hxAqz9v9RnkyRJkqQMF1izu7y8nEsvvZQlS5a0NLUB8vPzGT58OCeeeCLDhw+nV69eAC3zS5Ys4dJLL/X7oCVJkiRJUnqIZMExX4TzXoEB49rO174JL7wX5n0OGrakPp8kSZIkZahAnge+bds2Pv/5z7NlS+IfeHl5eVx55ZWMHz+e4447rs35S5YsYerUqdx///3s3LmTbdu28YUvfIGnn366pRkuSZIkSZIUqPxj4MwZie/sXvh1aNqePF91N6x9EkbfDYPfF0xGSZIkScoggezsvv/++4nFYkQiEQ477DCmT5/Ot7/97XYb3QAjRozglltu4cknn+Swww4DIBaL8cADD6QytiRJkiRJ0t5FsuDoaxO7vA89p+187UqY9X6Y9xlo2JzyeJIkSZKUSQJpdj/55JMtx3feeSfvete7OnTdscceyx133NHy+oknnuj0bJIkSZIkSQct/2g44ykouQN65Ledr7oXZoyC6ifbzkmSJEmSOiQSf+fLsFNo5MiRbNmyhZKSEh5//PH9vv6iiy5i/vz59O3bl4ULF3ZBQh2o0tJSYrEYhYWFfq+6pHbV1dUBEI1GA04iSdqj5kbYVkl9fT2Q+NohehVDViDfgiRJ4bf99cRO7vUz2p8/4tMwajLkFhzUx3ivLUnhYt2WpHCxbqenQHZ279y5E0g8nvxAFBcXA9DQ0NBpmSRJqRGNRr0ZkKR0l5UNfUaSN/Bk8gaeDH1G2uiWpIORfxSc8R8ouQuye7Wdf/O+xC7v2ME9wc57bUkKF+u2JIWLdTs9BdLsLiwsBHY1vffXO03uwYMHd1omSVJq1NXVtfwGnCQpvVmzJakTRSJw1Ofh3AUw8Py283WrYfYHYO6nYWfNAX2EdVuSwsW6LUnhYt1OT4E0u8vKyojH48ybN++Arp83bx6RSISxY8d2cjJJUlerrKyksrIy6BiSpA6wZktSF8g/Ek7/Pxj9W8ju3Xb+zfthxkiI/XO/39q6LUnhYt2WpHCxbqenQJrdV1xxBVlZWbzxxhtMmzZtv66dNm0ar7/+OpFIhMsvv7yLEkqSJEmSJHWRSASO/Byc9yoMfE/b+bo1MPsiKL8Sdm5KfT5JkiRJColAmt0lJSV8+ctfJh6Pc8MNN/D444936LonnniCG264AYAvfelLnHTSSV0ZU5IkSZIkqev0PAJO/xeMvrv9Xd4r/5DY5f3WY6nPJkmSJEkhEEizG+CGG27ge9/7Hs3NzVxzzTVceuml/PWvf2XZsmXs2LGDeDzOjh07WLZsGQ899BATJkzg85//PPF4nO9973vceOONQUWXJEmSMltzI2xZSN7O5eTtXA5bFibGJEmdLxKBIz+T2OU96H1t5+vegjmXQPknYefG1OeTJEmSpDQWicfj8VR/6LBhw5Jex+NxIpHIPq/r6HkAkUiEN99884Dy6cCVlpYSi8UoLCykvLw86DiS0lBFRQWQeMqHJClN1a+D6YOSxy5YC3kDg8kjSd1FPA5v3gcLrofGLW3n8woT3/V92CXJ41sWwRt3sX31TLLiOzik10AoOBmO/AL0OT412SVJ+82fkUhSuFi301MgO7t376+3bmDH4/E2fzp63p6ukyRJkiRJSnuRCBRdBecvhEHvbztfH4M5H4SXr4CdG2DTSzDznMSjzl/7Ffn18zlk51LY+Dy89qvE+MxzEudJkiRJUgYKZGf34Ycf3uWfEYlEWLlyZZd/jpK5s1uSJCkDuLNbkoIXj8Ob97+9y3tz2/nsAmiuheb6fb9Xj54w5mEYfEFnp5QkSZKkQGUH8aGrVq0K4mMlSZIkSZLCIRKBok/DoPfA/M9D9RPJ8401HX+vph3w4qVw5jPQ79TOTClJkiRJgQrkMeaSpO6rpqaGmpqaoGNIkiRJ4XDI4VD2OJx8P2T3PfD3adoBC2/qtFiSpIPnz0gkKVys2+nJZrckKaWqqqqoqqoKOoYkSZIUHpEIHHFl4ru8B5x94O+z/hnYurjTYkmSDo4/I5GkcLFupyeb3ZIkSZIkSWFwyFDoc+LBvcfrd3ZOFkmSJElKAza7JUmSJEmSwmLzvGCvlyRJkqQ0YrNbkiRJkiQpLBq3Htz1DQd5vSRJkiSlEZvdkiRJkiRJYZHd++CuzznI6yVJkiQpjdjsliSlVDQaJRqNBh1DkiRJCqeCkw/u+j6jOyWGJOng+TMSSQoX63Z6yg46gCSpeykuLg46giRJkhReR34BXvvVgV+/dQnUVUN0cOdlkiQdEH9GIknhYt1OT+7sliRJkiRJCos+x8OAcQd+/fr/wIyRsOqvEI93Xi5JkiRJCoDNbklSSsViMWKxWNAxJEmSpPAadTv06Hng1+/cAC9/HF78KNR5by5JQfFnJJIULtbt9GSzW5KUUtXV1VRXVwcdQ5IkSQqvfqfCmIc73vDOyoPsPm3H3/oHPDUSVv7ZXd6SFAB/RiJJ4WLdTk82uyVJkiQly+kLZzzN8sK7WV54N5zxdGJMkpQ+Bl8AZz4Dh56z9/MOPQfOmgnvWQZDLm0737ARyi+HOR+Gure6IKgkSZIkdZ3soANIkiRJSjNZuTDwHLav6Zd4PbAk2DySpPb1OxXOfBq2LII37mLb6ufoEd/OIb0HQd+T4KhroPdxu84fMxVWT4WKSbBzffJ7xabBU/+FE38Jh18OkUhq1yJJkiRJB8BmtyRJkiRJUpj1OR5O/CUr4hUAlJTs5ZeUho5P7PZ+5TpYPSV5rmETlE9MjJfcBYcM6brMkiRJktQJfIy5JEmSJElSd5I3EE59CE6dCrkD287HHoMZI+HNP/hd3pIkSZLSms1uSVJKFRQUUFBQEHQMSVIHWLMlKVz2u24PvRTOXwRDP9Z2rqEG5l4Jsy+B2jWdFVGS1Ir325IULtbt9BSJx/0VXXWe0tJSYrEYhYWFlJeXBx1HkiRJkiR1xJq/Q8U1UL+27VxOAZzwcxj2Sb/LW5IkSVJacWe3JEmSpGTxZqhfl/wn3hx0KklSVxrykcQu78M/0XauoQbmfgpmXwS1q1OdTJIkSZL2yGa3JCmlqqqqqKqqCjqGJGlvdm6A6YOS/+zcEHQqSdI+HPS9du4AOOVPMOYfkDe47Xz1E/DUSKi6z+/ylqRO4M9IJClcrNvpyWa3JCmlampqqKmpCTqGJEmSlHE67V57yIfg/IVw+OVt5xo3w7yrYNaFULvq4D9Lkroxf0YiSeFi3U5PNrslSZIkSZKULHcAnPIgjH0E8grbzq99MrHL+4173eUtSZIkKTA2uyVJkiRJktS+wz6Y2OU9bGLbucYtMP8zMOv9sOPN1GeTJEmS1O3Z7JYkSZIkSdKe5faH0j/A2Echeljb+bX/hhmj4I173OUtSZIkKaVsdkuSJEmSJGnfDrsYzlsIw65sO9e4FeZ/Fl54n7u8JUmSJKWMzW5JUkoNHjyYwYMHBx1DkiRJyjgpudfO7Qel90PZ4xAd0nZ+3f+9vcv7d+7ylqR98GckkhQu1u30ZLNbkpRShYWFFBYWBh1DkiRJyjgpvdcu/EBil/cRn2o717gV5n8eXngv7KhKTR5JCiF/RiJJ4WLdTk82uyVJkiRJkrT/cgvg5Pug7J8QHdp2ft1/Eru8X7/LXd6SJEmSuoTNbklSSlVWVlJZWRl0DEmSJCnjBHavXXghnPcqHHFV27nGbVBxDTz/btj+euqzSVIa82ckkhQu1u30ZLNbkpRSdXV11NXVBR1DkiRJyjiB3mvnFsDJ98Jp0+GQw9vOr58BM06A1+6AeHPK40lSOvJnJJIULtbt9GSzW5IkSZIkSZ1j8PsTu7yLPtN2rmk7vHKtu7wlSZIkdRqb3ZIkSZIkSeo8OX3hpLvhtCfhkGFt59c//fYu79+4y1uSJEnSQbHZLUmSJEmSpM43+H2JXd5Hfq7tXNN2eOU6eO482L4i9dkkSZIkZQSb3ZIkSZIkSeoaOX1g9G/h9H/DIUe0nd/wLMw4EVb8yl3ekiRJkvZbdtABJEndS1FRUdARJEn7kt0HTp3C9u3bAcjPz0+MSZLSWlrfaw96D5y3ABbeBG/8NnmuaQcs+BKseRhOuhd6DQ8moySlWFrXbUlSG9bt9BSJx+PxoEMoc5SWlhKLxSgsLKS8vDzoOJIkSZIkKd2s/Q/M+wzUVrWd63EIHP8jOPqLEPGBhJIkSZL2zn81SJIkSZIkKXUGvTuxy/uoa9rONdXCgq/Ac+Ng27KUR5MkSZIULja7JUkpVVFRQUVFRdAxJEkdYM2WpHAJVd3O6Q0ld8AZT0HPI9vOb3gOni6B5T+HeFOq00lSSoSqbkuSrNtpyma3JEmSJEmSgjHwvLd3eV/bdq6pFl69HmaOg21LU59NkiRJUtqz2S1JkiRJkqTgZPeCkl/DGU9Dz6Pazm98HmaUwPLJ7vKWJEmSlMRmtyRJkiRJkoI38Bw47xU46rq2c8118OoNMPMs2FqZ8miSJEmS0pPNbkmSJEnJ6tfBIxFKXh9Nyeuj4ZFIYkySpK6W3QtKfgVnPgM9j247v3EWPD0alv3UXd6SJEmSbHZLkiRJkiQpzRw6LrHL++gvtZ1rroOFX4P/nglbl6Q+myRJkqS0kR10AElS91JcXBx0BEmSJCkjZdy9dnY+nPgLGPJRmHcVbF+RPL9pdmKX93Hfg+E3QKRHIDEl6UBlXN2WpAxn3U5P7uyWJKVUNBolGo0GHUOSJEnKOBl7r33o2XDuK3DMV4BI8lxzPSz8Ovz3DNi6OIh0knTAMrZuS1KGsm6nJ5vdkqSUqquro66uLugYkiRJUsbJ6Hvt7J5wwv/CWf+F/GPbzm+aA0+fBEt/As2Nqc8nSQcgo+u2JGUg63Z6stktSUqpyspKKisrg44hSZIkZZxuca894Ew4dz4c81Xa3eW96Bvw39Nhy8Ig0knSfukWdVuSMoh1Oz3Z7JYkSZIkSVJ4ZPeEE34GZz0Hvd7Vdr7mJXjmZFj6I3d5S5IkSRnOZrckSZIkSZLCZ8DpiV3ew2+g7S7vnbDoZvjvabDl1SDSSZIkSUoBm92SJEmSJEkKpx6HwKifvr3Lu7jtfM3L8EwpVP4AmhtSn0+SJElSl7LZLUmSJEmSpHAbcDqcOw+Gf402P+5q3gmLvwXPlsHmBYHEkyRJktQ1bHZLkiRJkiQp/HocAqNug7Ofh14j2s5vnvv2Lu//cZe3JEmSlCEi8Xg8HnQIZY7S0lJisRiFhYWUl5cHHUeSJEkHon4dTB+UPHbBWsgbGEweSZL2V1MdLLkVlt0ONLed73sSnHw/9D0xxcEkSZIkdSZ3dkuSJEmSJCmz9IjCyB/DuFnQ+7i285vnwTOnwJLvuctbkiRJCjGb3ZKklKqpqaGmpiboGJIkSVLG8V67Hf3GwDlz4dhv0ObHYPEGWPIdeHYM1MwPIp2kbs66LUnhYt1OTza7JUkpVVVVRVVVVdAxJEmSpIzjvfYe9IjCyB/BuNnQ+/i285vnw7OnwuJboXlnqtNJ6sas25IULtbt9JQddABJkiRJaSa7F5z4a1atXgXA4UMPT4xJkhRm/U5N7PKu/B4s+wnEm3bNxRuh8rvw1iNw8n1QcFJgMSVJkiR1nDu7JUmSJCXrcQgcfS0b+nyMDX0+BkdfmxiTJCnseuTB8T+As2dDn1Ft57dUJB5rvvjb7vKWJEmSQsBmtyRJkiRJkrqXfqfAuJfhXd+CSI/kuXgjVH4fnjkFauYGk0+SJElSh9jsliRJkiRJUvfTIw+O/z6MmwN9Tmg7v2VBYpf3olugqT71+SRJkiTtk81uSVJKRaNRotFo0DEkSR1gzZakcLFuH6CCUjjnZSj+NkSyk+fiTbD0f+DZU2DTy8Hkk5SxrNuSFC7W7fQUicfj8aBDKHOUlpYSi8UoLCykvLw86DiSJEmSJEkdVzMP5n4KtrzSdi7SA479eqIp3iMv5dEkSZIkteXObkmSJEmSJAmg4CQ45yUo/s4ednn/EJ4pdZe3JEmSlCZsdkuSUioWixGLxYKOIUnam/r18MRAmh8fQPPjA+CJgYkxSVJa8167k2TlwnG3wriXoE9J2/mtC+G/ZbDwm9BUl/J4kjKHdVuSwsW6nZ5sdkuSUqq6uprq6uqgY0iS9ioOO9eT1biRrMaNsHN9YkySlNa81+5kBaMTu7xHfLf9Xd7Lfvz2Lu8XA4knKfys25IULtbt9GSzW5IkSZIkSWpPVg6M+Dac8zL0Pant/NZF8OxpsPAb7vKWJEmSAmCzW5IkSZIkSdqbviUwbg6M+B5EcnabbIZlP4GnT4KNcwKJJ0mSJHVXNrslSZIkSZKkfcnKgRG3vL3L++S289uWwH9Ph1dvgqba1OeTJEmSuqHsfZ/Sve3cuZNHH32UadOmUVlZyfr16+nbty/Dhg3jwgsvZMKECfTv3z80n11VVcWUKVOYPXs2y5cvZ8uWLWRlZVFQUMBxxx3HWWedxaWXXsqAAQO6ZE2SJEmSJEmh1vdEGDcblt0GS74L8YZWk82w/HaIPQon3wf9TwsspiRJktQdROLxeDzoEOlq+fLlTJo0iYULF+7xnEMPPZTJkydz/vnnp/VnNzc3c9ttt3HnnXfS2Ni413N79+7NLbfcwuWXX77fuUtLS4nFYhQWFlJeXr7f10vKfFVVVQAUFRUFnESStEf162D6oOSxC9ZC3sBg8kiSOsR77QBseRXmfgpq2vsZSASGfxWO+z70OCTVySSFgHVbksLFup2ebHbvwZo1a7j44ouJxWIARCIRysrKKCoqYsOGDcycOZO6ujoAcnJyePDBBznzzDPT9rNvuukm/vSnP7W8jkajlJSUMGzYMOrr63njjTdYsGBB0jXf+973uPrqq/cru81uSZKkDGCzW5KkjmtuTOzmXnIrNO9sO9/rXXDSfTDg9JRHkyRJkjKdze49+MhHPsKcOXMAOPzww/n973/PyJEjW+Y3btzINddcw3PPPQdAQUEBL7zwAn379k27z37hhRcYP358y+tLLrmE73znOxQWFiadN3fuXL72ta+xZMkSINEQf+655zjssMM6nN1mtyRJUgaw2S1J0v7bshDmfhpqXmpnMgLHfAWO+x/I7pnqZJIkSVLGygo6QDp66qmnWprNubm53H///UnNZoD+/ftz3333tTyqoKamhjvuuCMtP3vKlCktx6NGjeI3v/lNm0Y3wMknn8wf/vAHotEoAHV1dUyfPv2g1yRJrVVVVbU87kWSJElS5/FeO2B9RsLZL8DxP4as3N0m47Dif+Hp0bDhuSDSSUpD1m1JChfrdnqy2d2O+++/v+V4/PjxHHfcce2e17NnT2688caW1w8++OA+vw87iM9evHhxy/Ell1xCVtae/9qHDh3K2LFjW16/9tprHY0uSR1SU1NDTU1N0DEkSZKkjOO9dhrIyoZ3fR3OmQf9xrSd374MZp4NC66Hxh2pzycprVi3JSlcrNvpyWb3brZv387zzz/f8nrChAl7Pf/CCy8kPz8fSPxPPnv27LT77O3bt7ccd+Qx6wUFBS3Hzc3N+zxfkiRJkiRJrfQ5Hs56Hkb+BLLydpuMw4qfw9MlsH5mEOkkSZKkjGGzezcvv/wy9fX1QGL39OjRo/d6fjQapbS0tOV162Z1unz20KFDW46XLl26zxyVlZUtx8cff/w+z5ckSZIkSdJusrLh2Jvg3HnQb2zb+e3L4blx8MqXoXF723lJkiRJ+2SzezfLli1rOR4xYgTZ2dn7vOaEE05oOV6+fHnaffZ73/veluOHHnpor48mnzp1KkuWLAGgX79+XHLJJfvMIEmSJEmSpD3ofRyc/TyMvL39Xd6v/fLtXd7/DSSeJEmSFGY2u3ezYsWKluPDDz+8Q9cMGTKk5fhgmt1d9dmXX345I0aMAGDbtm184AMf4H//939ZvHgx27dvZ+PGjbz88st86Utf4qtf/SoAffr04a677qJPnz4HuhxJkiRJkiQBRHrAsTfCufOh/2lt57evSOzyrvgiNG5LeTxJkiQprPa9dbib2bRpU8vxwIEDO3TNoEGDWo4P5ovpu+qzo9Eof/vb3/jc5z7H888/z5YtW/jpT3/KT3/60zbn5uTk8L73vY9vfOMbDB8+fP8W0EpzczNr1qzZ6zmtG/WSuo/BgwcHHUGStC89ekLxd9i2LfHD9l69eiXGJElpzXvtEOg9As6aCSt+AYv+HzTXJc+//muo/iec9HsYeE4gESWljnVbksLFup2ebHbvZvv2Xd+RFI1GO3RN6/NaX59On11QUMBDDz3Es88+yze/+U3efPPNds874YQTuPjiizn66KM7mLp9a9eu5dRTT93rOU888USbsZKSEiDRuK+qqmozH41GKS4uBiAWi1FdXd3mnIKCAoqKigCoqqpq95cABg8eTGFhIZD4jvK6uro25xQVFVFQUABARUVFu2soLi4mGo1SV1eX9F3nrsk1uaY9r+mdz9n988K8pkz8e3JNrsk1uSb4MOS+fcJOKNrWwNtLCvGakmXG35Nrck2uyTW5plCuafhXeW3H8Qxe/Q3y63fLveN1eP5cOOpaFjRfTnNW2184S8s1kYF/T67JNaVoTe+cn0lreodrck2uyTW5JtfU3po62gftCB9jvpv6+vqW45ycnA5dk5ub23Lc3l9wOnx2Q0MDv/zlL7n22mt588036dmzJ+eccw6XX345l156KaNGjQJg7ty5TJo0iQ9/+MOsW7fuAFciSZIkSZKkvWnIO4rlh/2e1f1voDmy+3d5A6//hnetvpT82pdSH06SJEkKiUg8Ho8HHSKdTJw4kRkzZgBw7bXXcvPNN+/zmhkzZjBx4kQA8vPzWbp0aVp9dm1tLZ/85Cd54YUXALjiiiu4+eab6du3b9J5FRUVfPGLX2z57vCRI0fy2GOPkZfXzj+49qC0tJRYLMagQYP45z//uddzfYy51D2981to7/xGmSQpfVmzJSlcrNshtm0ZzLsKNjzX/vxR18DxP4Gc3qnNJalLWbclKVys2+nJnd27yc/Pbznu6C7t1ue1vj5dPvvWW29taXSPHz+en/zkJ20a3ZB43MGUKVMYMGAAAAsXLuTee+/tcP7WsrKyGDJkyF7/SOqe6urqDuopGJKk1LFmS1K4WLdDrNexcOazcMLPocchbedfvxNmnADrnkp5NEldx7otSeFi3U5PNrt3069fv5bjjj7Ge+3atS3H7zyPPl0++6233uIvf/kLAJFIhK9//et7fb/CwkKuvvrqltcPPfRQh3JIkiRJkiTpIESy4Jgvw7mvwICz2s7XVsHz74b5X4CGranPJ0mSJKUhm927OeaYY1qOV61a1aFr1qxZ03I8fPjwtPrsmTNn0tTU1PL+hx122D7f84wzzmg5Xr58Odu3b+9QFkmSJEmSJB2kXsPhzGfghF9Cj55t59/4LcwYBWv/k/JokiRJUrqx2b2bY489tuV4yZIlNDY27vOaBQsWtBwfTLO7Kz47Fou1HLfeOb43/fv3T3q9dau/LSxJktSt7NwIT42keNVHKF71EXhqZGJMkiSlRiQLjvkinPcKDBjXdr72TXjhPTDvc9CwJfX5JEmSpDRhs3s3p5xyCnl5eQDs2LGDioqKvZ5fX1/P3LlzW1633hWdDp8djUZbjmtqajqUY9OmTUmv2/t+b0mSJGWweBNsXUS04TWiDa/B1kWJMUmSlFr5x8CZM+DEX7e/y7vq7rd3ef879dkkSZKkNGCzezf5+flJTeMpU6bs9fzp06ezbds2IPGd2WVlZWn12UOHDm05Xr58OdXV1fvM8fzzz7ccDx48mEMOOWSf10hSRxUVFVFUVBR0DEmSJCnjeK+doSJZcPS1cN4COPSctvO1K+GF98G8z0LD5pTHk3TgrNuSFC7W7fRks7sdV155Zcvx1KlTqaysbPe82tpabr/99pbXV1xxBdnZ2Wn12aeffjo9evQAIB6Pc9ttt+3189euXcu9997b8nrcuHYelSVJB6GgoICCgoKgY0iSJEkZx3vtDJd/NJzxFJz4G+iR33a+6p7ELu/qJ1OfTdIBsW5LUrhYt9OTze52vPvd72bs2LFA4lHhV155JYsWLUo6Z+PGjVx11VW88cYbQOJ/8EmTJrX7fitXrmTo0KEtfx566KGUfXa/fv0YP358y+u//vWv3HzzzWzZ0vb7nBYsWMBll13G+vXrAcjKyuILX/jCHrNKkiRJkiQphSJZcPSkt3d5n9t2vnYVzLoA5l4NO2tSHk+SJElKtUg8Ho8HHSIdrVmzhosuuqjlsd+RSISysjKOPPJINmzYwMyZM6mtrQUgOzubBx98kLPOOqvd91q5cmXSI8YnT57MZZddlpLPhkRz/EMf+hArVqxoGcvPz2fMmDEMGTKEnTt3smTJEhYsWJB03be+9S2uueaavf1naqO0tJRYLEZhYSHl5eX7da2k7qGiogKAkpKSgJNIkvaofh1MH5Q8dsFayBsYTB5JUod4r93NxJvhjd/Bwq9B47a289GhcNLdMPiC1GeT1CHWbUkKF+t2ejq4Z25nsCFDhjBlyhQmTZrEwoULicfjzJo1i1mzZiWdN2DAACZPnrzXZnPQn92/f38efvhhbrjhBmbMmAHA9u3befrpp9s9v2fPnnznO9/hiiuu6JwFSZIkSZIkqXNFsuCoL8Cg98P8z8C6p5Ln61bDrAvhiE/DqMmQWxBITEmSJKkr2ezei+HDh/P4448zbdo0pk2bRmVlJevXr6dPnz4cccQRXHjhhVx22WX0798/7T970KBB/PGPf6S8vJx//OMfzJ07lzfffJNt27aRnZ1Nv379GDFiBGeddRYTJkzwOwckSZIkSZLCIP9IOP3/oOpuePWGtru837wP1v4LRv8OCj8QSERJkiSpq/gYc3UqH2MuaV981IskhYCPMZekUPJeW+yognmfhXX/1/78sCvhhP+F3H6pzSWpXdZtSQoX63Z6ygo6gCRJkiRJkqRO0LMITn97F3d277bzKx+AGSMh9njqs0mSJEldwGa3JEmSJEmSlCkiETjys3DeqzDovW3n696C2RdD+Sdh58bU55MkSZI6kd/ZLUlKqeLi4qAjSJIkSRnJe20l6XkEnPYkVP0eXv0qNG5Jnl/5R1j7fzD6t3DYJcFklLo567YkhYt1Oz25s1uSlFLRaJRoNBp0DEmSJCnjeK+tNiIROPLqt3d5v7/tfH0M5nwQXr7CXd5SAKzbkhQu1u30ZLNbkpRSdXV11NXVBR1DkiRJyjjea2uPeg6D056Ak34P2X3bzq/6Ezx1PKx5JOXRpO7Mui1J4WLdTk82uyVJKVVZWUllZWXQMSRJkqSM47229ioSgaJPw/mvwuAL287XV8OLH4aXPwE7N6Q+n9QNWbclKVys2+nJZrck/X/27jvMrrLcG/BvUicJSYbUIQFCDxBIgKGE3izAwXoooiB+NhQUxYL9iHpsR0FFxHZU7FIsYEE9EmroCQRIwlATQsKkMqRO6nx/bBgzTMqQTHaZue/r2tdZe71r7f1bkPP4kme/awEArXWrTnY9Pwv6n5EF/c9Idj2/sA8AqHx9dkzG/yU56KqNrPL+7YurvP9Y9GgAAPBK9Sh1AAAAoMz07J+M+15mT5mSJBkyblyJAwEAHaqqKtn53GToq5IHz0vm/rX1+Mp5yb1vTka+JRn73aT3kNLkBACAzbCyGwAAAAC6oj4jk/F/Tg76edKzpu347N8lE8Yks39f9GgAANAemt0AAAAA0FVVVSU7vz05YWoy/NS24yvnJfedltx3ZrJyfvHzAQDAJmh2AwAAAEBX12dEMv6GpO6XSc/t247Pvia5aUwy+7riZwMAgI2oam5ubi51CDqPurq6NDQ0pLa2NpMmTSp1HAAAAABeqabnkgfflzTcsOHxEacn465Ieg8rbi4AAHgZK7sBAAAAgH+r3iE57E9J3a+TnoPajs+59sVV3tck1tEAAFBCmt0AFFVjY2MaGxtLHQOATVnVmNx+XNbcfFTW3HxUcvtxhX0AlDVzbTpUVVWy01uTE6cmO7yx7fiqBYXneN93etI0t+jxoDNQtwEqi7pdnnqUOgAAXcvMmTOTJDU1NaUNAsDGNa9OFt7a+j8WmleXKg0A7WSuzTZRXZsc+odk9u+SKR9IVi9qPT7n98mCW5KxVyQjzyw0yYF2UbcBKou6XZ6s7AYAAAAANq6qKtnxrOTEackOb247vmphcv9Zyb3/mTQ1FD8fAABdlmY3AAAAALB51cOTQ69LDv5d0mtw2/Hn/lh4lves33iWNwAARaHZDQAAAAC0T1VVsuOZhVXeI/6z7fjqRcmktyX3vtkqbwAAtjnNbgAAAADglek9rLDK+5Brkl5D2o4/96fkpn2TWb+2yhsAgG1GsxuAoqqurk51dXWpYwAAQKdjrk1JjDy9sMp75Bltx1Y/n0w6O7nnjUnTc0WPBuVO3QaoLOp2eapqbvbTSjpOXV1dGhoaUltbm0mTJpU6DgAAW2Ll/OTGYa33nTwv6T20NHkAgMow+7pkyvnJqvltx3rWJPtfnux0duFW6AAA0AGs7AYAAAAAtt7I05ITpyYjz2w7troxmfz25O7XJyvmFD0aAACdk2Y3AEXV0NCQhoaGUscAAIBOx1ybstB7aHLI75JDris81/vl5v4lmTAmeebnnuVNl6duA1QWdbs8aXYDUFRz587N3LlzSx0DAAA6HXNtysrI/0xOmJrseFbbsdWNyeR3JHefmqyYXexkUDbUbYDKom6XJ81uAAAAAKDj9R6SHPyb5NA/JL2Htx2f+7fkpjHJzKus8gYAYItodgMAAAAA286INxWe5b3j29qOrXkheeD/JXf/R7Li2dZji6clD12Y3HZUMmFc4f8+dGFhPwAAJOlR6gAAAAAAQCfXa3By8K+SkacnD74vWfmy513OvbGwynv/byX990umXpwsvLXt5yyamDz13WTwscl+30i2P6Q4+QEAKEtWdgMAAAAAxbHDG15c5X1227E1i5MH3pXcdsSGG93rW3hrcsdxhSY5AABdlpXdABRVTU1NqSMAsDndeiUjTsuy5cuTJP369i3sA6CsmWtTMXoNSg7+5YurvM9ru8o7a9v3OWuXJ/eelhx1ixXeVCR1G6CyqNvlqaq5ubm51CHoPOrq6tLQ0JDa2tpMmjSp1HEAAAAAKGerFiUPX5TM+sWWf8aQ45Kjbu6wSAAAVA63MQcAAAAASqPXoKTu58nY7235Zyy4JVkyvcMiAQBQOTS7ASiqmTNnZubMmaWOAUA7qNkAlUXdpqItfXTrzn/6+x2TA4pI3QaoLOp2edLsBqCoGhsb09jYWOoYALSDmg1QWdRtKlrj5K07/4UHOiYHFJG6DVBZ1O3ypNkNAAAAAJTWmiVbd/7qrTwfAICKpNkNAAAAAJRWj/5bd37PrTwfAICK1KPUAQAAgDKz+oXkgXdn1Eu35rq3Jjnwf5OeA0uZCgDozGoOShZN3PLz++7ecVkAAKgYVnYDAACtrVuVzLkuNcv/lZrl/0rmXFfYBwCwrezyvq07f/Y1yVPfS5rXdUweAAAqgpXdABTV8OHDSx0BAAA6JXNtKtqAfZPBxyYLb92y89etSB76QDL72uSgnyb9duvYfLANQg5NPgAAjURJREFUqNsAlUXdLk+a3QAUVW1tbakjAABAp2SuTcXb7xvJHccla5dv+WcsvDWZsH8y5uvJrucnVW5sSflStwEqi7pdnsz2AAAAAIDS2/6Q5NDrku5923d8977JsJPb7l+7PHnog8kdxyfLnuzYjAAAlBXNbgCKqr6+PvX19aWOAQAAnY65Np3C8JOTo25Jhhy36eOGHFc47oi/JUf8X9JnVNtjFt6WTBibPHm5Z3lTltRtgMqibpcntzEHoKiamppKHQEAADolc206je0PSY66OVk8LZnxg+SFB5LVS5Ke/ZOBBya7vj/pv8+/jx/2quSEh5OpFxeOX9/a5cnDH0rmXJcc+NNkuz2Key2wCeo2QGVRt8uTZjcAAAAAUH4G7JuMvbx9x/bsnxzw/WTkacnkdyUrZrYeX3h7cvPYZJ+vJLtf6FneAACdhFkdAAAAANA5DD2xsMp71/Pbjq1dkTxyUXL7McnSx4qfDQCADqfZDQAAAAB0Hj37J+O+lxw5Iem7a9vxRROTCeOSJy5LmtcWPx8AAB1GsxsAAAAA6HyGHp+c8FCy6wfajq1rSh75aGGV95L64mcDAKBDeGY3AEU1atSoUkcAAIBOyVwbNqDHdsm47yYj/jN54F3J8qdajy+6M7n5gGSf/072+HBS1b0UKemi1G2AyqJulycruwEoqpqamtTU1JQ6BgAAdDrm2rAJQ48rrPLe7YNtx9Y1JVM/ltx2VLLk0aJHo+tStwEqi7pdnjS7AQAAAIDOr0e/ZOzlyVG3Jv12bzv+/N2FVd6Pf8OzvAEAKoRmNwBFNWXKlEyZMqXUMQAAoNMx14Z2GnJMcvyUZLcPJalqPbZuZTL14uS2I5Ml00sSj65D3QaoLOp2edLsBgAAWqvqmQw+Nkur67K0ui4ZfGxhHwBAZ9GjXzL22y+u8t6j7fjz9yQ3H5g89vVk3ZqixwMAoH00uwEAgNZ61SRH35Ind/hJntzhJ8nRtxT2AQB0NkOOLqzy3v2ibHCV97RPJrcdkSyeVpJ4AABsmmY3AAAAANB19eib7H9ZcvTtSb8924433pfccmDy2Nes8gYAKDOa3QAAAAAAg49Mjn8w2f0jabvKe1Uy7VPJbYcni6eWIh0AABug2Q0AAAAAkLy4yvvS5Og7ku32ajveeH9yy0FJ/Ves8gYAKANVzc3NzaUOQedRV1eXhoaG1NbWZtKkSaWOA5ShpqamJEl1dXWJkwCwOWo2QGVRt6GDrV2RTP+v5InLkqxrO15Tlxz4s2Tg/kWPRuegbgNUFnW7PFnZDUBRVVdXmwwAVAg1G6CyqNvQwbr3Sfb7RnLMHcl2o9uON05KbqlL6v87Wbe6+PmoeOo2QGVRt8uTZjcARdXU1NTyCzgAytTqJcmUC7Jm8vuyZvL7kikXFPYBUNbMtWEbGXR4cvwDyZ4Xp81fpzavTqZ/Lrn1sOSFh0oSj8qlbgNUFnW7PGl2A1BU9fX1qa+vL3UMADZlXVPy9JXp8cwP0+OZHyZPX1nYB0BZM9eGbah7n2TM15Nj7kz679N2/IUHklsOTh79olXetJu6DVBZ1O3ypNkNAAAAANAegw5Ljpuc7PnJbHCV96OfT249NHlhSkniAQB0NZrdAAAAAADt1b06GfPV5Ni7kv77th1/4cEXV3l/IVm3qujxAAC6Es1uAAAAAIBXavtDk+MmJXt9Kqnq3nqseU3y6CXJLYcmjQ+WIh0AQJeg2Q0AAAAAsCW6Vyf7fiU55u6k/5i244unJLcekkz/vFXeAADbgGY3AAAAAMDW2P7gF1d5f2bDq7zrv5jcckjS+EBp8gEAdFJVzc3NzaUOQedRV1eXhoaG1NbWZtKkSaWOAwDAllg5P7lxWOt9J89Leg8tTR4AgErSOCmZ/I5k8SNtx6q6J3t+Khn92aR776JHAwDobKzsBgAAAADoKDV1hVXeoz+3gVXea5PH/ju59eBCUxwAgK2i2Q1AUTU2NqaxsbHUMQAAoNMx14Yy0q1Xss8Xk2PvTQaMbTu++JHk1sOSaZ9N1q4sfj7KgroNUFnU7fKk2Q1AUc2cOTMzZ84sdQwAAOh0zLWhDNUclBx3XzL6v5KqHq3Hmtcmj305uaUuef7+0uSjpNRtgMqibpcnzW4AAAAAgG2lW69kny+8uMp7XNvxJVOT28Yn0z5tlTcAwCuk2Q0AAAAAsK3VHJgcd2+y9yUbWeX91eSWg5Ln7y1JPACASqTZDQAAAABQDN16JXt/Pjnu/mTgAW3Hl0xLbj08mfrJZG1T0eMBAFQazW4AAAAAgGIaOK5wW/O9v5hU9XzZ4Lrk8a8XVnkvuqck8QAAKoVmNwBFVV1dnerq6lLHAGBTqron/ffNyl57ZGWvPZL++xb2AVDWzLWhwnTrmez9uRdXeR/UdnzJ9OS2I5JHLrbKu5NStwEqi7pdnqqam5ubSx2CzqOuri4NDQ2pra3NpEmTSh0HAAAAAMrfutXJ4/+TPPqFpHl12/Ht9k4O+lkyaHzxswEAlDEruwEAAAAASqlbz2T0Z5LjJm14lffSR5Pbjkwe+XiydkXx8wEAlCnNbgCKqqGhIQ0NDaWOAUA7qNkAlUXdhk5g4P7JsXcn+3w56dbrZYPrkie+mdx8QLLwzlKko4Op2wCVRd0uT5rdABTV3LlzM3fu3FLHAKAd1GyAyqJuQyfRrWcy+tOFVd41B7cdX/pYcvtRycMfTdYsL34+Ooy6DVBZ1O3ypNkNAAAAAFBuBuyXHHNXsu9XN7DKuzl58rIXV3lPLEU6AICyoNkNAAAAAFCOuvVI9vpkctwDyfaHth1f9nhy+9HJwxdZ5Q0AdEma3QAAQGtrliXTL8nw57+f4c9/P5l+SWEfAAClMWDf5OiJyZivJ916v2ywOXny28nN45IFt5ciHQBAyWh2AwAAra1dntR/IbWNP0xt4w+T+i8U9gEAUDrdeiR7Xpwc/0Cy/WFtx5c9kdxxbPLQh/1QEQDoMjS7ASiqmpqa1NTUlDoGAAB0Ouba0EX03yc5ZmIy5n82vMr7qe+8uMr7tpLEo/3UbYDKom6Xp6rm5ubmUoeg86irq0tDQ0Nqa2szadKkUscBAGBLrJyf3Dis9b6T5yW9h5YmDwAAG7bk0WTy/0uev3vD47t9MNn3q0mPfsXNBQBQJFZ2AwAAAABUov57J8fckYz5ZtKtuu34U99NJoxN5t9S9GgAAMWg2Q1AUc2cOTMzZ84sdQwAAOh0zLWhi6rqnuz50eT4B5NBR7QdX/5UMvH4ZMoHkjVLix6PjVO3ASqLul2eNLsBKKrGxsY0NjaWOgYAAHQ65trQxfUfnRx9W7LfZRte5f30915c5X1z8bOxQeo2QGVRt8uTZjcAAAAAQGdQ1T3Z46LkhIeSQUe2HV/+dDLxhGTK+VZ5AwCdgmY3AAAAAEBnst2eydG3Jvt/O+nep+34099PJuyfzJ9Q9GgAAB1JsxsAAAAAoLOp6p7s/qHk+CnJ4KPaji+fkUw8MXnw/cnqJUWPBwDQETS7AQAAAAA6q+32TI66Ndn/O0n3vm3HZ/ygsMp73r+Knw0AYCtpdgNQVMOHD8/w4cNLHQMAADodc21go6q6JbtfWHiW9+Bj2o6vmJnc+erkwfOS1YuLn6+LUrcBKou6XZ56lDoAAF1LbW1tqSMAAECnZK4NbFa/3ZOjbk6evjKZ+olk7fLW4zN+lMz9e3Lg/ybDXl2ajF2Iug1QWdTt8mRlNwAAAABAV1HVLdntA8kJDydDjms7vuKZ5M7XJA+81ypvAKDsaXYDUFT19fWpr68vdQwAAOh0zLWBV6TfbsmRNyVjv5d079d2fOaPkwn7JXP/UfxsXYS6DVBZ1O3ypNkNQFE1NTWlqamp1DEA2KSqpNeQrOm2fdZ02z7pNaSwD4CyZq4NvGJV3ZLdzn9xlffxbcdXzEruOil54N3J6heKn6+TU7cBKou6XZ40uwEAgNZ6D0lOmZ+po27O1FE3J6fML+wDAKBz6rdrcuS/knFXbmSV909eXOV9Y/GzAQBsgmY3AAAAAEBXV9Ut2fX9yQmPJENOaDu+4tnkrlOSye9MVjUWPR4AwIZodgMAAAAAUNBvlxdXef8g6bFd2/FnfpZMGJM0/K3o0QAAXk6zGwAAAACAf6uqSnY9r7DKe+ir2o43zUnu/o9k0juSVc8XPR4AwEt6lDoAAF3LqFGjSh0BgHZSswEqi7oNdLi+o5Ij/pnM/N/kkY8ma5a0Hp/182T+/yUH/Cip/Y/SZKxg6jZAZVG3y1NVc3Nzc6lD0HnU1dWloaEhtbW1mTRpUqnjAAAAAAAdYfkzyYPvSeb9c8PjO7092f/bSa/tixoLAOjarOwGAABaW7simfnT1vtGvTPp3qc0eQAAKL2+OyeH/70wT3zkI8maxa3HZ/2isMp73A+THV5XmowAQJej2Q1AUU2ZMiVJMm7cuBInAWCj1ixNHvpA630jz9DsBihz5trANldVlezyrmTYa15c5f2P1uNNzyX3vD7Z8exk7HeSXoNKk7NCqNsAlUXdLk/dSh0AAAAAAIAK0nen5PAbkwN/kvQY0Hb82V8lN41Jnru++NkAgC5FsxsAAAAAgFemqqrwqJsTpybDT247vrIhueeNyf1vS1YtLHo8AKBr0OwGAAAAAGDL9NkxGf/X5MCfJT0Gth1/9jeFVd5z/lT0aABA56fZDQAAAADAlquqSka948VV3v/Rdnzl3OTeNyX3vzVZuaDo8QCAzqtHqQOUs1WrVuWGG27I9ddfn/r6+ixYsCADBw7MTjvtlFNOOSVnnHFGBg0aVHHfPXv27Pz5z3/Ov/71rzzzzDNZsGBB+vbtm2HDhmW33XbL4YcfnmOOOSZ77rlnB18VAAAAANBp9RmZjP9zMuuXycMfSlY3th5/9rfJ/JuScd9PRry5JBEBgM6lqrm5ubnUIcrRE088kfPPPz9Tp07d6DFDhgzJZZddlhNPPLEivnvVqlX53ve+lyuuuCJNTU2bPHb06NGZMGFCuz/7JXV1dWloaEhtbW0mTZr0is8HOr+X6k91dXWJkwCwUSvnJzcOa73v5HlJ76GlyQNAu5hrA2VlxZzkwfOSuX/Z8PjIM5Ox3+3Sc0x1G6CyqNvlSbN7A+bMmZPXve51aWhoSJJUVVVl/PjxGTVqVBYuXJjbb7+95Q90z54986tf/SpHHXVUWX/3ypUr8+53v7tVA3vo0KE58MADM3To0KxevToNDQ2ZOnVqFi5cqNkNANCVaXYDANARmpuTWb9KHr6w7SrvJOk1NBl3ZTLytKJHAwA6B7cx34APfOADLc3mHXfcMT/96U8zZsyYlvFFixbl/e9/f+64446sXr065513Xu68884MHDiwbL/7Ax/4QEvzetSoUbnkkkvy6le/OlVVVa2Oa25uzsMPP5x77rlnq68FYEP8+g0AALYNc22g7FRVJTufkwx7VfLg+5KGG1qPr5qf3Hd6Mvv0ZNwVSe9hG/6cTkrdBqgs6nZ56lbqAOXmpptuamn09urVK1dddVWrZnOSDBo0KD/72c8yatSoJEljY2OuvPLKsv3uP/zhD/nb3/6WJNlzzz1zww035DWveU2bRndSWEk+duzYvOc979nq6wHYkPr6+tTX15c6BgAAdDrm2kDZqt4hOexPSd2vkp7btx2fc21y05hk9jVFj1ZK6jZAZVG3y5Nm98tcddVVLdunn3569tlnnw0e17dv33zsYx9ref+rX/0qa9asKbvvXrVqVb74xS8mSbp165bLL788Q4YM2aqcAAAAAACvSFVVstPbkhOnJbVvaDu+akFy35nJvacnK+cVPx8AUJE0u9ezbNmyTJw4seX9GWecscnjTznllPTr1y9JYYX13XffXXbffeONN2b+/PlJkmOPPTZjx47d4owAAAAAAFulujY57I/Jwb9Jeg5qOz7nuuSmfZNnry488xsAYBM0u9dz//33Z+XKlUkKq6cPOOCATR5fXV2durq6lvfrN6vL5bt///vft2yfcsopW5wPAAAAAKBDVFUlO55VWOW9w5vajq9amNz/luTe05KmucXPBwBUDM3u9Tz++OMt23vvvXd69Oix2XP233//lu0nnnii7L570qRJLdsvreq+7bbb8r73vS+HHnpodt111+y///459dRTc+mll7asAgcAAAAA2KaqhyeH/j45+HdJr8Ftx5/7w4urvH9rlTcAsEGa3et58sknW7Z33HHHdp0zYsSIlu2taXZvi+9++umn09jY2PJ+6NCh+fCHP5yzzjorf/7znzN79uysWrUqixYtygMPPJDLLrssRxxxRH73u99t8XUAAAAAALRbVVWy45nJCVOTHd7cdnz1ouT+tyb3vjlpaih+PgCgrG1++XAX8vzzz7dsDx06tF3nDBs2rGV7/cZyOXz3nDlzWr2/5JJLcsMNNyRJhgwZkvHjx2fAgAGZOXNm7r333qxevTrLly/PRz/60axcuTLnnnvuFlxJwbp169p8/8ut36wHuo5x48aVOgIAm9N7aPJGK2cAKo25NlDRqocnh16XzLk2mXJBsmpB6/Hn/pQsuC0Ze3my41sLTfIKp24DVBZ1uzxpdq9n2bJlLdvV1dXtOmf949Y/vxy+e/Hixa3ev9TovvDCC3PRRRelV69eLWMzZ87M+9///kyZMiVJ8oUvfCFHHHFE9txzz/ZfxHrmzZuXQw45ZJPH/O1vf2uz76VC0djYmJkzZ7YZr66uzujRo5MkDQ0NmTu37TN7ampqMmrUqCSF69rQDwGGDx+e2traJEl9fX2ampraHDNq1KjU1NQkScs/l5cbPXp0qqur09TUlPr6+g0e45pck2tyTa7JNbkm1+SaXJNrck2uyTW5JtfkmlyTa2rvNY3OoL3+np0Wfb3Q+F7f6kXJpLPzwvT/zcq9v51hO4+rkGvqjP+eXJNrck2uyTW5pi2/pvb2QtvDbczXs3Llypbtnj17tuuc9RvGG/qXW8rvXr58eZt973rXu/KJT3yi1blJ4Q/hb37zm5Y/rCtXrswVV1zRrhwAr8SqVauyatWqUscAoB3UbIDK0tjYuMG/nAKoNOt6DkkOvSY55Jqs7dH2Wd4Dl9+SIVOOS2b9qqKf5W2+DVBZli9fbr5dhqqamyt4NtDBzjnnnEyYMCFJcsEFF+TTn/70Zs+ZMGFCzjnnnCRJv3798thjj5XNd//lL3/Jeeed1/K+uro6kydPzsCBAzf6mVdddVU+85nPJEn69u2b6dOnp0eP9t8AoK6uLg0NDRk2bFj++te/bvJYtzGHrumlX3W55QtA+VOzASqLug10SivnJw99IJl9zYbHa1+XjPtB0qfy/q5R3QaoLOp2ebKyez39+vVr2W7vKu31j1v//HL47pfvO+KIIzbZ6E6Sk046qWV7+fLlmT59eruyvFy3bt0yYsSITb4AAAAAADap99DkkKuTQ65Leg9rO97w52TCmOSZX1T0Km8AYMtodq9n++23b9meP39+u86ZN29ey/ZL96Ivl+9e/zOTZK+99trsZ9bW1qZ///4t75977rl2ZQEAAAAA2GZG/mdywtRk5Fvajq1uTCafm9z9umTF7KJHAwBKR7N7PbvvvnvL9rPPPtuuc+bMmdOyvccee5TVd798X3tXnq9/3LJly9p1DgAAncjalcnsazNw2T8zcNk/k9nXFvYBAEAp9R6SHPLb5NDfb3iV99y/JjeNSWZeZZU3AHQRmt3r2XPPPVu2H3300axZs2az5zz88MMt21vT7N4W373ddttl5MiRLe/b27he/7j1V3kDANBFrFmc3HdGdpl3cXaZd3Fy3xmFfQAAUA5GvDk5cVqy41vbjq15IXng/yV3/0eyon2LigCAyqXZvZ6DDz44vXv3TlJ4XvVLD5rfmJUrV2by5Mkt74888siy++6jjjqqZfuxxx7bbI6GhoYsWbKk5b1nawMdrbq6OtXV1aWOAQAAnY65NtCl9BqcHPzr5NA/Jr2Htx2fe+OLq7x/WrarvNVtgMqibpcnze719OvXr1XT+Jprrtnk8TfeeGOWLl2apPDM7PHjx5fdd5988skt23fddVcWL970ipy///3vLds1NTXZe++9N5sd4JUYPXp0Ro8eXeoYAADQ6ZhrA13SiDe+uMr77LZjaxYnD7wrueuUZPmsokfbHHUboLKo2+VJs/tlzj333Jbta6+9NvX19Rs8bsWKFfnGN77R8v7ss89Ojx49yu67jz/++Oy2224t51122WUb/f7FixfniiuuaHl/2mmnpVs3f0QAAAAAgDLWa1By8C+Tw65Pete2HZ/392TCfsmMn5TtKm8AYMvoZL7Mq171qhx22GFJCrcKP/fcczNt2rRWxyxatCjvfOc7M2PGjCSFFdDnn3/+Bj9v1qxZGTlyZMvr6quvLtp3J0mPHj3ymc98puX9j3/843zzm9/M6tWr2+R861vfmueee67lc9///vdv9HMBtlRDQ0MaGhpKHQMAADodc22gy9vh9cmJU5Od3t52bM3i5MF3J3edlCx/pvjZNkDdBqgs6nZ52rqlyJ3UFVdckVNPPTVz587NrFmz8prXvCbjx4/PLrvskoULF+b222/PihUrkhSayT/4wQ8ycODAsv3uk046Ke9///vz/e9/P0nyrW99K7/61a9y+OGHp3///nnmmWdyzz33ZNWqVUmSnj175rvf/W5qazfwK0iArTR37twkUWMAAKCDmWsDpLDKu+7nycjTkwffmzQ913p83j8Lq7z3uzQZ9e6kqqo0OaNuA1Qadbs8aXZvwIgRI3LNNdfk/PPPz9SpU9Pc3Jy77rord911V6vjBg8enMsuuyxHH3102X/3Zz7zmQwYMCDf+ta3smrVqsyfPz833HBDm+Nqa2tz+eWXt3p+OAAAAABARak9NTlhavLwRcmsn7ceW7Ok0AiffW1y4I+TvqNKkxEA2Gqa3Ruxxx575C9/+Uuuv/76XH/99amvr8+CBQsyYMCA7LzzzjnllFNy5plnZtCgQRXx3VVVVbnwwgtz6qmn5uqrr87NN9+cOXPmZNmyZdl+++2zzz775NWvfnXOPPPM9OnTp8OvCQAAAACgqHptn9Rdtd4q7zmtx+f/X2GV95hvJru8t6SrvAGALVPV3NzcXOoQdB51dXVpaGhIbW1tJk2aVOo4QBmaMmVKkmTcuHElTgLARq2cn9w4rPW+k+clvYeWJg8A7WKuDbAJqxqTRz6SPPOzDY8PPTE54H+TfrsULZK6DVBZ1O3y1K3UAQAAAAAAYJvqVZMc9NPk8L8l1SPbjs+/Kbl5/+TpHyTN64oeDwDYMprdABRVTU1NampqSh0DAAA6HXNtgHYYfnJy4tRk53e2HVuzNJny/mTiq5NlT2/zKOo2QGVRt8uT25jTodzGHACgE3AbcwAAuoK5f08efE+y4tm2Y937JWP+J9n1fUmVNWMAUK78rzQAAAAAAF3P8JOSEx5JRr277djaZclDFyQTT0yWPVX8bABAu2h2A1BUM2fOzMyZM0sdAwAAOh1zbYAt0HNgcuCPkyP+kfTZqe34gluSCfsnT13R4c/yVrcBKou6XZ40uwEoqsbGxjQ2NpY6BgAAdDrm2gBbYdhrCqu8d3lv27G1y5OHPpjccUKy7MkO+0p1G6CyqNvlSbMbAABordfg5OR5eWTnCXlk5wmF53X3GlzqVAAAsG31HJAc8MPkiP9L+uzcdnzhrcmEscmTl3f4Km8AYMtodgMAAK1VdUt6D83a7oOytvugpPfQwj4AAOgKhr3qxVXe72s7tnZ58vCHkjuOS5Y+UfRoAEBr/sYKAAAAAADW17N/csD3kyP/lfQZ1XZ84e3JzWOTJ79jlTcAlJBmNwAAAAAAbMjQE5MTHk52Pb/t2NoVycMfTu44Nln6eNGjAQBJj1IHAKBrGT58eKkjANBOajZAZVG3AbaRnv2Tcd9LRpyWPPDOZPmM1uML7yg8y3vfryS7X5hUdW/Xx6rbAJVF3S5PVc3Nzc2lDkHnUVdXl4aGhtTW1mbSpEmljgMAAAAA0HHWLE2mfjJ5+nsbHh90RHLQz5Lt9ipuLgDootzGHAAAaG3dqmT+La1f61aVNhMAAJSDHtsl465Ijrw56btr2/FFdyYTxiWPX5o0ry1+PgDoYtzGHICiqq+vT5KMHj26xEkA2KjVLyQTj2+97+R5Se+hpckDQLuYawMU0dDjCs/ynvap5Knvth5b15RM/Vgy57rCKu/+e7ceXzwtmfGDLH9uYrqtW5bqfkOSmoOSXd6XDNi3aJcAwCtjvl2erOwGoKiamprS1NRU6hgAANDpmGsDFFmPfsnYy5Ojbkn67tZ2/Pm7k5sPSB7/ZmGV9/P3Jbcfl0wYkzz13fRdMTnVK+uTRRMLDfMJYwrjz99X3OsAoF3Mt8uTZjcAAAAAAGypIccmJzyU7HZh27F1K5OpH09uGpPcfmyy8NZNf9bCW5M7jkvm3rhNogJAZ6PZDQAAAAAAW6NHv2Tsd5Kjbkv67dF2fGl9sm5F+z5r7fLk3tOs8AaAdtDsBgAAAACAjjDk6OT4KcnuH05SteWfs3Z5MvXijkoFAJ2WZjcAAAAAAHSUHn2T/b+VHH1b0mfnLf+cBbckS6Z3WCwA6Iw0uwEoqlGjRmXUqFGljgEAAJ2OuTZAmRl8VDL8P7buM57+fsdkAWCrmW+Xpx6lDgBA11JTU1PqCAAA0CmZawOUocUPbd35LzzQMTkA2Grm2+XJym4AAAAAANgW1izZuvNXb+X5ANDJaXYDUFRTpkzJlClTSh0DAAA6HXNtgDLUo//Wnd9zK88HoMOYb5cnzW4AAAAAANgWag7auvMHHtgxOQCgk9LsBgAAAACAbWGX923d+c1J1q3ukCgA0BlpdgMAAAAAwLYwYN9k8LFbfv7T301uPSx5wW1zAWBDNLsBAAAAAGBb2e8bSfe+W37+Cw8ktxycPPpFq7wB4GU0uwEAAAAAYFvZ/pDk0Ova3/Cu6pmkqvW+5jXJo59Pbj00aXywoxMCQMWqam5ubi51CDqPurq6NDQ0pLa2NpMmTSp1HKAMNTU1JUmqq6tLnASAjVq3Jllan5UrVyZJevfunWw3OunWo8TBANgUc22AMvf8fcnUi5MFt2z8mCHHJWP+p7A9+f8lS6a2PaaqR7LXZ5LRn0669doWSQHYAPPt8qTZTYfS7AYAAAAA2ITF05IZPyjcnnz1kqRn/2Tggcmu70/67/Pv49auTOq/mDz+9aR5bdvPGTA2OeiqpObAokUHgHKj2U2H0uwGNsev3wAqh5oNUFnUbYDK0u663TgpmfyOZPEjbceqeiR7fSoZ/VmrvAG2MfPt8uSZ3QAUVX19ferr60sdA4B2ULMBKou6DVBZ2l23a+qSY+9P9vpsUtW99VjzmqT+S8ktBxea4gBsM+bb5UmzGwAAAAAAyln33sm+X0qOvTcZsH/b8cUPJ7celkz7bOH25wDQRWh2AwAAAABAJag5KDnu/mT0fxVuYb6+5rXJY19Obj04ef7+0uQDgCLT7AYAAFpbtyZZPDW9Vz2R3queSBZPLewDAABKr1uvZJ8vvLjKe1zb8cWPJLeNT6Z9xipvADo9zW4AAKC11c8nE/bL3rNPy96zT0sm7FfYBwAAlI+aA5Pj7k32vmQjq7y/ktxyUPL8fSWJBwDFoNkNAAAAAACVqFuvZO/PJ8felww8oO34kmnJreOTqZ9K1jYVPR4AbGtVzc3NzaUOQedRV1eXhoaG1NbWZtKkSaWOAwDAllg5P7lxWOt9J89Leg8tTR4AAGDz1q1OHvtaUv+lpHl12/H++yQH/iwZdFjxswHANmJlNwAAAAAAVLpuPZO9P5ccd38y8MC240umJ7cdkUz9hFXeAHQamt0AFFVjY2MaGxtLHQMAADodc22AyrLN6vbAscmx9yT7fCmp6vmywXXJ4/+T3Hxgsujujv9ugE7MfLs8aXYDUFQzZ87MzJkzSx0DAAA6HXNtgMqyTet2t57J6M8mx01KBh7Udnzpo8ltRyaPXJysXbFtMgB0Mubb5UmzGwAAAAAAOqOB+yfH3p3s8+UNr/J+4hsvrvK+qyTxAGBraXYDAAAAAEBn1a1nMvrTyfGTk5qD244vrX9xlffHrPIGoOJodgMAAAAAQGc3YL/kmLuSfb+adOv1ssHm5IlLk5sPSBZOLEU6ANgimt0AAAAAANAVdOuR7PXJ5LgHkppD2o4vfSy5/ejk4Y8ka5YXPx8AvEKa3QAUVXV1daqrq0sdAwAAOh1zbYDKUtK6PWDf5Jg7k32/tuFV3k9+K7l5XLLwjpLEAyhH5tvlqaq5ubm51CHoPOrq6tLQ0JDa2tpMmjSp1HEAANgSK+cnNw5rve/keUnvoaXJAwAAbDuLpyUPvDN5/p4NDFYlu12Y7PuVpEffokcDgM2xshsAAAAAALqqAfsmx0xMxvxP0q33ywabk6e+k9w8Nllwe0niAcCmaHYDUFQNDQ1paGgodQwAAOh0zLUBKktZ1e2q7smeH0+OfzDZfnzb8WVPJnccmzz0oWTNsqLHAygHZVW3aaHZDUBRzZ07N3Pnzi11DAAA6HTMtQEqS1nW7f57J8fckYz5ZtLt5c+lbU6eujyZMDZZcGtJ4gGUUlnWbTS7AQCAl+k5MDny5jxR++M8Ufvj5MibC/sAAIDOr6p7sudHC6u8Bx3Rdnz5U8kdxyVTPpisWVrsdADQimY3AADQWrdeydDjsqzPIVnW55Bk6HGFfQAAQNfRf3Ry9G3JfpdtYJV3kqevKKzynn9z8bMBwIs0uwEAAAAAgLaquid7XJScMCUZdGTb8eVPJxNPSKZcYJU3ACWh2Q0AAAAAAGzcdnslR9+a7PetpHuftuNPX5lM2D+ZP6H42QDo0jS7ASiqmpqa1NTUlDoGAO2gZgNUFnUboLJUXN2u6p7s8eHk+CnJ4KPaji+fkUw8MZlyfrJ6SbHTAWxzFVe3u4iq5ubm5lKHoPOoq6tLQ0NDamtrM2nSpFLHAQAAAACgozWvS566Ipn2yWTtirbjfUYlB/0kGXpi8bMB0KVY2Q0AALTWvC5ZOb/1q3ldqVMBAADloqpbsvuFyfEPJYOPaTu+YmYy8VXJg+9LVi8ufj4AugzNbgCKaubMmZk5c2apYwCwKasWJjcOa/1atbDUqQDYDHNtgMrSKer2dnskR92cjP1u0r1v2/EZPyw8y3ve/xU/G0AH6xR1uxPS7AagqBobG9PY2FjqGAAA0OmYawNUlk5Tt6u6Jbt9IDnh4WTwsW3HVzyT3Pma5IH3WuUNVLROU7c7Gc1uAAAAAABg6/TbLTlqQjL2iqR7v7bjM3+cTNgvmffP4mcDoNPS7AYAAAAAALZeVbdktwuSEx5KhhzfdnzFrOTO1yYPvDtZ/ULx8wHQ6Wh2AwAAAAAAHaffbsmR/0rGXbmRVd4/Kazynvv34mcDoFPR7AYAAAAAADpWVbdk1/cnJzySDDmh7fiKZ5O7Tk4mvytZ1Vj0eAB0Dj1KHQCArmX48OGljgAAAJ2SuTZAZekydbvfLoVV3jN+lEz9WLJmaevxZ36azPtHcsCPktpTShIRoD26TN2uMJrdABRVbW1tqSMAAECnZK4NUFm6VN2uqkp2PS8ZflLhed3z/9V6vGl2cvd/JDu/I9nvW0mvmlKkBNikLlW3K4jbmAMAAAAAANte31HJEf8srOLu0b/t+DNXJRPGJA1/LXo0ACqTZjcARVVfX5/6+vpSxwAAgE7HXBugsnTZul1VlezynsKzvIe+uu1405zk7lOTSe9IVj1f9HgAG9Nl63aZ0+wGoKiamprS1NRU6hgAANDpmGsDVJYuX7f77pwc8Y/kgB9veJX3rJ8XVnk/9+fiZwPYgC5ft8uUZjcAAAAAAFB8VVXJLu9OTpiaDHtt2/Gm55J7Xp9MenuyalHx8wFQ9jS7AQAAAACA0um7U3L4jcmBP0l6DGg7PuuXyU1jkuduKH42AMqaZjcAAAAAAFBaVVXJqHcmJ05Nhp/cdnxlQ3LPG5L7z05WLSx+PgDKkmY3AAAAAABQHvrsmIz/a3Lgz5IeA9uOP/vrwirvOX8qejQAyk+PUgcAoGsZNWpUqSMAsDk9BiSHXJNly5YlSfr167fhWwkCUFbMtQEqi7q9CVVVyah3JMNenTz43mTu31qPr5yb3PumZMezkrHfTXoNLklMoGtRt8tTVXNzc3OpQ9B51NXVpaGhIbW1tZk0aVKp4wAAAAAAUMmamwvP7H74Q8nqxrbjvYcl476fjHhz0aMBUHpuYw4AAAAAAJSnqqpk57cnJ0xNhp/adnzlvOTe/0zue0uyckHx8wFQUprdABTVlClTMmXKlFLHAKAd1GyAyqJuA1QWdfsV6jMiGX9DctAvkp41bcdnX53ctG8y+/dFjwZ0Dep2edLsBgAAAAAAyl9VVbLzOcmJ05La17UdXzU/ue+05L4zk5Xzi58PgKLT7AYAAAAAACpH9Q7JYdcndb9Kem7fdnz2NS+u8r62+NkAKCrNbgAAAAAAoLJUVSU7ve3FVd5vaDu+akFy3xnJvacXnusNQKek2Q0AALS2cn7yp6qMe/qAjHv6gORPVW4BCAAAlKfq2uSwPyYH/ybpOajt+JzrkpvGFFZ7NzcXPx8A25RmNwAAAAAAULmqqpIdz0pOnJrs8Ka246sWFJ7jfd/pSdPc4ucDYJvpUeoAAHQto0ePLnUEAADolMy1ASqLur0NVNcmh/6+sIr7oQuSVQtbj8/5fbLglmTsFcnIMwtNcoB2UrfLk5XdABRVdXV1qqurSx0DAAA6HXNtgMqibm8jVVXJjmcmJ0xNdnhz2/FVC5P7z0ru/c+kqaH4+YCKpW6XJ81uAIqqqakpTU1NpY4BAACdjrk2QGVRt7ex6uHJodclh1yd9BrSdvy5Pxae5T3rN57lDbSLul2eNLsBKKr6+vrU19eXOgYAAHQ65toAlUXdLoKqqmTkGYVneY84ve346kXJpLcl97wpaXqu+PmAiqJulyfNbgAAAAAAoPPqPSw59JrkkGuSXkPbjjdc/+Iq719Z5Q1QYTS7AQAAAACAzm/k6YVV3iPPaDu2+vlk0jnJPW+0yhuggmh2AwAAAAAAXUPvoYXneB9yXWHF98s13JDctG/yzC+t8gaoAJrdAAAAAABA1zLyP5MTpiYj39J2bHVjMvntyd2vT1bMKXo0ANpPsxsAAAAAAOh6eg9JDvltcujvN7zKe+5fkgljkmd+bpU3QJmqam5Woek4dXV1aWhoSG1tbSZNmlTqOAAAbImV85MbX/YXPSfPK9zuDwAAoDNatTB56MLk2d9seHz4KckBP0r6jCxuLgA2ycpuAAAAAACga+s1ODn418mhf0x6D287PvdvyU1jkpk/s8oboIxodgNQVI2NjWlsbCx1DAAA6HTMtQEqi7pdpka8MTlxWrLj2W3H1ryQPPDO5K5TkhXPFj0aUFrqdnnS7AagqGbOnJmZM2eWOgYAAHQ65toAlUXdLmO9BiUH/zI57Pqkd23b8Xl/f3GV90+t8oYuRN0uTz1KHQAAACgzPbZLxl6RZ2cXVirsOHLHwj4AAICuZIfXJ4OPSh6+KJn1i9ZjaxYnD7wrmX1NcsCPk747lSYjQBdnZTcAANBa9z7Jbhdk4YC3ZOGAtyS7XVDYBwAA0NX0GpTU/TwZ/+ekeoe24/P+kUwYk8z4X6u8AUpAsxsAAAAAAGBTak9NTpia7HRu27E1S5IH35Pc+dpk+TPFzwbQhWl2AwAAAAAAbE6v7ZO6q5Lxf0mqR7Qdn/9/yYT9khk/ssoboEg0uwEoqurq6lRXV5c6BgDtoGYDVBZ1G6CyqNsVrPY/Cqu8d/5/bcfWLEkePC+58zXJ8pnFzwZsM+p2eapqbvbzIjpOXV1dGhoaUltbm0mTJpU6DgAAAAAAbDtzb0weeE/SNLvtWI/tkjHfSHY5L6mqKn42gC7Aym4AAAAAAIAtMfzk5MSpyah3tR1bszSZ8v5k4quSZTOKHg2gK9DsBqCoGhoa0tDQUOoYAGzKygXJ34Zm3V8GZ91fBid/G1rYB0BZM9cGqCzqdifSc2By4P8mh/896bNj2/EFEwrP8n76+0nzuuLnAzqEul2eNLsBKKq5c+dm7ty5pY4BwCY1J6sWpNuaRem2ZlGyakFhHwBlzVwboLKo253Q8NcmJzySjHp327G1y5Ip57+4yvvp4mcDtpq6XZ40uwEAAAAAADpCz4HJgT9OjvhH0mentuMLbk4m7J889T2rvAE6gGY3AAAAAABARxr2msIq713e23Zs7bLkoQ8kd5yQLHuq+NkAOhHNbgAAAAAAgI7Wc0BywA+TI/4v6bNz2/GFtxZWeT/5Xau8AbaQZjcAAAAAAMC2MuxVL67yfl/bsbXLk4cvTO44Pln6RPGzAVQ4zW4AiqqmpiY1NTWljgEAAJ2OuTZAZVG3u5ie/ZMDvp8c+a+kz6i24wtvS24emzx5uVXeUKbU7fJU1dzc3FzqEOVq1apVueGGG3L99denvr4+CxYsyMCBA7PTTjvllFNOyRlnnJFBgwZV9Hf/85//zP/7f/+v1b677747O+200xZ9Xl1dXRoaGlJbW5tJkyZtdT4AAEpg5fzkxmGt9508L+k9tDR5AAAAOpPVS5Jpn0yevnLD44OPTg78SbLdnsXNBVCBNLs34oknnsj555+fqVOnbvSYIUOG5LLLLsuJJ55Ykd+9ZMmSHHfccWloaGi1X7MbAKCL0+wGAADY9ubfnDzwzmT5jLZj3fsk+3wl2f2DSVX3okcDqBRuY74Bc+bMyZlnntnSbK6qqsrhhx+et7zlLXn1q1+d6urqJMmCBQvyrne9K3fccUdFfvd///d/t2l0A2xrM2fOzMyZM0sdAwAAOh1zbYDKom6ToccnJzyc7HpB27G1K5JHLkpuPzZZ+ljxswFtqNvlSbN7Az7wgQ+0NIF33HHH/OMf/8h1112XSy+9NFdddVXuu+++HHXUUUmS1atX57zzzssLL7xQUd99zz335Ne//nWS5E1velOHZAdoj8bGxjQ2NpY6BgAAdDrm2gCVRd0mSdJju2TcFcmRNyd9d207vmhiMmFc8sRlSfPa4ucDWqjb5Umz+2Vuuumm3HPPPUmSXr165aqrrsqYMWNaHTNo0KD87Gc/y6hRo5IU/nBfeeVGnq1Rht/d1NSUj33sY2lubs4uu+ySD3/4w1udHQAAAAAA2EJDjyus8t7tg23H1jUlj3w0uf3oZEl90aMBlDPN7pe56qqrWrZPP/307LPPPhs8rm/fvvnYxz7W8v5Xv/pV1qxZUxHf/a1vfStPPfVUkuSrX/1qevfuvWWBAQAAAACAjtGjXzL28uSoW5K+u7UdX3RXcvMByePftMob4EWa3etZtmxZJk6c2PL+jDPO2OTxp5xySvr165eksML67rvvLvvvnjp1an7wgx8kSd785jfnmGOO2cLEAAAAAABAhxtybHLCQ8luH0pS1XpsXVMy9ePJbUclSx4tSTyAcqLZvZ77778/K1euTFJYPX3AAQds8vjq6urU1dW1vF+/WV2O37127dp8/OMfz5o1a1JTU5NLLrlki/MCAAAAAADbSI9+ydhvJ0fdmvTbo+3483e/uMr7G1Z5A11aj1IHKCePP/54y/bee++dHj02/49n//33z2233ZYkeeKJJ8r6u3/84x9nypQpSZLPfe5zGTx48BamBdhyw4cPL3UEADane99k9OezdOnSJMl2221X2AdAWTPXBqgs6jbtMuTo5PgpyfTPJE9+J0nzv8fWrUymXpzM+X1y0M+S/ht+NCrQMdTt8qTZvZ4nn3yyZXvHHXds1zkjRoxo2d6aZve2/u6ZM2fmm9/8ZpJk/PjxOfPMM7cgJcDWq62tLXUEADanR79kn0uyXalzAPCKmGsDVBZ1m3br0TfZ/1vJiNOSyf8vWfZ46/Hn70luPjDZ+wvJHh9Numn9wLagbpcnFW89zz//fMv20KFD23XOsGHDWrYbGxvL9rsvvvjirFixIr169crXv/71VFVVbfL4rbVu3brMmTNnk8es36wHAAAAAAA2YfCRyfEPJtM/lzz5rbRZ5T3tky+u8r4qGbBviUICFJdm93qWLVvWsl1dXd2uc9Y/bv3zy+m7f/e73+WOO+5IklxwwQXZY48NPN+jg82bNy+HHHLIJo/529/+1mbfuHHjkhSa9zNnzmwzXl1dndGjRydJGhoaMnfu3DbH1NTUZNSoUUkKK9o39EOA4cOHt/wCp76+Pk1NTW2OGTVqVGpqapKk5fbvLzd69OhUV1enqakp9fX1GzzGNbkm19T6mm699daWz+4s19QZ/z25JtfkmlzTS9+7/md0hmtan2tyTa7JNXW2a3rhhRda3neWa+qM/55ck2tyTa7ppWtaf77dWa7p5VzTtrqmt6fvDmMzauEl6bVqRuuTGu/LugkHZO7278u8geemZvshFXJNBZ3r35Nr6mzX1NTUlJqamowePbrTXFOp/j21txfaHt067JM6gZUrV7Zs9+zZs13n9OrVq2V7Q/9yS/3d8+fPz5e+9KUkyW677ZYPfvCDW5wRoCOsXbs2a9euLXUMANpBzQaoLE1NTVv1dxMAFJf5NltjefUBmbHrn5I9Ppak9Z1cu2V1dnj+u9lzztvTc8WGm2TAK7d69Wrz7TJU1dzc3Lz5w7qGc845JxMmTEhSWAH96U9/erPnTJgwIeecc06SpF+/fnnsscfK6rvf+9735q9//WuS5Nprr80RRxzR5phZs2Zl/PjxLe/vvvvu7LTTTlt0HXV1dWloaMiwYcNavndj3MYcuqaXftX10q/OAChfajZAZVG3ASqLuk2HWXRX4VneSzfQ2O7WKxn9+WTPiz3LG7aSul2eVLb19OvXr2W7vb/MWP+49c8vh+/+xz/+0dJwPuOMMzbY6N5WunXrppkNAAAAAADb2qDDk+MfSB69JHn8m0nW/Xts3apk+meS5/6QHPizZOD+pUoJsE24jfl6tt9++5bt+fPnt+ucefPmtWy//PmzpfzuFStWtKwOHzRoUD73uc9tcTYAALqYVYuSm8Zk9LNvzuhn35zcNKawDwAAgPLUvU8y5uvJMXcm2+3ddrxxUnJLXVL/38m61cXPB7CNWNm9nt13371l+9lnn23XOXPmzGnZ3mOPPcrmuxcsWJCGhoYkSVVVVd7+9rdv9HNWrVrV6v273vWulueBn3jiibnooovalQcAgE6ieW2yZFqqX3q/+sV9AAAAlLdBh623yvsbabXKu3l1Mv1zyZw/JAddlQwcW6KQAB1Hs3s9e+65Z8v2o48+mjVr1qRHj03/I3r44Ydbtrem2b0tv3vhwoVZuHBhu7NMnTq1XZ8LsCVGjRpV6ggAANApmWsDVBZ1m22me3Uy5mvJiDcXnuW9ZFrr8RceSG45OBn92WSvTyXdepYmJ1QYdbs8uY35eg4++OD07t07SbJ8+fKWB81vzMqVKzN58uSW90ceeWRFfjdAMdXU1GzVYx8AAIANM9cGqCzqNtvc9ocmx00qNLRf3g5qXp08+vnk1kOTxgdLkQ4qjrpdnqzsXk+/fv1y5JFHZsKECUmSa665JnV1dRs9/sYbb8zSpUuTFP6Ajx8/vmy+e6eddsrs2bPb9d2zZs1qdf7dd9+dnXba6ZVeAgAAAAAAUE66Vyf7fiXZ4U0vrvKe2nr8hQeTWw9J9vpMMvrTSbdeJYkJsKWs7H6Zc889t2X72muvTX19/QaPW7FiRb7xjW+0vD/77LM3e9vxcv5ugGKZMmXKZu9eAQAAvHLm2gCVRd2mqLY/5MVV3p9Jqrq3Hmtek9R/IbnFKm/YFHW7PGl2v8yrXvWqHHbYYUkKtwo/99xzM21a6+dZLFq0KO985zszY8aMJIWV1eeff/4GP2/WrFkZOXJky+vqq68u2ncDAAAAAAAkSbr3Tvb97+TYe5IB+7UdXzylsMp7+ueTdauKnw9gC1gOvAFXXHFFTj311MydOzezZs3Ka17zmowfPz677LJLFi5cmNtvvz0rVqxIkvTo0SM/+MEPMnDgwIr/bgAAAAAAoJOrqUuOvT+p/+/k8a8mzWv/Pda8Jqn/YvLcn5KDfpbUHFSymADtYWX3BowYMSLXXHNNxowZkyRpbm7OXXfdld/+9rf55z//2dJsHjx4cH7yk5/k6KOP7hTfDQAAAAAAdAHdeyf7fik59t5kwNi244sfSm49NJn2uWTtyuLnA2gnK7s3Yo899shf/vKXXH/99bn++utTX1+fBQsWZMCAAdl5551zyimn5Mwzz8ygQYM61XcDAAAAAABdRM1ByXH3JfVfTh77SmFl90ua1yaP/XfS8KfkoKsKK8IByoxm9yb06tUrp59+ek4//fQt/oyddtops2fPLsl3t9eWZgQAAAAAACpct17JPl9IdnhjMvn/FZ7dvb7FjyS3Hpbs+Ylk9H8VVoUDlAnNbgCKavTo0aWOAAAAnZK5NkBlUbcpOzUHJsfdmzz21cLzvNus8v5K8tz1hVXe2x9csphQKup2edLsBqCoqqurSx0BAAA6JXNtgMqiblOWuvVK9v78i6u835G88GDr8SVTk9vGJ3tenIz+fOtV3ounJTN+kDROTtYsSXr0L9wmfZf3JQP2LeJFwLahbpcnzW4AiqqpqSmJiQEAAHQ0c22AyqJuU9YGjkuOvTd57GtJ/ZeS5tX/HmteW1j9/dz1yUE/S1KVPPLxZOGtbT9n0cTkqe8mg49N9vtGsv0hRbsE6GjqdnnqVuoAAHQt9fX1qa+vL3UMAADodMy1ASqLuk3Z69Yz2ftzyXH3JwMPbDu+ZFpy6/jktiM33Ohe38JbkzuOS+beuE2iQjGo2+VJsxsAAGitW3Wy6/lZ0P+MLOh/RrLr+YV9AAAAdD0DxybH3pPs86WkqufLBptbr/relLXLk3tPS56/r8MjAl2X25gDAACt9eyfjPteZk+ZkiQZMm5ciQMBAABQUt16JqM/m9S+4cVneU/ess9ZuzyZenFy1M0dGg/ouqzsBgAAAAAAYPMG7p8ce3ey24e2/DMW3JIsmd5hkYCuTbMbAAAAAACA9unWM8m6rfuMp7/fIVEANLsBAAAAAABov8YtvI35S154oGNyAF1eVXNzc3OpQ9B51NXVpaGhIbW1tZk0aVKp4wAAAAAAAB1twrhk8UNbfn7vHZKjb0u226PjMgFdkpXdAAAAAAAAtF+P/lt3/srnkn/tmdx8YFL/lWTp4x2TC+hyepQ6AABdS2NjY5KkpqampDkA2IRVjck9b8yaNWuSJD169EgO+1PSq6aUqQDYDHNtgMqiblPRag5KFk3c+s954cHCa/pnkgHjkpGnF17b7bX1nw0dTN0uT5rdABTVzJkzk5gQAJS15tXJwltb/8dC8+pSpQGgncy1ASqLuk1F2+V9yVPf7djPXDyl8Jr+2WTA2ELTe8TpSf/RHfs9sIXU7fLkNuYAAAAAAAC034B9k8HHbtm51SOS3sM2fczih5Lpn0tu2juZMDZ59EvJkke37PuATk2zGwAAAAAAgFdmv28k3fu+snO69y08JuukOcmRNye7np/0Hr7pcxY/nDz6X8lN+2h8A21odgMAAAAAAPDKbH9Icuh17W94d+9bOH77Q5Kq7snQ45Jx30tOmp0cdUuy6wVJ79pNf0arxvf+yaNfTJZM39orASqYZjcAAAAAAACv3PCTC43qIcdt+rghxxWOG35y27Gq7smQY5NxVyQnPZscdWs7G9+PJI9+Prlp3+Sm/ZJHv5AsnrZl1wFUrB6lDgBA11JdXV3qCAAA0CmZawNUFnWbTmP7Q5Kjbi40mmf8IHnhgWT1kqRn/2Tggcmu70/679O+z6rqngw5pvAa+51k4cRk9rXJc79Pmp7b+HlLpiaPTk0evSTpv28y4vRk5OnJgDEdcomQqNvlqqq5ubm51CHoPOrq6tLQ0JDa2tpMmjSp1HEAANgSK+cnNw5rve/keUnvoaXJAwAAQNfWvK7Q+J5zbTLn90nTnPad13+ffze++49Jqqq2bU6g6NzGHAAAAAAAgPJV1S0ZcnQy9vLktbOSo29PdrswqR6x6fOWTE/qv1h4vvdN+ybT/6tw+3PrQKHT0OwGoKgaGhrS0NBQ6hgAANDpmGsDVBZ1G7ZQVbdk8FGF25y/dlZy9B3Jbh9Kqkdu+ryljyb1X2rd+H7hYY1v2k3dLk+a3QAU1dy5czN37txSxwAAgE7HXBugsqjb0AGquiWDj0zGfjt57TPJ0ROT3T+c9Nlx0+e91Pi+eWxy0z7JtM8lLzyk8c0mqdvlSbMbAAAAAACAylbVLRl8RLL/t5LXzEyOuTPZ/aKkz06bPm9pffLYfyc3j0tu2juZ9tnkhSka31AhNLsBAAAAAADoPKq6JYMOT/a/LHnNjOSYu9rZ+H4seezLyc0HJP8anUz7TNL4oMY3lDHNbgAAAAAAADqnqm7JoPEva3x/JOmz86bPW/Z48thXklsOTP61VzLt00njAxrfUGY0uwEAAAAAAOj8Whrfl77Y+L472eOjSZ9Rmz5v2RPJY19Nbjmo0Pie+qmkcbLGN5SBHqUOAEDXUlNTU+oIAGxOt17JiNOybPnyJEm/vn0L+wAoa+baAJVF3YYSq6pKBh1WeI35RtJ4XzL72sJrxcyNn7fsieTxrxVe/XZPRpyWjDwjGXhg4TPptNTt8lTV3OxnJ3Scurq6NDQ0pLa2NpMmTSp1HAAAAAAAgPZrbk4a7y80vedcmyyf0b7z+u6WjDy98Bp4kMY3FIlmNx1KsxsAAAAAAOgUmpuTxkmFpvfsa5PlT7fvvL67FpreI05Pauo0vmEb0uymQ2l2A5szc2bhFkCjRm3mOTgAlJyaDVBZ1G2AyqJuQ4Vpbk5emPzvW50vf6p95/XdpdD0Hnl6UnOwxncFU7fLU7dSBwCga2lsbExjY2OpYwDQDmo2QGVRtwEqi7oNFaaqqrBKe8zXklc/kRw3KdnzE4Xbl2/K8hnJE99Ibj00+b/dkkc+njx/b6F5TkVRt8uTZjcAAAAAAAC0V1VVUnPQyxrfn0z67b7p85bPSJ74ZnLrYck/d00e+Viy6B6Nb9gKmt0AAAAAAACwJVoa319NXvV4ctzkZK9PJf322PR5K2YmT1ya3DY++ecuycMfTRbdrfENr1CPUgcAAADKzOoXkgfenVEv3Zrr3prkwP9Neg4sZSoAAAAob1VVSc2Bhdc+X05emJLMefEZ38se3/h5K55Jnrys8OqzUzLitMIzvrc/LKmybhU2RbMbAABobd2qZM51qXnp/fIk464sXR4AAACoNFVVSc0Bhdc+/50sfqjQ9J5zbbL0sY2ft2JW8uS3Cq8+O77Y+D5D4xs2QrMbgKIaPnx4qSMAAECnZK4NUFnUbehCqqqSgeMKr32+lCx+eL3Gd/3Gz1vxbPLktwuvlxrfI05PBo3X+C4Bdbs8VTU3u/k/Haeuri4NDQ2pra3NpEmTSh0HAIAtsXJ+cuOw1vtOnpf0HlqaPAAAANAZNTcnix/5963Olz7avvOqR/77VueDDtf4pkuzshsAAAAAAACKraoqGbh/4bX3F5IlU5PZ12y+8d00O3nqO4VX9chkxH++2Pg+QuObLkezG4Ciqq8v3JZn9OjRJU4CAACdi7k2QGVRt4FWqqqSAfsVXi2N7xdvdb5k+sbPa5qdPHV54VU9otD4HnF6MvhIje8Opm6XJ81uAIqqqamp1BEAAKBTMtcGqCzqNrBR6ze+9/lCsnj9xve0jZ/XNCd56ruFV/UOyQ4vrvgefGRS1b14+Tspdbs8aXYDAAAAAABAuRowpvDa55Jk8bR/P+N7ydSNn9P0XPL0FYVX79p/3+p88FEa33Qq7l8AAAAAAAAAlWDAvsnen09OfCQ5cVrhlucD9tv0OSsbkqe/l9xxXPL3HZMpFyQLbk2a1xYlMmxLmt0AAAAAAABQafrvk+z9X8kJDycnTk/2/mIyYP9Nn7OyIXn6yhcb3yMLje/5t2h8U7E0uwEAAAAAAKCS9d872ftzyQkPvYLG99xC43vi8S82vs9P5t+s8U1F8cxuAIpq1KhRpY4AAACdkrk2QGVRt4Ft5qXG996fS5bU//sZ34sf2vg5K+cmT3+/8Oo9LNnhzS8+4/uYpJt2YqJul6uq5ubm5lKHoPOoq6tLQ0NDamtrM2nSpFLHAQBgS6ycn9w4rPW+k+clvYeWJg8AAACw9ZY+Vmh6z742WTylfef0GpqMeKnxfazGN2XHbcwBAAAAAACgs9tur2T0Z5ITHkxe9Viyz5eTgQds+pxV85MZP0wmvir5+4jkwfOSef9K1q0pRmLYLM1uAIpqypQpmTKlnb8aBAAA2s1cG6CyqNtASW23ZzL608nxDySvejzZ9yvJwAM3fc6q+cmMHyV3vjr5+w7JA+9N5v1fl2l8q9vlyb0GAACA1qp6JoOPzdJlS5Mk2/XbrrAPAAAA6Hy22yPZ61OF19InkjnXFW51/sLkjZ+zakEy88eFV6/ByQ5vKtzqfMjxSTd/h0DxaHYDAACt9apJjr4lT774a+Vx48aVNg8AAABQHNvtkez1ycJr2ZPJ7OuSOdcmjZM2fs6qhcnM/y28eg1OdnhjMvIMjW+Kwm3MAQAAAAAAgNb67Z7s9YnkuPuTVz+Z7Pu1pKZu0+esWpjM/Ely52uTG2uTB96dzP1Hsm51cTLT5Wh2AwAAAAAAABvXb7fWje8xX09qDt70OasXFRrfd51UaHxPflcy9+8a33QozW4AAAAAAACgffrtlux5cXLcfcmrn0rG/E9Sc8imz1m9KHnmp8ldJyc3Dk8mvzOZe2OyblVxMtNpVTU3NzeXOgSdR11dXRoaGlJbW5tJkzbx/Aagy2pqakqSVFdXlzgJAJujZgNUFnUboLKo20Cns2xGMufFZ3w/f2/7zulZU3jG94jTk2GvSrr12oYBt466XZ40u+lQmt0AAAAAAABd3PKZyeyXGt/3tO+cnjVJ7RuSkacnw15d1o1vyodmNx1KsxvYHL9+A6gAq5ck0z6ZNWvXJkl6dO+e7Pu1pGf/EgcDYFPMtQEqi7oNdBnLnyms+J59bfL83e07p8fAZIcXG99DX510771tM7aDul2eNLvpUJrdwOZMmTIlSTJu3LgSJwFgo1bOT24c1nrfyfOS3kNLkweAdjHXBqgs6jbQJS1/Jpnz+8KK70V3te+cHgOTHV6fjDyjpI1vdbs8dSt1AAAAAAAAAKAL6LtzssdFyTF3Jq95JtnvsmTQ4Zs+Z80LyaxfJne/rvDj/ElvT577c7J2ZXEyU9Y0uwEAAAAAAIDi6rvTyxrf30oGHbHpc9YsLjS+73l9ofF9/znJczcka5uKk5my06PUAQAAAAAAAIAurO9OyR4fLrxWPFu41fnsa5NFEzd+zprFybO/Krx69E9qX194xvew1ybdPVe7q9DsBgAAAAAAAMpDnx2T3T9UeK2Y/e9nfC+cmKR5w+esWZI8++vCq0f/pPZ1yYjTk+EnaXx3cprdAAAAAAAAQPnpMzLZ/cLCa8Wc9Rrfd2TTje/fFF49tntZ47tPUeOz7VU1Nzdv5E8CvHJ1dXVpaGhIbW1tJk2aVOo4AABsiZXzC8+9Wt/J85LeQ0uTBwAAAGB9K+Ykz/2hcKvzhbdno43v9fXYLhl+auFW58NPbn/je/G0ZMYPksbJhUZ6j/5JzUHJLu9LBuy7VZfB1tPspkNpdgMAdAKa3QAAAEClaHoumfNS4/u2tKvx3b1fUntqMvKMjTe+n78veeTjycJbN/45g49N9vtGsv0hWxyfrdOt1AEA6FoaGxvT2NhY6hgAANDpmGsDVBZ1G6CDVO+Q7HZBcvQtyUmzk7FXFJrQqdr4OWuXJbOvTu79z+RvQ5P73pLM/n2yZnlhfO6NyR3HbbrRnRTG7ziucDwl4ZndABTVzJkzkyQ1NTWlDQIAAJ2MuTZAZVG3AbaBlxrfu12QNDUUVnzPuTZZcFuSdRs+56XG9+yrk+59k0FHFFaIr1vVvu9cuzy597TkqFus8C4BK7sBAAAAAACAzqW6Ntnt/OSom5OT5iTjrkyGHJ9NtkfXLk/m/6v9je71z5t68VbFZctodgMAAAAAAACdV/XwZNf3J0dNeLHx/f1kyAnp0FbpgluSJdM77vNoF81uAAAAAAAAoGuoHp7s+r7kqJuSk59Lxv0gGXpiOqRt+vT3t/4zeEU0uwEAAAAAAICup/ewZNfzkiP/lZzckPTbfes+74UHOiYX7daj1AEA6Fqqq6tLHQGAzanqnvTfNytXFp5P1bt3r8I+AMqauTZAZVG3AcpM76FJ935b9xmrl3RMFtpNsxuAoho9enSpIwCwOb0GJSdOTe9S5wDgFTHXBqgs6jZAGerRf+vO77mV5/OKuY05AAAAAAAAQM1BW3f+wAM7JgftptkNQFE1NDSkoaGh1DEAaAc1G6CyqNsAlUXdBihDu7xv687f9f0dk4N20+wGoKjmzp2buXPnljoGAO2gZgNUFnUboLKo2wBlaMC+yeBjt+zcIccl/ffp0DhsnmY3AAAAAAAAQJLs942ke99Xdk73vsmY/9k2edgkzW4AAAAAAACAJNn+kOTQ69rf8O7et3D89ods21xsUI9SBwAAAMrMmmXJ49/I8OdffH7g9Npkz48nPfqVNhcAAABAMQw/OTnqlmTqxcmCWzZ+3JDjCiu6NbpLRrMbAABobe3ypP4LqX3pfWOS3S7Q7AYAAAC6ju0PSY66OVk8LZnxgyydfUe6Ny9Ln/7DkoEHJru+3zO6y4BmNwBFVVNTU+oIAADQKZlrA1QWdRugQgzYNxl7eRYOnJkkGTVqVIkDsT7NbgCKykQAAAC2DXNtgMqibgNUFnW7PHUrdQAAAAAAAAAAeKU0uwEoqpkzZ2bmzJmljgEAAJ2OuTZAZVG3ASqLul2eNLsBKKrGxsY0NjaWOgYAAHQ65toAlUXdBqgs6nZ50uwGAAAAAAAAoOJodgMAAAAAAABQcTS7AQAAAAAAAKg4mt0AAAAAAAAAVJwepQ4AQNcyfPjwUkcAAIBOyVwboLKo2wCVRd0uT5rdABRVbW1tqSMAAECnZK4NUFnUbYDKom6XJ7cxBwAAAAAAAKDiaHYDUFT19fWpr68vdQwAAOh0zLUBKou6DVBZ1O3y5DbmABRVU1NTqSMAsFlVSa8hWbNmbZKkR4/uhX0AlDVzbYDKom4DVBZ1uzxpdgMAAK31HpKcMj9Tp0xJkowbN67EgQAAAACgLbcxBwAAAAAAAKDiaHYDAAAAAAAAUHE0uwEAAAAAAACoOJ7ZDUBRjRo1qtQRAGgnNRugsqjbAJVF3QaoLOp2edLsBqCoampqSh0BgHZSswEqi7oNUFnUbYDKom6XJ81uAACgtbUrkpk/bb1v1DuT7n1KkwcAAAAANkCzG4CimjJlSpJk3LhxJU4CwEatWZo89IHW+0aeodkNUObMtQEqi7oNUFnU7fLUrdQBAAAAAAAAAOCV0uwGAAAAAAAAoOJodgMAAAAAAABQcTS7AQAAAAAAAKg4PUodAICuY86cOTnllFOSJPfdd19GjBhR4kQAANA5mGsDVBZ1G6CyqNvly8puAAAAAAAAACqOZjcAAAAAAAAAFUezGwAAAAAAAICKo9kNAAAAAAAAQMXR7AYAAAAAAACg4mh2AwAAAAAAAFBxNLsBAAAAAAAAqDia3QAAAAAAAABUnKrm5ubmUoeg8xg1alTWrFmTbt26ZdiwYaWOA5SZdevWZd68eUmSYcOGpVs3v7kCKE/rkqbnWu+q3iF+KwtQvsy1ASqLug1QWdTtjjds2LDceOONW/05mt10qJ122inr1q0rdQwAAAAAAACgTNXW1mbSpElb/Tk9OiALtOjdu3dWrlyZ7t27Z/DgwaWOAwAAAAAAAJSZjrpDtJXdAAAAAAAAAFQcN5QHAAAAAAAAoOJodgMAAAAAAABQcTS7AQAAAAAAAKg4mt0AAAAAAAAAVBzNbgAAAAAAAAAqjmY3AAAAAAAAABVHsxsAAAAAAACAiqPZDQAAAAAAAEDF6VHqAAB0TrNmzcptt92Wu+++O9OnT8+cOXOybNmybLfddtlhhx1y0EEH5U1velMOP/zwUkcFYDMuueSS/PjHP255v+OOO+aee+4pYSIAXu7hhx/On//859x+++1paGhIY2Njtt9++wwdOjRjxozJEUcckWOOOSbDhg0rdVSALu3+++/P73//+0yePDnPPvtsli5dmurq6gwZMiT77bdfTjrppJxyyinp3bt3qaMCdDpr165NfX19pkyZ0vKaPn16Vq9enSQ5/PDDc911123RZ99+++259tprM3ny5DQ0NKR3797ZYYcdcuyxx+ass87KHnvs0ZGXwnqqmpubm0sdAoDO45FHHsknP/nJPPDAA+06/vDDD893vvOdjBw5chsnA2BLPPDAA3n961+fdevWtezT7AYoHwsWLMgXvvCF/OEPf9jsse94xzvy5S9/uQipAHi5RYsW5WMf+1j+8Y9/bPbYXXbZJd/+9rdzyCGHFCEZQNfw97//PR/4wAeyYsWKjR6zJc3uJUuW5OKLL84NN9yw0WN69uyZj370o/ngBz/4ij6b9rGyG4AO9eSTT7ZpdO+2227Ze++9s/3222fx4sW5//7789xzzyVJ7rrrrrz+9a/PH/7wh4waNaoUkQHYiNWrV+fjH/94q0Y3AOVj9uzZOe200/LMM8+07Nt9991b5t4rVqzIzJkzM3Xq1E3+pR4A29aKFSvylre8JVOnTm3ZN3jw4Oy3337ZYYcdsnDhwjz22GOZOXNmkmTGjBk566yzcs011+Sggw4qVWyATuWFF17o8Dnx6tWr8653vSsTJ05s2bf33ntnv/32y8qVK3Pvvfdm7ty5Wb16db72ta9lzZo1ueiiizo0A5rdAGwju+yyS9761rfmzW9+c3bYYYdWY+vWrcs111yTz372s1mxYkUaGhrygQ98IDfccEOqqqpKlBiAl/ve976X6dOnJ0ne9KY35Y9//GOJEwHwksWLF+f0009vaXQfccQR+cIXvpB99923zbGrVq3KxIkTs3Tp0mLHBCDJlVde2dLorqqqysc//vG8973vTZ8+fVqOaW5uzg033JBPfvKTWbx4cVasWJGLL744//rXv0oVG6BTGjp0aMaNG5cDDjgg48aNyy233JKf/OQnW/RZ3/72t1sa3dXV1bnsssvyhje8oWV81apV+Z//+Z98//vfT5JceumlGT9+vEd7djDNbgA61LBhw3LZZZfltNNOS/fu3Td4TLdu3fKWt7wlAwcOzLvf/e4kyeTJk3PrrbfmuOOOK2JaADbmiSeeyOWXX54kefOb35yjjjpKsxugjHzpS19qWQH4+te/PldcccVG59+9evXK8ccfX8x4AKznmmuuadl+5zvfmQ996ENtjqmqqsob3vCGdO/ePeedd16SZPr06Zk+fXr22WefomUF6KyOP/743HvvvW0ep9nex3G+3IIFC/KjH/2o5f0ll1zSqtGdFObhn/3sZzN79uzccMMNaW5uzle/+tVN3vKcV65bqQMA0LkcfvjhOfPMMzf6F23rO/nkk3PggQe2vL/pppu2ZTQA2qm5uTkf+9jHsnLlytTU1OTzn/98qSMBsJ5HHnkkv/nNb5IkI0aMyDe+8Y12zb8BKL4lS5bk2WefbXn/xje+cZPHn3TSSa1WfD/11FPbKhpAlzJs2LA2je6tce2112b58uVJCo/xPPvsszd67Gc/+9l061ZoyU6aNCmPPPJIh+VAsxuAEjv44INbtmfNmlXCJAC85Oc//3nuu+++JIX/IBsyZEiJEwGwvl/+8pct2+94xzuy3XbblTANAJuybNmyVu8HDhy4yeN79OiR/v37t7xft27dNskFwNb5+9//3rJ9xhlnbPLxnCNHjsyRRx7Z8v7GG2/cptm6Gs1uAEpq/UnA2rVrS5gEgCSZPXt2vvrVryZJDjvssLzlLW8pcSIA1rd27dpcf/31Le9POeWUEqYBYHMGDx6c6urqlvePPfbYJo9fuHBhFixY0PJ+33333WbZANgyTU1NmTx5csv79jyD+4gjjmjZfuk533QMzW4ASurRRx9t2R4xYkQJkwCQJJ/+9KezdOnS9OrVK1//+tc3+ctkAIrv0UcfzZIlS5IkAwYMyC677JI1a9bk6quvzhlnnJEDDjggu+66a+rq6nL22Wfn5z//eVauXFni1ABdV8+ePXP88ce3vP/Od76TFStWbPT4L3/5yy2ruY866qjsvvvu2zwjAK/Mk08+2VKrq6qqst9++232nP33379l+/HHH99m2boizW4ASmb27NmtfsV29NFHlzANANdff33+9a9/JUnOP//87LnnniVOBMDLTZkypWV7xIgRmTNnTt74xjfmIx/5SCZOnJj58+dn1apVaWhoyM0335xPf/rTOfroo/Pggw+WLjRAF/fJT34y/fr1S5I8/PDDedWrXpVrrrkmTz/9dJqamjJ79uz861//ypve9KZcffXVSZK99torl112WSljA7ARTz75ZMv2kCFDWt3BY2PWf154Y2NjFi5cuE2ydUU9Sh0AgK7rkksuabl1+ciRI/PqV7+6xIkAuq5Fixblc5/7XJJkt912y4UXXljiRABsyJw5c1q9P+ecc1JfX58k2WOPPTJu3Lh0794906dPz8MPP5yk8CPT0047LX/4wx8yduzYomcG6Or22GOP/OlPf8o73vGOzJ49OzNmzMhFF120wWMHDhyY//zP/8wnPvGJbLfddkVOCkB7PP/88y3bQ4YMadc5Q4cObfMZgwcP7tBcXZVmNwAlcc011+Rvf/tby/tPfepT6d27dwkTAXRtl1xyScuvir/2ta+pyQBlavHixS3bLz0SqE+fPvnWt76V173uda2OnThxYt73vvdl0aJFWbFiRd7//vfn5ptvTq9evYqaGYDCs7dvv/32/Pa3v82Xv/zlLF++fIPHHXvssXnDG96g0Q1Qxtav4e1Z1b2h4zb2vwO8cm5jDkDRTZkyJZ/61Kda3r/xjW/Mm970phImAujabr311vz+979Pkpx++uk58sgjS5wIgI3Z0F+Kffe7323T6E6SI488Mj/72c/SrVvhr39mzJiRP/7xj9s8IwBtLVq0KJ/61KdyySWXZPny5Rk2bFhOOeWUvO1tb8vrXve67LjjjkmSG264IW94wxty8cUXt9wND4Dy0tTU1LLd3h+SvnxRwfqfwdaxshuAonrmmWfyjne8o+V/zPfZZ5987WtfK3EqgK5r+fLl+cQnPpEk2X777fNf//VfJU4EwKa8/C/J6urqcvLJJ2/0+IMPPjgnn3xy/vrXvyYpNFHOPPPMbZoRgNaeeuqpnHHGGXnuuefSu3fvfPnLX87ZZ5+dHj3+/dfzzc3Nuf766/PJT34yS5Ysya9//et07949X/3qV0uYHIANWX+V9qpVq9p1zsqVKzf6GWwdK7sBKJq5c+fmrLPOyrx585Iko0aNyq9//ev079+/xMkAuq6vfe1rmTVrVpLkv/7rvzJo0KASJwJgU/r169fq/aYa3Rs65v777+/wTABs3Jo1a/Ke97wnzz33XJLkq1/9at7xjne0anQnSVVVVd74xjfmRz/6Ucu+X/ziF3nggQeKmheAzevbt2/LdntXaL/8uPU/g62j2Q1AUSxatChnnXVWZsyYkSQZPnx4fve732X48OGlDQbQhT388MP52c9+liQ54ogjcsYZZ5Q4EQCbs/3227d6v+eee272nPWPWbp0aZYuXdrhuQDYsL/+9a959NFHkyS77777ZufcxxxzTI4++uiW91dfffU2zQfAK7f+nHzBggXtOmf+/Pkb/Qy2jtuYA7DNLVmyJG9729tSX1+fJBk0aFB+97vfZeeddy5xMoCubdq0aVm3bl2SZM6cOTn11FM3euyiRYtatufNm9fq2A9/+MN51atete2CAtBi9913b/X+5Su9N+TlxyxdujTbbbddh+YCYMNuueWWlu0jjjgiVVVVmz3nyCOPzO23354keeihh7ZVNAC20Ppz8gULFqSpqWmztyWfPXt2y3ZNTU0GDx68zfJ1NZrdAGxTy5cvzznnnNPyH2cDBgzIr3/96+y1114lTgbA+mbMmNFy943NWbVqVavbKS5cuHAbpQLg5fbee+9W75ctW7bZc15+zIABAzo0EwAb19DQ0LLd3lV86z9aaPHixR2eCYCts/vuu6dbt25Zt25dmpubM3Xq1NTV1W3ynIcffrhluz13Z6L93MYcgG2mqakp73jHO3LfffclSfr06ZNf/OIXGTt2bImTAQBAZdp5551b3SHp8ccf3+w56x9TU1Pj+YAARbT+Sr/GxsZ2nfP888+3bA8cOLCjIwGwlaqrq3PQQQe1vL/rrrs2e87dd9/dsn3kkUduk1xdlWY3ANvE6tWr8573vCcTJ05MkvTu3Ts//elPc8ghh5Q4GQAvOfPMMzN79ux2vS677LKW83bcccdWY2eeeWYJrwKg6zn55JNbtv/+979v9vj1jxk/fvw2yQTAho0cObJl+84772zXOS/9XUqS7LLLLh0dCYAOcNJJJ7VsX3PNNZs8dvbs2bnjjjs2eC5bT7MbgA63du3aXHDBBZkwYUKSpEePHvnBD36QY445psTJAACg8r397W9Pz549kyT3339//vnPf2702AceeCA33nhjy/szzjhjm+cD4N+OPvrolu0nnngi11133SaPv+OOO3Lbbbe1vD/22GO3WTYAttzpp5/ecsekJ598Mr/5zW82euxXvvKVrF27NklSV1eX/fffvygZuwrNbgA6VHNzcz760Y/mr3/9a5KkW7duufzyy/Oa17ymxMkAAKBz2GWXXfL2t7+95f0FF1yQv/3tb22Ou+uuu3Luuee2/MXaQQcdZF4OUGQnnnhidtttt5b3n/jEJ/KLX/yipTa/pLm5OTfccEPe8573tOwbMWJE3vCGNxQtKwDtN2TIkLz3ve9tef+5z30uN9xwQ6tjVq9ena985Sv505/+1LLvU5/6VLEidhlVzc3NzaUOAUDncdVVV+Uzn/lMy/tdd931Ff0K+ctf/vK2iAXAVrr66qvzkY98JEnhNub33HNPiRMBdG0rV67MWWed1aoe77nnnhk3bly6d++e6dOn56GHHmoZGz58eP785z+3up0uAMUxefLknHHGGVmxYkXLvuHDh6euri6DBg3KkiVLMnny5MyaNatlvHfv3vnd736XQw89tBSRATqlc845Jw0NDa32zZ8/P/Pnz0+S9O3bd4OPj/jlL3+Z2traNvtXr16dt73tba0eP7HPPvtkv/32y8qVK3PPPfdk7ty5LWMf+9jHctFFF3XQ1fASzW4AOtSll17a6rmur9Ts2bM7MA0AHUWzG6D8LF68OJ/61KdarRTZkAMPPDA//OEPNboBSuiBBx7IhRdemKeeemqzx+688865/PLLc8ghhxQhGUDXcdhhh+XZZ599xefdfffd2WmnnTY4tnjx4lx88cX585//vNHze/bsmY985CO58MILX/F3s3k9Sh0AAAAAgFduwIAB+d73vpdzzjkn1113Xe699940NDRk7dq1GTp0aA466KC87nWvy0knnZSqqqpSxwXo0g488MDcfPPN+ec//5m///3veeihhzJ37twsW7Ysffv2zZAhQzJ27Ni85jWvyX/8x3+kZ8+epY4MQDsMGDAgP/jBD/LWt7411157bSZPnpy5c+emZ8+eGTFiRI499ticddZZ2XPPPUsdtdOyshsAAAAAAACAitOt1AEAAAAAAAAA4JXS7AYAAAAAAACg4mh2AwAAAAAAAFBxNLsBAAAAAAAAqDia3QAAAAAAAABUHM1uAAAAAAAAACqOZjcAAAAAAAAAFUezGwAAAAAAAICKo9kNAAAAAAAAQMXR7AYAAAAAAACg4mh2AwAAAAAAAFBxNLsBAAAAAAAAqDia3QAAAAAAAABUHM1uAAAAAAAAACqOZjcAAAAAAAAAFUezGwAAAAAAAICKo9kNAAAAAAAAQMXR7AYAAOjkRo4c2fLamMMOO6zlmFmzZnXI91566aUtn3nppZd2yGdSWU477bSWPwN33nlnyXL8+Mc/zsiRI7PjjjtmypQpJcvBpnV0zdgWda0zWbhwYUaPHp2RI0fm4x//eKnjAADAFulR6gAAAABba8mSJZkwYUJuv/32TJkyJYsWLcqiRYvSs2fPDBw4MLvttlsOOOCAvPrVr87BBx9c6rhAEc2fP7+lcfr6178+48aNK3EiKA+DBw/Oeeedl0svvTS/+93vcvbZZ/v/DwAAKo5mNwAAULFWrFiRH//4x/nhD3+YxsbGNuOrVq3KsmXLMmfOnNxxxx254oorsttuu+WjH/1o3vCGN6Sqqqr4odnm1l/BPnv27BImoRxcdtllWbJkSaqqqnLRRReVOk5RzJo1K+PHj0+S7LjjjrnnnntKnIhy9e53vzs/+tGPsmTJknzpS1/KddddV+pIAADwimh2AwAAFWn27Nk599xzM3369Fb7R44cmX322SeDBw/O2rVrM3/+/EybNi3z589Pkjz11FO54IILMmfOnJx//vmliA4UyaxZs/Lb3/42SfLa1742e+65Z4kTQXkZMGBAzjnnnFx55ZW56667ctttt+WYY44pdSwAAGg3zW4AAKDizJo1K69//eszb968JElVVVXe+MY35oMf/GBGjx7d5vjm5uZMmTIlP/3pT/PHP/4x69aty4oVK4odu6xZ+Uln9MMf/jCrV69Okpx77rklTgPl6eyzz873v//9NDc358orr9TsBgCgonQrdQAAAIBXYtWqVTnvvPNaGt3V1dX53//931xxxRUbbHQnhWb4AQcckMsvvzz/93//l7333ruYkYESWLx4ca6++uokyc4775yjjz66xImgPI0aNSpHHnlkkuT222/Po48+WuJEAADQfprdAABARbnyyiszZcqUlvff+ta3ctJJJ7X7/L333jt//vOfrVyDTu6GG27I8uXLkySnnnpqqqqqSpwIytfrXve6lu2XfiQCAACVwG3MAQCAirFixYr89Kc/bXl/yimn5PWvf/0r/py+ffvmkEMO2eDY4sWLM2HChNx5552ZNm1aZsyYkaVLl6Z3794ZPHhwDjjggJx00kk59dRT063bpn8/fPXVV+cjH/lIkuT000/Pt7/97STJjTfemN/97neZNm1aFixYkP79+2fMmDE57bTT8uY3v7ndTbnFixfn5z//eW688cbMmDEjq1evTm1tbcaPH59zzjknY8eObfc/k8MOOyzPPvtskuTuu+/OTjvttMnjJ06cmN/85je57777smDBggwcODC77LJL3vCGN+TMM89Mnz592v3dq1evzsSJE3PHHXfkwQcfzFNPPZXGxsZUVVWlpqYm++yzT4499ti89a1vTb9+/Tb4GXfeeWdOP/30NvtHjhy5weM3dY2zZ8/ONddck9tuuy0zZ87M888/n759+2bkyJE56qij8ra3vS277757u69vc9bPOHv27CTJ1KlTc/XVV+eOO+7I3Llz09jYmNe+9rWt/vwnyUMPPZRb/397dx6XU9r/AfwTaUGLJaVQjbVhTLLHMEa2oTFIiwdDj208QxPDeD22B+MxYwjTvGaSLRpKMWQpPBiyp4ShJNJiTfu+n98fvTq/++7u7j7V3aR5fd5/nfs+33Nd1zn3OVcvvue6rsuXcfv2bcTGxiIlJQXFxcUwMDCAubk5bG1tMWPGDKXXQVZV98DLly/x22+/4dy5c3jx4gWKi4thamqKYcOGYcGCBejQoYParsPRo0exZMkSlJSUAAC++eYbuLu717q8Y8eOidtjxoyRdExaWhoCAgLwxx9/IDY2FhkZGSgtLUXz5s1hYmKCLl26oF+/fhg3bhw6depUbVm5ubnw9/fHhQsXEBMTg/T0dOjo6MDExASDBw/GlClTYGNjo7JNNbk/xowZI/Y5FZ4/f670968oryqxsbE4cuQIrl69iufPnyMzMxN6enowNzfH8OHDMWPGDJiYmKhsfwV19hl18eTJExw4cAChoaF49eoVAKBjx44YNWoUZs+ejXbt2lV5nLe3N9atWwcAGD58OA4dOiSpvmvXrsHR0REAYGRkhNu3b6NZs2Y1brdsHzd48GAcOXIEgiAgJCQEAQEB4t8TfX19WFlZYfLkyZgyZYrKv1MVxo4dixUrVkAQBBw/fhxr1qzhCyJERERE1Cgw2U1ERERERI3G6dOnkZqaKn6eN2+eWssPDg7GV199hcLCQoV9xcXFyMnJQUJCAoKCguDp6Yk9e/aoTHjJysrKgpubG86dOyf3fWpqKkJDQxEaGopjx45h165dKhM/YWFh+PLLL/H69Wu57+Pi4hAXFwd/f38sWbKkTsnCqpSUlODbb7+Fv7+/3PfJyclITk5GWFgY9u/fj127dkkq78WLFxgzZgzS09Or3P/69Wu8fv0af/zxB3bs2FGv68mWlZVh69at8PLyQkFBgdy+oqIiZGRk4OHDh9izZw++/PJLfPvtt/WSDNq6dSt27NiB0tLSauPGjx+Pu3fvVrkvJSUFKSkpiIiIgJeXF5YvX46FCxfWqB1nzpyBu7s7srKy5L5/+vQpnj59Cj8/P+zcuRN2dnY1Krcq3t7eWL9+PQRBQJMmTbBx40bMnDmz1uVlZGTg9u3bAICWLVvC2tpa5TFnz57FkiVLkJGRobAvKysLWVlZePz4MYKDg+Ht7Y2IiAilZf3vf//D8uXLxeUWKhQWFiIzMxMxMTHw8fHBpEmT8OOPP9Yo0Sv1/qitwsJCrFmzBn5+fgp1pKWlIS0tDZGRkfDy8sKqVaswe/bsastTd59RFwcPHsTq1asV+vjo6GhER0fjwIED2LZtG0aPHq1wrIODA77//nsUFhbiypUrePHihaSXSGTP28HBoVaJ7qrk5ORg8eLFOHv2rNz3b9++xdu3bxEaGgpfX1/s3bsXbdu2VVle27Zt0b17dzx69AjJycm4d++epOeGiIiIiKihMdlNRERERESNxrVr18RtMzMzpaOzayslJUVMgrRv3x7dunWDkZERdHV1kZubiydPnuDPP/+EIAiIiorC5MmTce7cObRu3Vpl2aWlpZg7dy6uXr0KLS0t9O3bFxYWFigsLMStW7fEEZZ//PEH1q1bh++//15pWffv38f06dORm5srfvfhhx+iR48eKC4uxp07dxAfH48tW7bAwMCgjldFnpubG44fPy5+NjAwgK2tLVq1aoUXL17gxo0bePz4MWbOnIlRo0apLC8/P19MdBsaGqJbt27o0KEDmjdvjuLiYiQmJiIyMhIFBQVIT0/HjBkzcOTIEYXf3sTEBLNmzQIA+Pj4iN9XfFdZy5Yt5T6XlpZiwYIFCA4OliuzT58+aN26NfLy8hAZGYn4+HiUlJTA09MTaWlp2Lx5s8pzrIlff/0VHh4eAAALCwtYW1tDV1cXSUlJ0NSU/yd8xT2jra2Nbt26wcLCAvr6+hAEAW/evEFkZCTS0tJQXFyMjRs3AoDkhPeVK1ewYsUKlJaWwszMDH379oWenh4SExNx48YNlJSUoKCgAAsWLMDFixdr9NJHZZs2bcLPP/8MANDS0sJPP/0kN6VybVy7dk1M1NrY2Chcu8ru3buHefPmiaPKdXR0YGNjg44dO0JLSws5OTmIj4/Ho0ePkJ+fX21ZQUFBWLRokVh/06ZNMWDAAFhYWCA3NxdhYWHiSyrHjh1DYmIiAgICoKOjo/K8VN0fXbt2xaxZs5CTk4MjR44AKL/XHRwcVJYNAHl5eZg2bZr4okBFPR988AEMDAyQkZGB8PBwvH79GgUFBVi1ahWys7OxePFipWWqu8+orbNnz2Lt2rUAyp/tAQMGoEWLFoiLi8Pt27dRVlaGjIwMzJs3Dz4+Pvj444/ljm/dujXGjRuH48ePo6ysDAEBASpfJsrMzJTrU1xcXNR2Pu7u7jh79iw0NDRgbW2Nbt26oaioCOHh4UhKSgIAREREwMnJCcePH4eenp7KMgcMGCCu1x0aGspkNxERERE1DgIREREREVEjYWtrK5iamgqmpqbCvHnz1F7+2bNnBU9PTyEuLk5pTEJCgjBt2jSxHUuXLlUa6+/vL8ZZWloKpqamwvTp04WXL1/KxRUXFwvr168XY83MzITExMQqyywsLBSGDx8uxvbr10+4ffu2QlxAQIBgaWkpWFhYiLGmpqZK2zpgwAAxRlndgYGBcmWtXLlSyMvLk4t5/fq1MHXqVMHU1FSu7i1btlRZZlJSkrBq1Srhzp07QmlpaZUxWVlZwrp168Syhg4dqjRWEARJ51vZ5s2bxWOsra2F06dPC2VlZQpxJ06cEHr06CHGBgUFSa5DSns7deok9OjRQwgJCVGIKygokPu8YsUK4fz58wq/QYWSkhLB399f6NKli2BqaiqYm5sLCQkJStshew9YWloKXbp0EY4cOaJwHR49eiTY2NiIse7u7krLnDJlihh37do1hfYtXbpU3N+1a1fh8uXLSsuqiQ0bNojlrlu3TmW8q6urGD9nzhwhPT29yrj8/Hzh/PnzwvLly6vc/+zZM6Fr165iWePHj1foT0pLSwUvLy+hQ4cOYtyqVauUtq0290diYqJ4zIABA1Sef4XFixfLPWeVfzNBKP/dfHx8xD6tY8eOVfZBglA/fUZNyN7TFhYWQocOHQQvLy+F/iMmJkYYMWKEXB9Q1T1w7do1MWbgwIFV9hGy9u3bJ8ZPmjSpTuciW3fFdRo0aJBw9+5dhdiDBw8K5ubmYvyyZcsk1eHr6yseM3v27Dq1l4iIiIjoryJt4R4iIiIiIqJ3QMV6wgDQvXt3tZc/evRofPXVV7C0tFQa06lTJ/j4+MDKygpA+cjMqqY9rqywsBADBw7Evn370L59e7l9mpqaWLVqlTiKThAEnDhxospyAgMDERsbC6B89Kmfnx/69eunEDd16lRs2bIFRUVFKtsmRVlZGX744Qfxs6OjI7777juF6ZeNjY2xf/9+WFlZSaq7Q4cO2LBhA/r06aN0bVk9PT2sWbMGM2bMAFA+VfulS5dqfzKVJCUlwdPTE0D56PJjx47h008/rXKKcnt7e+zevVv87OHhAUEQ1NaWsrIy7Nu3D2PHjlXYp62tLfd506ZNGDlypNIpsJs2bQonJyds2bIFQPlU/L6+vpLaUVRUBG9vb0yZMkXhOnTv3l3uXjh16pQ4IlqqgoICzJs3D35+fgDKR80GBASobYr66OhocbtLly4q42/dugWg/Bpv374dhoaGVcbp6Ohg5MiRcucva9u2beKMCxYWFjh06JBCf9KkSRPMnz8fq1evFr/z8fFBYmKiynbW5P6oqVu3bomjwS0sLBAUFARbW1uFuKZNm+KLL77Apk2bAJTPirB9+/Yq21offUZtFRUVYcWKFZg/f75CX9OtWzf4+/uLs3QkJydXOa26ra0t3nvvPQDl/caVK1eqrVN2CnN1juouKipC8+bN4efnhw8//FBh/7Rp08TfBwAOHTqE+Ph4leV27dpV3I6KilJLW4mIiIiI6huT3URERERE1ChkZ2fLJdT09fUbrC3NmjXD5MmTAZQn7cLCwiQdt27dOqXTKWtoaMDR0VH8rGwt5orkIADMnj272kTe5MmTq0yE18alS5fw8uVLAOUJP9lEXWW6urpYs2aNWuqV5eTkJG6rSjLVxO7du8Upp93d3WFhYVFt/JAhQ8QpjmNjY/HgwQO1tWX8+PEYNGiQ2soDgAkTJqBFixYApF83Ozs7jBgxQun+kSNHol27dgCA3Nxc8QUMKbKysjB9+nScOXMGQPmSBMeOHVPrlMmyiePKL5dUJScnB0D5vVtxrWoqMzMTJ0+eFD+vWrWq2n5qzpw54ks7ZWVlOHjwoMo66uP+qODt7S1ur1mzRuXyDE5OTmL/c+nSJaSlpcntfxf6DFmdOnXC/Pnzle5v166d3LTk/v7+Vb7IMm3aNLkYZR48eIA///wTQPnfqwkTJtSm2UrNmzev2r7KxcUFvXv3BlD+ApXs3w5lTExMxO1Xr17V27rwRERERETqxDW7iYiIiIioUahIRlWobUJKqszMTNy5cwcxMTFIT09HXl4eysrKxP1PnjwRtx8+fIjRo0dXW565uTk++OCDamN69eolblesuSorJycH9+7dEz9LWYd36tSpCA8PVxmnyvXr18XtTz75RGUi7KOPPoKJiYm4NrEUxcXFiIyMRFRUFJKTk5GTkyOXbJG9Bx4+fFiD1lfv4sWL4vakSZMkHTNkyBBxdHlYWJjK31aqiRMn1uq4qKgoPHjwAM+fP0d2drbCCNmK0dmPHj1CWVmZ0lH0FVQl5jQ0NPD+++8jOTkZQPn9WjHbQXWSk5Mxffp08ffr2rUrDh06BFNTU5XH1kRKSoq43apVK5XxpqamSEhIQEZGBoKCgmr1O4SHh6OwsBBA+Uh1VetPN2nSBE5OTli/fj2A8nXGVant/aFKSUkJQkNDAZTPpGBnZyfpOFtbWzx58gSCICA8PFyuH/wr+oya+Pzzz1Wu3T558mT85z//QWlpKV6/fo2nT58qvFDk6OiIzZs3o6ioCGfOnEF6enqV95hsIvzzzz9XOgNDbUnp/x0cHHD//n0A0u4v2d+opKQEaWlpMDIyqn0jiYiIiIj+Akx2ExERERFRo9CyZUu5zxVTBavby5cvsWnTJpw+fVpMXKmSnp6uMqZHjx4qY2QTJtnZ2Qr7o6OjxYR7y5YtJU3l3rdvX5UxUsiOXpZSpoaGBmxsbBAcHKwyNj8/H56envD19VUYHaqM1Dgp5cTFxQEAtLS04OHhIem4x48fi9sVo1fVoWIkplQBAQHw9PQUz0GV4uJiZGVlKZ2mu0JN79fKL6NUJSEhAd988w0SEhIAAH369MGBAwdUJkFrIy8vT9yWkmS0t7fHzz//DAD417/+hZMnT8Le3h5DhgxB27ZtJdUp+4xYW1urTKwCQP/+/cXthw8fQhCEKqfPr1DT+0Oq6Oho8ZppampKHmUt+/JN5eegPvuM2pDSBkNDQ3Tu3Fl8vh88eKCQ7G7Tpg3GjBmDkydPorCwEMeOHYOrq6tcTEFBAY4dOyZ+lh0Nrg6tW7eudrmNCrLnHBUVpfL+qvysyD5HRERERETvKia7iYiIiIioUdDT04OmpqY4lXlWVpba63jw4AGcnJwkrcEtS0qiT09PT2VMs2bNxO2q1kBOTU0Vt01NTatNWlQwMzNTGSOFbN1Sy5QyWjcjIwOOjo41HqmtrpcdKkYmA+Xr4Pr4+NS4jMzMTLW0BYDkxK8gCFi6dCkOHz5c4zpyc3NVJrulLBMgm8wtLi5WGb9ixQrxvh46dCj27duH5s2bqzyurqSsqe7m5obr16/jzp07EAQBISEhCAkJAQBYWlpi4MCBGDp0KEaNGqXw4k0F2WekQ4cOktrWsWNHcbuoqAg5OTnV9hX18WIAALnR1Onp6bV6Dir3m/XVZ9SW1DaYmZmJyW7Zc5D1j3/8Q5yy3s/PTyHZfebMGfF69OrVS20zP8i2saZxhYWFKu8vKc8KEREREdG7hsluIiIiIiJqNDp06ID4+HgA8iNr1aGwsBBz584VExRt2rTB9OnTMXToUFhYWKBVq1bQ0dERE8yHDx/GkiVLAEBuenNlpCSmVZFN8EqdElddycSajpSVWvfKlSvFRLeWlhYcHBwwatQodOnSBcbGxtDR0UHTpk0BlE+VXbFesZRrLkVVI+hrqqoXE2pL6rU9ePCgXKJ7xIgRmDhxIj744AO0b98eurq60NLSEvcPHDgQz58/B/DX3a+Vyb6s8vLlS2RnZ9dbsrt58+biCzEFBQWS4o8ePYq9e/fCx8dHbhmBZ8+e4dmzZ/D394euri5mzZqFpUuXVjsKVup5VY5TlYxU91TYFdTxHFRe37m++ozaktoG2ThlLzJV/F2Ij49HVFQU7t+/LzfqXnZ9bBcXl1q2WFobq1PT+6vys/JXvIxCRERERFRXTHYTEREREVGj0b9/fzHZHRkZqdayg4ODkZiYCAAwMTFBcHAwjI2NlcbX1zTq1ZFdpzw/P1/SMeqahlY26aGuul+9eoWgoCAA5esX//bbbxgyZIjSeCkj6GtKNmmkp6eHR48eqb2O+uDl5SVuf/PNN3B3d682vj6uXU1t3rwZHh4eiI+PR1xcHBwcHHDkyJFqn7PaMjIyEpPdUqe819LSwoIFCzB//nxERUXh1q1bCA8Px61bt8SRz/n5+fj1119x8+ZNBAYGyt0/ss+I1OeucpyyUeP1TbbtVlZWOH/+vFrL/Kv7q6pIbYNsnLLfQ0NDAy4uLti0aROA8uR2RbI7MTFRXB9bR0cHkydPrkuzVbaxOjW9v2RHsmtqatbbTAJEREREROrUpKEbQEREREREJJVsIvT58+e4ffu22sq+evWquD137lyVCbiKUbJ/pTZt2ojbr169kjTlrLrWk5at+8WLF5KOUVX3tWvXxHMYMWJEtYluoH6uuZGRkbidnZ0tOYnUkF68eIFnz54BAAwMDPDVV19VG5+dna3WqdZrq3379ggMDISFhQUAIC4uDlOnTsWbN2/UXlenTp3E7VevXtXoWA0NDfTs2ROurq745ZdfEBERgbNnz8LJyUmMiYyMxP79++WOq80zIjuCXEtLq8GS3bLrkr99+1YtZdZHn1EXtWlDdcleJycncemJ48ePi33H4cOHxX5t/PjxkpYEqCmp10k2TltbW+X9JTudffv27cVZNYiIiIiI3mVMdhMRERERUaMxYcIEueSDt7e32sqWTbj16NFDZfytW7fUVrdUVlZWaNKk/J9x2dnZkqZyj4iIUEvdvXr1Erfv3LmjMl4QBJWj72WvuZWVlcoy6+OaGxsby60TrM4XKOqL7HXr3Lmz3FrvVQkLC3tn1uI1NTWVS3g/ffq0XhLesvfT06dP61xer1694OHhgWnTponfnTt3TiGmwt27dxWm9a5KeHi4uN2zZ0+1TR9f03J69uwJbW1tAEBKSor4MkVd1EefURdS2pCZmYknT56In6tba9vIyAijRo0CAGRlZSE4OBhlZWUICAgQY+pjCnOgfAR2xSwn1ZHt/99//32V90VsbKxcPBERERFRY8BkNxERERERNRq6urpwdXUVPwcHB+P06dM1LicvL08hqSmbBFA1uvf+/fu4e/dujeutq5YtW+LDDz8UPx89elTlMUeOHFFL3ba2tuL2xYsXkZ6eXm381atXVY6orUjcA6qveX5+vuRz0dHREbeLi4tVxtvZ2YnbBw4ckFRHQ6rJdQPevXMyNTVFQECAQsI7OTlZbXVYW1uL21FRUWortyK5CSiOgO7Xr5+YME5NTcWFCxeqLatyYlTVzAY1UdEOQNqa8rq6unL1Vx61Xhv10WfURVBQkMoXEI4dOybGGBsbo3PnztXGT58+Xdz28/PD5cuXxdHUlpaWGDx4cB1brZyU/l82Rsr9JfusyD5DRERERETvMia7iYiIiIioUVm4cKHcaLvFixcrjLCszqNHj2Bvb4/Q0FC5783NzcXt6srLz8/H8uXLa9Bi9ZIdKbhnz55qR60GBQUhLCxMLfUOHz5cHAGdn5+PjRs3Ko0tKCjA+vXrVZYpO9X0hQsXqk1ErVu3TvL0yoaGhuK27LS8ysyfP1+crjckJASHDx+WVA8AtSZoperUqZP4ckZMTAwSEhKUxgYFBall/WV1MzMzQ0BAgPjcPX36FA4ODmq7nkOGDBF/08jIyGoTvoWFhcjNzZVUruy00LJTfwPlU8rb29uLnzds2FDtWun79u1DdHQ0gPIXGGQTp3Wlr68vvhSRmpoq6aWPhQsXyrWtch9Znap+t/roM+oiPj4eu3btUrr/7du32LZtm/jZ2dlZ5UjoYcOGif3YzZs3sXXrVnFffY3qruDt7Y3ExESl+w8fPiy+lKWhoQFnZ2eVZcr+vRg2bFid20hERERE9FdgspuIiIiIiBoVbW1t7Ny5U0w0FRQU4J///CcWL14sNwWrLEEQcPfuXbi5uWHUqFF49OiRQozsiM3AwEB4eXkpJF+fPXsGFxcX/Pnnn2jevLkaz0o6BwcHcbRhQUEBXFxcqpye9/fff8eSJUugpaWllnqbNm2KZcuWiZ/9/PywZs0aFBQUyMUlJydj1qxZiIqKUln3kCFDoKurC6A8EfX1118rrC2dnZ2N5cuXw9fXV/I1l52G/tSpUyrjLSws4ObmJn5eunQp1q9fj7S0tCrjS0pKcPnyZSxatAhjxoyR1CZ1at26NWxsbACUjw6eN2+e3NTLFd/7+PjAzc0NTZs2lRvt/q4wMzNDYGBgvSS8DQ0N0b9/fwBATk5OtTMxJCcno3///li/fj3u3bunNC40NFQumTlixAiFGHd3d7Ro0QJA+Zrk06ZNU3gZoaysDLt378a6devE72bNmoWOHTtKOjcptLW1YWlpCaB8doMzZ86oPGbw4MGYOnUqgPJ7/IsvvoCnp6fSFwEKCgpw5swZzJ49G7Nnz1bYXx99Rl1oaWlh48aN2L17N8rKyuT2xcbGwsXFBSkpKQDKpyifO3euyjJlk8iy07BramrC0dFRzWfw/7S0tJCTkyP+Pars8OHDWLFihfjZxcVFvB+USUlJQUxMDACgXbt26N27t3obTURERERUTzQbugFEREREREQ1ZW5ujlOnTmHWrFl49OgRysrKcPToURw9ehQdO3aElZUVWrdujdLSUrx9+xYPHz5UGBVckZCqMHz4cAwaNAg3b96EIAjYsGED9u/fj169ekFfXx/Pnj1DeHg4SktLYWJigjlz5uC77777K08bQHkS66effsLUqVORl5eHFy9ewN7eHn369EH37t1RVFSEO3fuiOu5btiwAatXr1ZL3Y6Ojrh48SJOnjwJoHxk+dGjR2Fra4tWrVrh5cuXuH79OgoLC9GpUyeMHj0au3fvVlqeoaEhFixYII6m/P3333Hx4kXY2NjAxMQEb968wY0bN5CXlwdNTU3897//xddff62ynZ9++ikuXboEANi4cSMuXryI7t27yyXSFi9eLDcCfMmSJUhKSkJgYCAEQcDOnTuxb98+9O7dG+bm5tDV1UVOTg6SkpIQHR2NvLw8AECrVq1qeBXVY9myZZg2bRrKysrw4MED2NnZoV+/fjA3N0dubi7CwsLEdbC//fZbHDx4EM+fP2+QtlanIuE9depUJCQkiFOaBwYGol27dnUqe9KkSbh58yYA4OzZs+jXr5/S2MzMTOzcuRM7d+6EoaEhevXqBRMTE2hrayM1NRXR0dFySev33nsPc+bMUSjHwsICP/74IxYtWoTS0lJERERg2LBhGDBgACwsLJCbm4tbt27JzThgY2ODlStX1ulcq/Lpp5/C09MTALBo0SIEBATA0tISmpr//19Ba9askTvmhx9+QHJyMi5fvoyioiJ8//332LFjB/r06QMzMzNoaWkhKysLCQkJiImJQWFhIQAoTYyqu8+oi5UrV2Lt2rVYu3YtvLy8MGDAALRo0QJxcXEICwsTE+CamprYunWr5Gfb2dkZHh4ecrMH2NnZwcjIqF7OAwD69u0LQ0NDhISEYNy4cbCxsUHXrl1RVFSEiIgIuXu1a9eukv4GnDlzBoIgAAAmTpwot1wCEREREdG7jMluIiIiIiJqlDp27IgTJ07A29sbu3btEkcEJyUlISkpSelx77//PpYuXYqxY8cq7PPy8sKMGTPEkXKJiYkK08R269YNO3fuFEfwNQRra2v4+vriyy+/FEfBRkZGyrWpSZMm+Prrr+Hq6qq2ZDcAeHp6QkdHB4GBgQCAjIwMBAcHy8V06dIFe/bsQVBQkMry3N3dkZSUJK7HnZGRgYsXL8rFGBgYwMPDAz179pTURkdHR/z+++/iiwvXr1/H9evX5WJmz54tl+zW0NDA9u3b0bt3b2zduhUZGRkoKipCeHg4wsPDq6xHQ0NDHD38V/voo4+wceNGrF69GiUlJSguLsaNGzdw48YNMaZJkyZwc3PDokWLcPDgwQZppxSVE95PnjxRS8L7s88+w7p165CXl4dTp07h3//+d5XTUmtqakJbW1tM3GZkZODq1atKyx08eDB++eUXpTMNTJw4Ec2bN8eyZcvw9u1blJSUVHkPAsDnn3+OLVu21MvI+4ULFyIkJARPnjxBcXGxwnMFKCa7tbW14evrCw8PD+zcuRP5+fnIz8+vsu0VmjVrJs40UBV19xm1NWbMGGhpaWHt2rV49epVlXUZGBhg69atGDlypORyjY2NYWdnJzd6vr6nMAeAbdu2obi4GOfPn0dERAQiIiIUYvr06YO9e/dCX19fZXmys2A4OTmpta1ERERERPWJyW4iIiIiImq0WrRoAXd3d/zzn//ExYsXERoaivv37yM1NRUZGRlo1qwZDA0N0aVLF/Tp0wdjx46VW++7MiMjIwQFBcHPzw9BQUGIiYlBfn4+2rRpg86dO+Ozzz7D5MmToaur26DJbgAYNGgQLl26BB8fH4SEhCAhIQHFxcUwNjbGoEGDMH36dPTp00ft9TZr1gzbt2+Hg4MDDh48iNu3byM1NRUGBgawsLCAvb09nJ2dFUbOK9O0aVPs2LEDEyZMwMGDBxEZGYnMzEwYGBjAzMwMo0ePhrOzM0xMTKp9iaFyG/39/eHn54fg4GDExMSIyWtVXF1d4ejoiCNHjuDKlSuIiopCamoqCgsL0bJlS7Rv3x7dunXD4MGD8cknn8DMzExSm+rDzJkz0b9/f+zatQvXr1/HmzdvoKOjAxMTEwwZMgTOzs7o1atXg7WvJuoj4a2vrw8nJyfs27cPiYmJuHLlSpXrELdv3x4PHjzA1atXERYWhvv37yM+Pl5c67ply5YwMzODtbU17O3tJa1lPGrUKFy7dg3+/v44f/48Hj9+jLS0NOjo6MDY2Bi2trZwcHCoNklcV/r6+ggODsb+/ftx4cIFxMbGIisrS+X63RXTj7u6uiIwMBBXr14V219SUoKWLVuiQ4cO6NGjB2xtbTFy5Ei0adNGaXnq7jPqYubMmRg4cCB8fX1x5coVvHr1CkD5y1N2dnZwdXWFsbFxjcsdN26cmOxu3759lVPcq5uenh58fHxw6tQpBAYGIjo6GikpKdDX14eVlRUmTZqEqVOnShqhnZiYKL7gMXToUFhZWdV384mIiIiI1EZDqJijiIiIiIiIiIjobyQpKQkfffQRiouLMWbMGOzdu7ehm0R/Q+7u7ggICAAAuLm5Yfny5Wqv4/r16+Ka6oMHDxZnw1CHjRs34pdffgFQvra6lBc6iIiIiIjeFVyAh4iIiIiIiIj+ljp27ChOKX3u3DnExsY2cIvo7yYnJ0ecArxJkyZwdnZu4BbVTFZWFnx9fQGUJ9GZ6CYiIiKixobJbiIiIiIiIiL621qyZAn09PQgCAK2bdvW0M2hvxk/Pz/k5eUBAD7++GN06tSpgVtUM3v27EF2djaaNGmCVatWNXRziIiIiIhqjMluIiIiIiIiIvrbMjIywtKlSwEAJ06cwP379xu4RfR3kZSUhB07doif586d24CtqbnU1FR4eXkBAJydnWFtbd2wDSIiIiIiqgXNhm4AEREREREREVF9mjt3bqNLRNK7ac2aNQCAN2/e4MKFC8jPzwcADBkypNFNAd6mTRvExMQ0dDOIiIiIiOqEyW4iIiIiIiIiIiIJ9uzZo/Bd27ZtsWXLlgZoDRERERERcRpzIiIiIiIiIiKiGmjatClMTEzg7OyM4ODgRrdWNxERERHR34WGIAhCQzeCiIiIiIiIiIiIiIiIiIioJjiym4iIiIiIiIiIiIiIiIiIGh0mu4mIiIiIiIiIiIiIiIiIqNFhspuIiIiIiIiIiIiIiIiIiBodJruJiIiIiIiIiIiIiIiIiKjRYbKbiIiIiIiIiIiIiIiIiIgaHSa7iYiIiIiIiIiIiIiIiIio0WGym4iIiIiIiIiIiIiIiIiIGh0mu4mIiIiIiIiIiIiIiIiIqNFhspuIiIiIiIiIiIiIiIiIiBodJruJiIiIiIiIiIiIiIiIiKjRYbKbiIiIiIiIiIiIiIiIiIgaHSa7iYiIiIiIiIiIiIiIiIio0WGym4iIiIiIiIiIiIiIiIiIGh0mu4mIiIiIiIiIiIiIiIiIqNFhspuIiIiIiIiIiIiIiIiIiBodJruJiIiIiIiIiIiIiIiIiKjRYbKbiIiIiIiIiIiIiIiIiIgaHSa7iYiIiIiIiIiIiIiIiIio0WGym4iIiIiIiIiIiIiIiIiIGp3/A8J0fn/4rd0IAAAAAElFTkSuQmCC;" vertex="1" parent="1">
          <mxGeometry x="176" y="465" width="497" height="296.31" as="geometry" />
        </mxCell>
        <mxCell id="E95NTjMqibK0115tFfaJ-19" style="edgeStyle=orthogonalEdgeStyle;rounded=0;orthogonalLoop=1;jettySize=auto;html=1;exitX=0.25;exitY=1;exitDx=0;exitDy=0;entryX=0.5;entryY=0;entryDx=0;entryDy=0;" edge="1" parent="1" source="E95NTjMqibK0115tFfaJ-13" target="E95NTjMqibK0115tFfaJ-18">
          <mxGeometry relative="1" as="geometry" />
        </mxCell>
        <mxCell id="E95NTjMqibK0115tFfaJ-21" style="edgeStyle=orthogonalEdgeStyle;rounded=0;orthogonalLoop=1;jettySize=auto;html=1;exitX=0.75;exitY=1;exitDx=0;exitDy=0;entryX=0.5;entryY=0;entryDx=0;entryDy=0;" edge="1" parent="1" source="E95NTjMqibK0115tFfaJ-13" target="E95NTjMqibK0115tFfaJ-20">
          <mxGeometry relative="1" as="geometry" />
        </mxCell>
        <mxCell id="E95NTjMqibK0115tFfaJ-13" value="&lt;div&gt;&lt;b style=&quot;&quot;&gt;&lt;font style=&quot;color: light-dark(rgb(0, 0, 0), rgb(255, 102, 102)); font-size: 20px;&quot;&gt;Calculating the Confusion Index (CI)&lt;/font&gt;&lt;/b&gt;&lt;/div&gt;&lt;div&gt;&lt;span style=&quot;font-size: 18px;&quot;&gt;Calculate the normalized sum of the distractors as \(M\)&lt;/span&gt;&lt;/div&gt;&lt;div&gt;&lt;span style=&quot;font-size: 18px; background-color: transparent; color: light-dark(rgb(0, 0, 0), rgb(255, 255, 255));&quot;&gt;$$M = \sum_i p_i, p_i &amp;gt;= \text{knee}$$&lt;/span&gt;&lt;/div&gt;&lt;div&gt;&lt;span style=&quot;font-size: 18px; background-color: transparent; color: light-dark(rgb(0, 0, 0), rgb(255, 255, 255));&quot;&gt;$$CI = M . \frac{S}{S_{ref}}$$&lt;/span&gt;&lt;/div&gt;&lt;div&gt;&lt;span style=&quot;font-size: 18px; background-color: transparent; color: light-dark(rgb(0, 0, 0), rgb(255, 255, 255));&quot;&gt;$$S = \sum_i \text{raw}_i,\space S_{ref} = \text{75th of all S values}$$&lt;/span&gt;&lt;/div&gt;&lt;div&gt;&lt;span style=&quot;font-size: 18px; background-color: transparent; color: light-dark(rgb(0, 0, 0), rgb(255, 255, 255));&quot;&gt;If we just precompute the knee value for all \(CI\) values, we will get \(~ 0.15\). This will be the &lt;b&gt;confusion threshold&lt;/b&gt;&lt;/span&gt;&lt;/div&gt;&lt;div&gt;&lt;span style=&quot;font-size: 18px;&quot;&gt;If \(CI &amp;gt;= 0.15, \text{confusing}\)&lt;/span&gt;&lt;/div&gt;&lt;div&gt;&lt;span style=&quot;font-size: 18px;&quot;&gt;else \(\text{non_confusing}\)&lt;/span&gt;&lt;/div&gt;" style="rounded=1;whiteSpace=wrap;html=1;verticalAlign=top;" vertex="1" parent="1">
          <mxGeometry x="15" y="845" width="820" height="370" as="geometry" />
        </mxCell>
        <mxCell id="E95NTjMqibK0115tFfaJ-15" style="edgeStyle=orthogonalEdgeStyle;rounded=0;orthogonalLoop=1;jettySize=auto;html=1;exitX=0.5;exitY=1;exitDx=0;exitDy=0;" edge="1" parent="1" source="E95NTjMqibK0115tFfaJ-13" target="E95NTjMqibK0115tFfaJ-13">
          <mxGeometry relative="1" as="geometry" />
        </mxCell>
        <mxCell id="E95NTjMqibK0115tFfaJ-28" value="&lt;font style=&quot;font-size: 18px;&quot;&gt;F1 Score&lt;/font&gt;" style="edgeStyle=orthogonalEdgeStyle;rounded=0;orthogonalLoop=1;jettySize=auto;html=1;exitX=0.5;exitY=1;exitDx=0;exitDy=0;entryX=0.5;entryY=0;entryDx=0;entryDy=0;" edge="1" parent="1" source="E95NTjMqibK0115tFfaJ-18" target="E95NTjMqibK0115tFfaJ-27">
          <mxGeometry relative="1" as="geometry" />
        </mxCell>
        <mxCell id="E95NTjMqibK0115tFfaJ-18" value="&lt;div&gt;&lt;font color=&quot;#ff6666&quot;&gt;&lt;span style=&quot;font-size: 18px;&quot;&gt;&lt;b&gt;Confusing&lt;/b&gt;&lt;/span&gt;&lt;/font&gt;&lt;/div&gt;&lt;span style=&quot;font-size: 18px;&quot;&gt;F1 score between the mentioned candidates and actual distractors&lt;/span&gt;" style="rounded=1;whiteSpace=wrap;html=1;verticalAlign=top;" vertex="1" parent="1">
          <mxGeometry x="10" y="1285" width="330" height="100" as="geometry" />
        </mxCell>
        <mxCell id="E95NTjMqibK0115tFfaJ-30" value="Clarification Penalty" style="edgeStyle=orthogonalEdgeStyle;rounded=0;orthogonalLoop=1;jettySize=auto;html=1;exitX=0.5;exitY=1;exitDx=0;exitDy=0;entryX=0.5;entryY=0;entryDx=0;entryDy=0;fontSize=18;" edge="1" parent="1" source="E95NTjMqibK0115tFfaJ-20" target="E95NTjMqibK0115tFfaJ-27">
          <mxGeometry relative="1" as="geometry" />
        </mxCell>
        <mxCell id="E95NTjMqibK0115tFfaJ-20" value="&lt;div&gt;&lt;font color=&quot;#ff6666&quot;&gt;&lt;span style=&quot;font-size: 18px;&quot;&gt;&lt;b&gt;Non-Confusing&lt;/b&gt;&lt;/span&gt;&lt;/font&gt;&lt;/div&gt;&lt;span style=&quot;font-size: 18px;&quot;&gt;$$CP = 1 - \frac{\sum_{\text{i in distractors}}1 - p_i}{\sum_j 1-p_j}$$&lt;/span&gt;" style="rounded=1;whiteSpace=wrap;html=1;verticalAlign=top;" vertex="1" parent="1">
          <mxGeometry x="480" y="1265" width="330" height="120" as="geometry" />
        </mxCell>
        <mxCell id="E95NTjMqibK0115tFfaJ-27" value="&lt;div&gt;&lt;span style=&quot;background-color: transparent; font-size: 20px;&quot;&gt;&lt;font color=&quot;#ff6666&quot;&gt;&lt;b&gt;Brevity Score&lt;/b&gt;&lt;/font&gt;&lt;/span&gt;&lt;/div&gt;&lt;div&gt;&lt;span style=&quot;background-color: transparent; color: light-dark(rgb(0, 0, 0), rgb(255, 255, 255)); font-size: 18px;&quot;&gt;$$L_0 = \text{20 tokens}$$&lt;/span&gt;&lt;/div&gt;&lt;div&gt;&lt;span style=&quot;background-color: transparent; color: light-dark(rgb(0, 0, 0), rgb(255, 255, 255)); font-size: 18px;&quot;&gt;$$L = L_0 + 8.\text{number of distractors}$$&lt;/span&gt;&lt;/div&gt;&lt;div&gt;&lt;span style=&quot;background-color: transparent; color: light-dark(rgb(0, 0, 0), rgb(255, 255, 255)); font-size: 18px;&quot;&gt;$$e^{-\lambda\max({0},{L-L_0})}$$&lt;/span&gt;&lt;/div&gt;&lt;div&gt;&lt;span style=&quot;background-color: transparent; color: light-dark(rgb(0, 0, 0), rgb(255, 255, 255)); font-size: 18px;&quot;&gt;&lt;br&gt;&lt;/span&gt;&lt;/div&gt;&lt;div&gt;&lt;br&gt;&lt;/div&gt;" style="rounded=1;whiteSpace=wrap;html=1;verticalAlign=top;" vertex="1" parent="1">
          <mxGeometry x="15" y="1495" width="820" height="180" as="geometry" />
        </mxCell>
        <mxCell id="E95NTjMqibK0115tFfaJ-31" value="&lt;h1&gt;&lt;font style=&quot;font-size: 36px;&quot;&gt;$$\text{ACC}.\text{F1 | Clarification Penalty}.\text{Brevity}$$&lt;/font&gt;&lt;/h1&gt;" style="text;strokeColor=none;align=center;fillColor=none;html=1;verticalAlign=middle;whiteSpace=wrap;rounded=0;" vertex="1" parent="1">
          <mxGeometry x="95" width="660" height="180" as="geometry" />
        </mxCell>
      </root>
    </mxGraphModel>
  </diagram>
</mxfile>
